<svg width="80" height="83" viewBox="0 0 80 83" fill="none" xmlns="http://www.w3.org/2000/svg">
<path d="M21.25 15.5352C20.56 15.5352 20 14.9752 20 14.2852V4.28516C20 3.59516 20.56 3.03516 21.25 3.03516H61.25C61.94 3.03516 62.5 3.59516 62.5 4.28516C62.5 4.97516 61.94 5.53516 61.25 5.53516H22.5V14.2852C22.5 14.9752 21.94 15.5352 21.25 15.5352Z" fill="#FF4600"/>
<path d="M76.1976 20.5333H61.2501C60.5601 20.5333 60.0001 19.9733 60.0001 19.2833V10.5333C60.0001 9.84328 60.5601 9.28328 61.2501 9.28328C61.9401 9.28328 62.5001 9.84328 62.5001 10.5333V18.0333H73.1851L60.3626 5.16578C59.8776 4.67828 59.8776 3.88578 60.3676 3.39828C60.8551 2.91578 61.6476 2.91078 62.1351 3.40328L77.0826 18.4033C77.4401 18.7608 77.5451 19.2958 77.3501 19.7633C77.1551 20.2283 76.7026 20.5333 76.1976 20.5333Z" fill="#FF4600"/>
<path d="M76.25 78.0352H31.7188C31.0288 78.0352 30.4688 77.4752 30.4688 76.7852C30.4688 76.0952 31.0288 75.5352 31.7188 75.5352H75V19.2852C75 18.5952 75.56 18.0352 76.25 18.0352C76.94 18.0352 77.5 18.5952 77.5 19.2852V76.7852C77.5 77.4752 76.94 78.0352 76.25 78.0352Z" fill="#FF4600"/>
<path d="M26.3731 32.8933V15.9684H26.32C26.32 15.4378 25.8956 15.0664 25.4181 15.0664H19.5289C18.9983 15.0664 18.6269 15.4909 18.6269 15.9684V32.9463C12.7907 34.9625 12.3663 41.3292 12.5254 42.6026V67.592V67.6451V67.6981V75.4443C12.5254 78.5216 15.0191 81.0152 18.0963 81.0152H26.9037C29.9809 81.0152 32.4746 78.5216 32.4746 75.4443V42.5495C32.6337 41.2762 32.2093 34.9094 26.3731 32.8933ZM20.4308 16.8703H24.4631V19.364H20.4308V16.8703ZM26.8506 79.1583H18.0433C16.6638 79.1583 15.4435 78.3624 14.8069 77.2482H30.087C29.4504 78.3624 28.2301 79.1583 26.8506 79.1583ZM30.5645 75.3913H14.3293V68.547H30.5645V75.3913ZM30.5645 66.6901H14.3293V48.4387H30.5645V66.6901ZM30.5645 42.3373C30.5645 42.3903 30.5645 42.4434 30.5645 42.5495V46.6348H14.3293V42.5495C14.3293 42.4965 14.3293 42.4434 14.3293 42.3903C14.3293 42.3373 14.1171 36.0236 19.7411 34.538C20.1655 34.4319 20.4308 34.0605 20.4308 33.6361V21.2209H24.4631V33.6361C24.4631 34.0605 24.7284 34.4319 25.1528 34.538C30.7768 36.0236 30.6176 42.2842 30.5645 42.3373Z" fill="#FF4600"/>
<path d="M52.5726 50.5347C52.5626 50.5347 52.5526 50.5347 52.5426 50.5347C52.1801 50.5247 51.8401 50.3622 51.6101 50.0847L45.3601 42.5847C44.9201 42.0522 44.9901 41.2647 45.5201 40.8222C46.0526 40.3822 46.8376 40.4547 47.2826 40.9822L52.6151 47.3847L65.3976 33.4397C65.8701 32.9297 66.6576 32.8997 67.1651 33.3622C67.6726 33.8297 67.7076 34.6197 67.2376 35.1297L53.4926 50.1297C53.2576 50.3872 52.9251 50.5347 52.5726 50.5347Z" fill="#FF4600"/>
<path d="M52.5 60.5352C44.2275 60.5352 37.5 53.8077 37.5 45.5352C37.5 37.2627 44.2275 30.5352 52.5 30.5352C55.16 30.5352 57.7725 31.2402 60.0575 32.5752C60.6525 32.9227 60.8525 33.6877 60.5075 34.2852C60.155 34.8827 59.385 35.0777 58.7975 34.7352C56.895 33.6202 54.7175 33.0352 52.5 33.0352C45.605 33.0352 40 38.6427 40 45.5352C40 52.4277 45.605 58.0352 52.5 58.0352C59.39 58.0352 65 52.4277 65 45.5352C65 44.6327 64.9025 43.7277 64.7125 42.8552C64.56 42.1777 64.99 41.5127 65.665 41.3652C66.3525 41.2202 67.0075 41.6452 67.155 42.3177C67.3825 43.3727 67.5 44.4502 67.5 45.5352C67.5 53.8077 60.7725 60.5352 52.5 60.5352Z" fill="#FF4600"/>
<path d="M50 19.2852C50 19.9727 49.4375 20.5352 48.75 20.5352H33.75C33.0625 20.5352 32.5 19.9727 32.5 19.2852C32.5 18.5977 33.0625 18.0352 33.75 18.0352H48.75C49.4375 18.0352 50 18.5977 50 19.2852Z" fill="#FF4600"/>
<path d="M55 14.2852C55 14.9727 54.4375 15.5352 53.75 15.5352H33.75C33.0625 15.5352 32.5 14.9727 32.5 14.2852C32.5 13.5977 33.0625 13.0352 33.75 13.0352H53.75C54.4375 13.0352 55 13.5977 55 14.2852Z" fill="#FF4600"/>
</svg>
