<svg width="24" height="24" viewBox="0 0 24 24" fill="none" xmlns="http://www.w3.org/2000/svg">
<g clip-path="url(#clip0_1124_17094)">
<path d="M12 24C18.6274 24 24 18.6274 24 12C24 5.37258 18.6274 0 12 0C5.37258 0 0 5.37258 0 12C0 18.6274 5.37258 24 12 24Z" fill="#2196F3"/>
<path fill-rule="evenodd" clip-rule="evenodd" d="M19.3324 16.4037L19.3196 16.436C19.1988 16.7443 19.0774 17.0523 18.9502 17.3583C18.841 17.6213 18.7279 17.8853 18.603 18.1411C18.5283 18.294 18.41 18.5353 18.29 18.6553C18.1679 18.7777 18.0329 18.8866 17.8875 18.9801C17.0503 19.5159 16.0038 19.4404 15.0837 19.1937C11.1319 18.135 5.86469 12.8678 4.80593 8.916C4.55937 7.99571 4.48399 6.94889 5.02034 6.11171C5.11349 5.96635 5.22216 5.83155 5.34443 5.70966C5.46429 5.58966 5.70593 5.47144 5.8586 5.39677C6.11477 5.27185 6.37891 5.15879 6.64188 5.04952C6.94774 4.92296 7.25594 4.80108 7.56405 4.68014L7.59616 4.66777C7.75761 4.60383 7.93669 4.60017 8.10062 4.65746C8.26455 4.71474 8.40236 4.82914 8.48885 4.97972L10.0166 7.62657C10.1122 7.79323 10.1379 7.9909 10.0882 8.17645C10.0385 8.362 9.91737 8.52035 9.75134 8.61694C9.21091 8.92918 8.77976 9.4149 8.6524 10.0378C8.58833 10.3344 8.58961 10.6415 8.65614 10.9376C8.72268 11.2337 8.85289 11.5118 9.03771 11.7525C9.49923 12.355 10.0023 12.9244 10.5433 13.4566C11.0757 13.9977 11.6453 14.5009 12.2479 14.9625C12.4886 15.1474 12.7667 15.2777 13.0628 15.3442C13.359 15.4108 13.666 15.412 13.9627 15.3479C14.585 15.2206 15.0713 14.7892 15.3833 14.2488C15.4798 14.0827 15.6381 13.9616 15.8236 13.9119C16.0092 13.8622 16.2068 13.8879 16.3734 13.9835L19.02 15.5116C19.1705 15.598 19.285 15.7357 19.3423 15.8995C19.3997 16.0633 19.3962 16.2423 19.3324 16.4037Z" fill="white"/>
</g>
<defs>
<clipPath id="clip0_1124_17094">
<rect width="24" height="24" fill="white"/>
</clipPath>
</defs>
</svg>
