<svg width="19" height="18" viewBox="0 0 19 18" fill="none" xmlns="http://www.w3.org/2000/svg">
<g clip-path="url(#clip0_2791_1442)">
<path d="M15.0248 1.38609H14.3534V0.706718C14.3534 0.318555 14.0387 0.00390625 13.6506 0.00390625C13.2624 0.00390625 12.9477 0.318555 12.9477 0.706718V1.38609H6.05221V0.706718C6.05221 0.318555 5.73757 0.00390625 5.3494 0.00390625C4.96124 0.00390625 4.64659 0.318555 4.64659 0.706718V1.38609H3.97523C2.05898 1.38609 0.5 2.94507 0.5 4.86129V14.5207C0.5 16.4369 2.05898 17.9959 3.97523 17.9959H15.0248C16.941 17.9959 18.5 16.4369 18.5 14.5207V4.86129C18.5 2.94507 16.941 1.38609 15.0248 1.38609ZM3.97523 2.79172H4.64659V4.1622C4.64659 4.55036 4.96124 4.86501 5.3494 4.86501C5.73757 4.86501 6.05221 4.55036 6.05221 4.1622V2.79172H12.9478V4.1622C12.9478 4.55036 13.2624 4.86501 13.6506 4.86501C14.0388 4.86501 14.3534 4.55036 14.3534 4.1622V2.79172H15.0248C16.166 2.79172 17.0944 3.72013 17.0944 4.86129V5.53268H1.90562V4.86129C1.90562 3.72013 2.83404 2.79172 3.97523 2.79172ZM15.0248 16.5903H3.97523C2.83404 16.5903 1.90562 15.6619 1.90562 14.5207V6.93831H17.0944V14.5207C17.0944 15.6619 16.166 16.5903 15.0248 16.5903ZM6.74333 9.70271C6.74333 10.0909 6.42868 10.4055 6.04051 10.4055H4.65833C4.27016 10.4055 3.95552 10.0909 3.95552 9.70271C3.95552 9.31455 4.27016 8.9999 4.65833 8.9999H6.04051C6.42864 8.9999 6.74333 9.31455 6.74333 9.70271ZM15.0445 9.70271C15.0445 10.0909 14.7299 10.4055 14.3417 10.4055H12.9595C12.5714 10.4055 12.2567 10.0909 12.2567 9.70271C12.2567 9.31455 12.5714 8.9999 12.9595 8.9999H14.3417C14.7298 8.9999 15.0445 9.31455 15.0445 9.70271ZM10.8899 9.70271C10.8899 10.0909 10.5753 10.4055 10.1871 10.4055H8.80492C8.41676 10.4055 8.10211 10.0909 8.10211 9.70271C8.10211 9.31455 8.41676 8.9999 8.80492 8.9999H10.1871C10.5752 8.9999 10.8899 9.31455 10.8899 9.70271ZM6.74333 13.8493C6.74333 14.2375 6.42868 14.5521 6.04051 14.5521H4.65833C4.27016 14.5521 3.95552 14.2375 3.95552 13.8493C3.95552 13.4611 4.27016 13.1465 4.65833 13.1465H6.04051C6.42864 13.1465 6.74333 13.4611 6.74333 13.8493ZM15.0445 13.8493C15.0445 14.2375 14.7299 14.5521 14.3417 14.5521H12.9595C12.5714 14.5521 12.2567 14.2375 12.2567 13.8493C12.2567 13.4611 12.5714 13.1465 12.9595 13.1465H14.3417C14.7298 13.1465 15.0445 13.4611 15.0445 13.8493ZM10.8899 13.8493C10.8899 14.2375 10.5753 14.5521 10.1871 14.5521H8.80492C8.41676 14.5521 8.10211 14.2375 8.10211 13.8493C8.10211 13.4611 8.41676 13.1465 8.80492 13.1465H10.1871C10.5752 13.1465 10.8899 13.4611 10.8899 13.8493Z" fill="#646464"/>
</g>
<defs>
<clipPath id="clip0_2791_1442">
<rect width="18" height="18" fill="white" transform="translate(0.5)"/>
</clipPath>
</defs>
</svg>
