<svg width="80" height="81" viewBox="0 0 80 81" fill="none" xmlns="http://www.w3.org/2000/svg">
<g clip-path="url(#clip0_711_3154)">
<path d="M69.1009 12.9138C69.0483 12.6092 68.8792 12.337 68.6292 12.1551C68.3793 11.9732 68.0683 11.8959 67.7623 11.9396C62.815 12.2956 57.85 11.5575 53.2201 9.77786C48.5903 7.99821 44.4092 5.22063 40.9742 1.64252C40.7477 1.42095 40.4435 1.29688 40.1266 1.29688C39.8098 1.29688 39.5056 1.42095 39.2791 1.64252C35.8371 5.21136 31.655 7.98273 27.0269 9.7617C22.3989 11.5407 17.4372 12.2841 12.491 11.9396C12.185 11.8959 11.874 11.9732 11.624 12.1551C11.3741 12.337 11.2049 12.6092 11.1524 12.9138C10.9781 13.9594 7.01772 38.696 24.6177 53.3099C24.705 53.3839 24.804 53.4428 24.9108 53.4841V63.4405C24.917 64.9365 25.5124 66.3699 26.568 67.4299C27.6236 68.49 29.0544 69.0914 30.5504 69.1039V79.3297C30.5504 79.6448 30.6756 79.947 30.8984 80.1698C31.1212 80.3926 31.4234 80.5178 31.7385 80.5178C32.0536 80.5178 32.3558 80.3926 32.5786 80.1698C32.8015 79.947 32.9266 79.6448 32.9266 79.3297V56.2168C32.9266 55.9017 32.8015 55.5995 32.5786 55.3767C32.3558 55.1538 32.0536 55.0287 31.7385 55.0287C31.4234 55.0287 31.1212 55.1538 30.8984 55.3767C30.6756 55.5995 30.5504 55.9017 30.5504 56.2168V66.7277C29.684 66.7173 28.8564 66.3669 28.246 65.752C27.6355 65.1371 27.2911 64.307 27.287 63.4405V51.7653C27.2912 50.8886 27.643 50.0493 28.2652 49.4316C28.8873 48.8139 29.7291 48.4681 30.6058 48.4702H49.6078C50.4846 48.4681 51.3263 48.8139 51.9485 49.4316C52.5707 50.0493 52.9224 50.8886 52.9266 51.7653V63.4405C52.93 64.1498 52.7045 64.8412 52.2835 65.412C51.8625 65.9828 51.2686 66.4026 50.59 66.6089V56.2168C50.59 55.9017 50.4648 55.5995 50.242 55.3767C50.0192 55.1538 49.717 55.0287 49.4019 55.0287C49.0868 55.0287 48.7846 55.1538 48.5618 55.3767C48.3389 55.5995 48.2138 55.9017 48.2138 56.2168V79.3297C48.2138 79.6448 48.3389 79.947 48.5618 80.1698C48.7846 80.3926 49.0868 80.5178 49.4019 80.5178C49.717 80.5178 50.0192 80.3926 50.242 80.1698C50.4648 79.947 50.59 79.6448 50.59 79.3297V69.0326C51.9011 68.8079 53.0914 68.1294 53.9529 67.1159C54.8144 66.1023 55.2923 64.8182 55.3029 63.4881V53.5396C55.3361 53.5269 55.3679 53.511 55.3979 53.492C73.2593 38.8782 69.2751 13.999 69.1009 12.9138ZM55.1682 50.5534C54.8863 49.2917 54.1841 48.1632 53.1767 47.353C52.1693 46.5427 50.9165 46.0988 49.6237 46.094H30.6454C29.3537 46.0984 28.1018 46.5412 27.0945 47.3499C26.0872 48.1586 25.3843 49.2853 25.1009 50.5455C11.691 38.395 12.8316 19.1633 13.3544 14.4029C18.2801 14.6241 23.1987 13.8298 27.8044 12.0693C32.4101 10.3088 36.6044 7.61971 40.1266 4.16926C43.6505 7.61738 47.8451 10.3049 52.4504 12.0653C57.0557 13.8257 61.9735 14.6213 66.8989 14.4029C67.4217 19.1633 68.5623 38.395 55.1682 50.5534ZM41.3148 67.9237V79.3297C41.3148 79.6448 41.1896 79.947 40.9668 80.1698C40.7439 80.3926 40.4417 80.5178 40.1266 80.5178C39.8115 80.5178 39.5093 80.3926 39.2865 80.1698C39.0637 79.947 38.9385 79.6448 38.9385 79.3297V67.9237C38.9385 67.6086 39.0637 67.3064 39.2865 67.0836C39.5093 66.8608 39.8115 66.7356 40.1266 66.7356C40.4417 66.7356 40.7439 66.8608 40.9668 67.0836C41.1896 67.3064 41.3148 67.6086 41.3148 67.9237ZM40.1266 20.1059C37.7588 20.1184 35.4477 20.8321 33.4851 22.1569C31.5225 23.4816 29.9964 25.3581 29.0992 27.5495C28.2021 29.7408 27.9743 32.1488 28.4445 34.4696C28.9147 36.7903 30.0618 38.9197 31.7411 40.5891C33.4204 42.2584 35.5566 43.3929 37.8801 43.8493C40.2035 44.3057 42.6102 44.0636 44.7961 43.1535C46.9821 42.2434 48.8495 40.7061 50.1626 38.7357C51.4757 36.7653 52.1757 34.45 52.1742 32.0821C52.1616 28.8974 50.886 25.8477 48.6273 23.6024C46.3686 21.357 43.3114 20.0996 40.1266 20.1059ZM40.1266 41.69C38.2291 41.6775 36.3778 41.1034 34.8061 40.0401C33.2345 38.9768 32.0129 37.4719 31.2954 35.7152C30.5779 33.9585 30.3966 32.0287 30.7745 30.1692C31.1523 28.3096 32.0724 26.6036 33.4185 25.2662C34.7647 23.9289 36.4768 23.0201 38.3388 22.6544C40.2008 22.2888 42.1293 22.4828 43.8813 23.2118C45.6332 23.9408 47.13 25.1723 48.183 26.7509C49.2359 28.3295 49.7979 30.1846 49.7979 32.0821C49.7969 33.3504 49.5458 34.606 49.059 35.7771C48.5722 36.9483 47.8593 38.0119 46.961 38.9072C46.0628 39.8026 44.9968 40.512 43.824 40.9949C42.6513 41.4779 41.3949 41.7249 40.1266 41.7217V41.69ZM1.34643 20.6445C1.51689 20.3802 1.78521 20.1942 2.09256 20.1274C2.39991 20.0606 2.72122 20.1184 2.98604 20.2881L7.60386 23.2742C7.7522 23.3488 7.88326 23.4536 7.9886 23.5819C8.09395 23.7102 8.17122 23.8592 8.21545 24.0192C8.25968 24.1793 8.26989 24.3468 8.2454 24.511C8.22092 24.6752 8.16229 24.8325 8.0733 24.9726C7.98431 25.1128 7.86693 25.2327 7.72874 25.3247C7.59054 25.4167 7.4346 25.4788 7.27096 25.5068C7.10732 25.5349 6.93962 25.5283 6.77868 25.4876C6.61773 25.4468 6.46711 25.3728 6.33653 25.2702L1.69495 22.292C1.43137 22.1188 1.24687 21.8486 1.1816 21.54C1.11633 21.2314 1.17557 20.9096 1.34643 20.6445ZM10.986 38.9732L7.9999 43.591C7.88901 43.7521 7.73961 43.8828 7.5653 43.9713C7.39099 44.0599 7.19731 44.1034 7.00188 44.098C6.78839 44.0988 6.57867 44.0417 6.39505 43.9328C6.21143 43.8239 6.0608 43.6672 5.9592 43.4795C5.85759 43.2917 5.80883 43.0799 5.81809 42.8666C5.82734 42.6533 5.89429 42.4465 6.01178 42.2683L8.99 37.6504C9.16121 37.3858 9.43055 37.1999 9.73878 37.1338C10.047 37.0677 10.3689 37.1268 10.6336 37.298C10.8983 37.4692 11.0841 37.7385 11.1502 38.0467C11.2163 38.355 11.1572 38.6768 10.986 38.9415V38.9732ZM8.71277 32.4623L2.46326 33.8009C2.37897 33.8091 2.29409 33.8091 2.2098 33.8009C1.89469 33.8335 1.57955 33.7396 1.33371 33.5398C1.08787 33.34 0.93147 33.0507 0.898908 32.7356C0.866347 32.4205 0.960296 32.1053 1.16009 31.8595C1.35988 31.6137 1.64915 31.4573 1.96425 31.4247L8.22168 30.0782C8.53784 30.013 8.86692 30.0762 9.13653 30.2537C9.40613 30.4312 9.59418 30.7085 9.6593 31.0247C9.72443 31.3409 9.66129 31.6699 9.48378 31.9395C9.30627 32.2092 9.02893 32.3972 8.71277 32.4623ZM72.2771 24.9138C72.192 24.783 72.1338 24.6366 72.1056 24.4831C72.0775 24.3297 72.0801 24.1721 72.1132 24.0196C72.1464 23.8672 72.2094 23.7228 72.2987 23.5948C72.3881 23.4669 72.5019 23.3579 72.6336 23.2742L77.2514 20.2881C77.5171 20.1179 77.8396 20.0603 78.1478 20.1279C78.456 20.1955 78.7248 20.3827 78.895 20.6485C79.0651 20.9142 79.1227 21.2367 79.0551 21.5449C78.9876 21.8531 78.8003 22.1219 78.5346 22.292L73.9167 25.2702C73.7859 25.3553 73.6395 25.4136 73.4861 25.4418C73.3326 25.4699 73.175 25.4673 73.0226 25.4342C72.8701 25.401 72.7257 25.338 72.5977 25.2486C72.4698 25.1593 72.3608 25.0455 72.2771 24.9138ZM74.2256 42.2999C74.3961 42.5638 74.4551 42.8844 74.3898 43.1917C74.3245 43.4989 74.1402 43.7678 73.8771 43.9396C73.612 44.1104 73.2902 44.1697 72.9816 44.1044C72.6731 44.0391 72.4028 43.8546 72.2296 43.591L69.2514 38.9732C69.0802 38.7033 69.0232 38.3764 69.093 38.0644C69.1628 37.7525 69.3537 37.4811 69.6237 37.3098C69.8936 37.1386 70.2205 37.0817 70.5324 37.1515C70.8444 37.2213 71.1158 37.4122 71.287 37.6821L74.2256 42.2999ZM79.2078 32.898C79.1434 33.1589 78.9923 33.3902 78.7794 33.5542C78.5665 33.7182 78.3043 33.8052 78.0355 33.8009C77.9539 33.8087 77.8717 33.8087 77.79 33.8009L71.5247 32.4544C71.2159 32.3882 70.946 32.2021 70.7744 31.9369C70.6028 31.6718 70.5436 31.3493 70.6098 31.0405C70.676 30.7317 70.8621 30.4619 71.1273 30.2903C71.3924 30.1187 71.7149 30.0595 72.0237 30.1257L78.289 31.4722C78.4432 31.5051 78.5893 31.5681 78.719 31.6577C78.8487 31.7472 78.9595 31.8616 79.0449 31.9941C79.1302 32.1266 79.1886 32.2746 79.2166 32.4297C79.2445 32.5849 79.2416 32.744 79.2078 32.898Z" fill="#FF4600"/>
</g>
<defs>
<clipPath id="clip0_711_3154">
<rect width="80" height="80" fill="white" transform="translate(0 0.535156)"/>
</clipPath>
</defs>
</svg>
