<svg width="33" height="32" viewBox="0 0 33 32" fill="none" xmlns="http://www.w3.org/2000/svg">
<rect x="0.599609" width="32" height="32" rx="2.56" fill="#323232"/>
<g clip-path="url(#clip0_3711_47509)">
<path d="M26.199 16C26.199 10.6981 21.9009 6.39999 16.599 6.39999C11.2971 6.39999 6.99902 10.6981 6.99902 16C6.99902 20.7916 10.5096 24.7632 15.099 25.4834V18.775H12.6615V16H15.099V13.885C15.099 11.479 16.5323 10.15 18.7251 10.15C19.7754 10.15 20.874 10.3375 20.874 10.3375V12.7H19.6635C18.4709 12.7 18.099 13.44 18.099 14.1992V16H20.7615L20.3359 18.775H18.099V25.4834C22.6884 24.7632 26.199 20.7917 26.199 16Z" fill="#1877F2"/>
<path d="M20.3355 18.775L20.7611 16H18.0986V14.1992C18.0986 13.4399 18.4706 12.7 19.6631 12.7H20.8736V10.3375C20.8736 10.3375 19.775 10.15 18.7247 10.15C16.5319 10.15 15.0986 11.479 15.0986 13.885V16H12.6611V18.775H15.0986V25.4834C15.5948 25.5611 16.0964 25.6001 16.5986 25.6C17.1009 25.6001 17.6024 25.5612 18.0986 25.4834V18.775H20.3355Z" fill="white"/>
</g>
<defs>
<clipPath id="clip0_3711_47509">
<rect width="19.2" height="19.2" fill="white" transform="translate(6.99902 6.39999)"/>
</clipPath>
</defs>
</svg>
