<svg width="33" height="32" viewBox="0 0 33 32" fill="none" xmlns="http://www.w3.org/2000/svg">
<rect x="0.399414" width="32" height="32" rx="2.56" fill="#323232"/>
<g clip-path="url(#clip0_3711_47521)">
<path d="M21.5008 6.39999H11.3008C8.8155 6.39999 6.80078 8.41471 6.80078 10.9V21.1C6.80078 23.5853 8.8155 25.6 11.3008 25.6H21.5008C23.9861 25.6 26.0008 23.5853 26.0008 21.1V10.9C26.0008 8.41471 23.9861 6.39999 21.5008 6.39999Z" fill="url(#paint0_radial_3711_47521)"/>
<path d="M21.5008 6.39999H11.3008C8.8155 6.39999 6.80078 8.41471 6.80078 10.9V21.1C6.80078 23.5853 8.8155 25.6 11.3008 25.6H21.5008C23.9861 25.6 26.0008 23.5853 26.0008 21.1V10.9C26.0008 8.41471 23.9861 6.39999 21.5008 6.39999Z" fill="url(#paint1_radial_3711_47521)"/>
<path d="M16.402 8.5C14.3652 8.5 14.1095 8.50893 13.3096 8.5453C12.5111 8.5819 11.9661 8.70827 11.4892 8.89375C10.9959 9.0853 10.5775 9.34157 10.1606 9.75857C9.74339 10.1755 9.48712 10.5939 9.29497 11.087C9.10897 11.564 8.98244 12.1093 8.94652 12.9074C8.91074 13.7074 8.90137 13.9632 8.90137 16.0001C8.90137 18.037 8.91037 18.2918 8.94667 19.0918C8.98342 19.8902 9.10979 20.4353 9.29512 20.9121C9.48682 21.4055 9.74309 21.8239 10.1601 22.2407C10.5769 22.658 10.9953 22.9148 11.4883 23.1064C11.9655 23.2919 12.5106 23.4182 13.3089 23.4548C14.1089 23.4912 14.3644 23.5001 16.4011 23.5001C18.4382 23.5001 18.6931 23.4912 19.493 23.4548C20.2915 23.4182 20.8371 23.2919 21.3143 23.1064C21.8074 22.9148 22.2253 22.658 22.642 22.2407C23.0592 21.8239 23.3154 21.4055 23.5076 20.9123C23.692 20.4353 23.8186 19.8901 23.8561 19.0919C23.892 18.292 23.9014 18.037 23.9014 16.0001C23.9014 13.9632 23.892 13.7075 23.8561 12.9075C23.8186 12.1091 23.692 11.5641 23.5076 11.0873C23.3154 10.5939 23.0592 10.1755 22.642 9.75857C22.2248 9.34142 21.8076 9.08515 21.3139 8.89382C20.8357 8.70827 20.2904 8.58183 19.492 8.5453C18.6919 8.50893 18.4372 8.5 16.3997 8.5H16.402ZM15.7292 9.85157C15.9289 9.85127 16.1518 9.85157 16.402 9.85157C18.4046 9.85157 18.6419 9.85878 19.4327 9.8947C20.164 9.92815 20.5609 10.0503 20.8252 10.153C21.1753 10.2889 21.4248 10.4514 21.6871 10.714C21.9496 10.9765 22.1121 11.2265 22.2484 11.5765C22.351 11.8405 22.4734 12.2374 22.5067 12.9686C22.5426 13.7593 22.5504 13.9967 22.5504 15.9983C22.5504 17.9999 22.5426 18.2375 22.5067 19.028C22.4732 19.7593 22.351 20.1562 22.2484 20.4203C22.1125 20.7703 21.9496 21.0195 21.6871 21.2819C21.4246 21.5444 21.1754 21.7068 20.8252 21.8428C20.5612 21.9459 20.164 22.0678 19.4327 22.1012C18.6421 22.1372 18.4046 22.145 16.402 22.145C14.3994 22.145 14.162 22.1372 13.3714 22.1012C12.6402 22.0675 12.2433 21.9453 11.9787 21.8426C11.6287 21.7067 11.3787 21.5442 11.1162 21.2817C10.8537 21.0192 10.6912 20.7698 10.555 20.4197C10.4523 20.1556 10.33 19.7587 10.2967 19.0274C10.2607 18.2368 10.2535 17.9993 10.2535 15.9965C10.2535 13.9937 10.2607 13.7574 10.2967 12.9668C10.3301 12.2355 10.4523 11.8386 10.555 11.5742C10.6909 11.2242 10.8537 10.9743 11.1163 10.7118C11.3788 10.4492 11.6287 10.2867 11.9788 10.1505C12.2431 10.0474 12.6402 9.92552 13.3714 9.89192C14.0633 9.86065 14.3314 9.85127 15.7292 9.8497V9.85157ZM20.4055 11.0969C19.9087 11.0969 19.5055 11.4996 19.5055 11.9966C19.5055 12.4934 19.9087 12.8966 20.4055 12.8966C20.9024 12.8966 21.3055 12.4934 21.3055 11.9966C21.3055 11.4997 20.9024 11.0966 20.4055 11.0966V11.0969ZM16.402 12.1485C14.275 12.1485 12.5505 13.873 12.5505 16.0001C12.5505 18.1271 14.275 19.8509 16.402 19.8509C18.5291 19.8509 20.2531 18.1271 20.2531 16.0001C20.2531 13.8731 18.529 12.1485 16.4019 12.1485H16.402ZM16.402 13.5C17.7827 13.5 18.9021 14.6193 18.9021 16.0001C18.9021 17.3807 17.7827 18.5001 16.402 18.5001C15.0213 18.5001 13.9021 17.3807 13.9021 16.0001C13.9021 14.6193 15.0213 13.5 16.402 13.5Z" fill="white"/>
</g>
<defs>
<radialGradient id="paint0_radial_3711_47521" cx="0" cy="0" r="1" gradientUnits="userSpaceOnUse" gradientTransform="translate(11.9008 27.0788) rotate(-90) scale(19.0286 17.6981)">
<stop stop-color="#FFDD55"/>
<stop offset="0.1" stop-color="#FFDD55"/>
<stop offset="0.5" stop-color="#FF543E"/>
<stop offset="1" stop-color="#C837AB"/>
</radialGradient>
<radialGradient id="paint1_radial_3711_47521" cx="0" cy="0" r="1" gradientUnits="userSpaceOnUse" gradientTransform="translate(3.58471 7.78307) rotate(78.681) scale(8.5059 35.0616)">
<stop stop-color="#3771C8"/>
<stop offset="0.128" stop-color="#3771C8"/>
<stop offset="1" stop-color="#6600FF" stop-opacity="0"/>
</radialGradient>
<clipPath id="clip0_3711_47521">
<rect width="19.2" height="19.2" fill="white" transform="translate(6.7998 6.39999)"/>
</clipPath>
</defs>
</svg>
