<svg width="33" height="32" viewBox="0 0 33 32" fill="none" xmlns="http://www.w3.org/2000/svg">
<rect x="0.799805" width="32" height="32" rx="2.56" fill="#323232"/>
<g clip-path="url(#clip0_3711_47517)">
<path d="M24.6004 6.84998H9.00039C8.64644 6.84638 8.30551 6.98334 8.05242 7.23081C7.79933 7.47828 7.65474 7.81604 7.65039 8.16998V23.833C7.65553 24.1864 7.80046 24.5234 8.05347 24.7702C8.30647 25.017 8.64695 25.1536 9.00039 25.15H24.6004C24.9544 25.1528 25.2951 25.0154 25.548 24.7677C25.801 24.5201 25.9456 24.1824 25.9504 23.8285V8.16548C25.9441 7.81258 25.7987 7.47642 25.5459 7.23009C25.2931 6.98376 24.9533 6.84716 24.6004 6.84998Z" fill="#0076B2"/>
<path d="M10.3596 13.7095H13.0761V22.45H10.3596V13.7095ZM11.7186 9.35947C12.0301 9.35947 12.3347 9.45188 12.5937 9.62501C12.8528 9.79814 13.0546 10.0442 13.1738 10.3321C13.293 10.62 13.3241 10.9367 13.2632 11.2423C13.2023 11.5478 13.0521 11.8285 12.8317 12.0487C12.6113 12.2689 12.3305 12.4188 12.0249 12.4794C11.7193 12.54 11.4026 12.5086 11.1148 12.3891C10.827 12.2697 10.5811 12.0676 10.4083 11.8084C10.2354 11.5492 10.1433 11.2445 10.1436 10.933C10.144 10.5155 10.3101 10.1153 10.6054 9.82024C10.9007 9.5252 11.3011 9.35947 11.7186 9.35947ZM14.7801 13.7095H17.3841V14.9095H17.4201C17.7831 14.2225 18.6681 13.498 19.9896 13.498C22.7406 13.492 23.2506 15.3025 23.2506 17.65V22.45H20.5341V18.1975C20.5341 17.185 20.5161 15.8815 19.1226 15.8815C17.7291 15.8815 17.4921 16.9855 17.4921 18.1315V22.45H14.7801V13.7095Z" fill="white"/>
</g>
<defs>
<clipPath id="clip0_3711_47517">
<rect width="19.2" height="19.2" fill="white" transform="translate(7.2002 6.39999)"/>
</clipPath>
</defs>
</svg>
