<svg width="144" height="100" viewBox="0 0 144 100" fill="none" xmlns="http://www.w3.org/2000/svg">
<path d="M109.141 65.6234C104.331 64.5724 100.794 60.874 99.7634 55.8214C99.44 54.2854 99.44 51.2135 99.7634 49.6775C100.329 46.9694 101.562 44.7058 103.482 42.9071C105.867 40.684 108.474 39.6533 111.768 39.6533C117.609 39.6533 122.459 43.7357 123.692 49.6977C123.975 51.0316 124.016 54.144 123.773 55.4981C122.843 60.7527 119.246 64.6331 114.355 65.6234C112.94 65.9063 110.414 65.9063 109.141 65.6234ZM113.284 59.722C114.719 58.9742 115.386 57.2361 115.527 53.7196C115.709 49.4754 114.901 46.6258 113.223 45.7769C112.395 45.3525 110.859 45.3525 110.111 45.7769C108.333 46.8279 107.403 50.3849 107.807 54.528C108.151 57.9233 108.999 59.4997 110.778 59.9645C111.425 60.1262 112.779 59.9847 113.284 59.722ZM7.96875 50.688V35.6719L14.2945 35.7325C21.3277 35.7931 21.2468 35.7931 23.3487 36.8845C25.2282 37.8546 26.744 39.7947 27.2088 41.7551C27.4716 42.8869 27.4109 44.6452 27.0674 45.7365C26.7036 46.8885 25.6931 48.3234 24.8038 48.9499C24.4603 49.1925 24.1975 49.3946 24.1975 49.4148C24.1975 49.435 24.6422 49.7786 25.1878 50.1626C27.4716 51.7996 28.6438 54.5078 28.381 57.5191C28.0577 61.1569 25.7335 63.9661 22.0148 65.2192L20.8022 65.6234L14.3956 65.6638L7.98896 65.7042V50.688H7.96875ZM18.4578 59.7624C19.9938 59.439 20.8224 58.1254 20.6607 56.2256C20.5799 55.1141 20.1151 54.1844 19.4481 53.6993C19.0237 53.3962 18.7408 53.3356 17.3261 53.2951L15.689 53.2345V56.5894V59.9443H16.6591C17.225 59.9443 18.0132 59.8634 18.4578 59.7624ZM18.4376 46.9694C18.7004 46.8077 19.0641 46.5045 19.2258 46.2822C19.8119 45.494 19.8119 43.3113 19.2258 42.5029C18.8216 41.937 18.0536 41.6137 16.8006 41.5126L15.7092 41.4116V44.4027V47.3938L16.8208 47.3129C17.5282 47.2927 18.1143 47.1512 18.4376 46.9694ZM38.4053 65.5425C35.9801 65.1383 34.242 64.2491 32.5848 62.5918C31.5945 61.5813 31.2307 61.0963 30.6446 59.9241C28.3204 55.1949 28.6842 48.7478 31.5338 44.4633C33.5751 41.4115 36.8087 39.6128 40.3253 39.6128C43.1143 39.6128 45.1959 40.4617 47.0755 42.3614C48.0253 43.3113 48.3689 43.7964 48.9954 45.0898C50.0666 47.2927 50.6931 50.1221 50.6931 52.8303V53.861H43.9429H37.1927V54.2046C37.1927 54.8109 37.6373 56.3267 38.1021 57.2968C38.668 58.4487 39.7594 59.4795 40.9518 59.9443C41.6591 60.2272 42.1037 60.2879 43.478 60.2879C45.7214 60.2879 46.8329 59.9645 49.8038 58.4487C49.8645 58.4083 49.9251 59.4795 49.9251 60.8335V63.279L48.8944 63.7842C47.3786 64.5522 45.4789 65.1787 43.862 65.4617C42.4271 65.7042 39.6583 65.7648 38.4053 65.5425ZM43.2355 48.8287C43.0334 45.6153 41.9623 44.0187 40.1029 44.2006C39.6987 44.241 39.1733 44.4229 38.9105 44.6048C38.0011 45.2515 37.2331 47.3938 37.2331 49.3542V50.2232H40.2848H43.3366L43.2355 48.8287ZM58.9995 65.5021C58.959 65.401 56.6551 59.8634 53.8863 53.1941C51.1175 46.5247 48.7529 40.8457 48.6518 40.5829L48.4497 40.0979H52.2695H56.0892L57.6656 44.2208C58.5346 46.4843 59.6664 49.4552 60.1919 50.8295L61.1215 53.2951L61.8693 51.1326C62.2937 49.9402 63.284 46.9694 64.0924 44.5239L65.5678 40.0979H68.8216H72.0754V37.895V35.6921H75.5314H78.9873L82.0795 41.2297C83.7771 44.2814 85.2121 46.7875 85.2727 46.8279C85.3333 46.8683 86.7683 44.3825 88.4861 41.3307L91.5985 35.7729L95.0342 35.7325L98.47 35.6921V50.7082V65.7244H94.8321H91.1943L91.1539 57.317L91.1134 48.9095L88.7084 53.5175L86.3034 58.1254H85.2929H84.2824L81.8774 53.4972C80.5637 50.9508 79.4724 48.8691 79.4522 48.8691C79.432 48.8691 79.4522 52.6484 79.4724 57.2765L79.5128 65.684H75.7941H72.0754L72.035 54.5482L71.9946 43.4124L68.9833 51.1124C67.3261 55.3364 65.3657 60.3485 64.6179 62.2483L63.2638 65.7042H61.1619C59.6462 65.7042 59.0601 65.6436 58.9995 65.5021ZM126.562 65.3202C125.653 64.9766 124.763 64.148 124.299 63.1981C123.955 62.4908 123.894 62.228 123.955 61.3388C124.096 59.1157 125.491 57.6807 127.694 57.5393C130.604 57.3372 132.666 60.0858 131.716 62.895C131.433 63.7438 130.503 64.7341 129.634 65.1585C128.826 65.5223 127.35 65.6031 126.562 65.3202ZM128.219 56.4681C127.876 56.4075 127.532 56.3267 127.492 56.266C127.31 56.0841 126.966 53.4366 126.825 51.072C126.542 46.747 126.683 41.1892 127.128 38.663C127.492 36.6217 128.482 35.0453 129.755 34.4592C131.594 33.6306 134.141 34.6209 134.909 36.5005C135.252 37.3291 135.354 38.9257 135.151 40.3808C134.626 43.9782 132.181 51.9815 130.564 55.3566C129.978 56.6096 129.957 56.6096 129.412 56.5894C129.109 56.5692 128.563 56.5288 128.219 56.4681Z" fill="#CE000C"/>
</svg>
