<svg width="44" height="44" viewBox="0 0 44 44" fill="none" xmlns="http://www.w3.org/2000/svg">
<rect width="44" height="44" rx="8" fill="#FF4600" fill-opacity="0.2"/>
<g clip-path="url(#clip0_3711_47420)">
<path d="M22 10C17.1113 10 13.1343 13.9771 13.1343 18.8657C13.1343 20.4751 13.8561 22.206 13.8863 22.279C14.1194 22.8323 14.5794 23.6918 14.9111 24.1956L20.9898 33.406C21.2386 33.7836 21.6068 34 22 34C22.3932 34 22.7614 33.7836 23.0102 33.4065L29.0894 24.1956C29.4216 23.6918 29.8811 22.8323 30.1142 22.279C30.1444 22.2065 30.8657 20.4756 30.8657 18.8657C30.8657 13.9771 26.8886 10 22 10ZM29.1525 21.8743C28.9444 22.3703 28.5163 23.1698 28.2185 23.6214L22.1392 32.8323C22.0193 33.0143 21.9812 33.0143 21.8613 32.8323L15.782 23.6214C15.4842 23.1698 15.0561 22.3698 14.848 21.8738C14.8391 21.8524 14.1773 20.2592 14.1773 18.8657C14.1773 14.5523 17.6866 11.043 22 11.043C26.3134 11.043 29.8227 14.5523 29.8227 18.8657C29.8227 20.2613 29.1593 21.8587 29.1525 21.8743Z" fill="#FF4600"/>
<path d="M21.9998 14.1726C19.4115 14.1726 17.3062 16.2785 17.3062 18.8662C17.3062 21.454 19.4115 23.5598 21.9998 23.5598C24.588 23.5598 26.6934 21.454 26.6934 18.8662C26.6934 16.2785 24.588 14.1726 21.9998 14.1726ZM21.9998 22.5168C19.9872 22.5168 18.3492 20.8793 18.3492 18.8662C18.3492 16.8532 19.9872 15.2156 21.9998 15.2156C24.0123 15.2156 25.6504 16.8532 25.6504 18.8662C25.6504 20.8793 24.0123 22.5168 21.9998 22.5168Z" fill="#FF4600"/>
</g>
<defs>
<clipPath id="clip0_3711_47420">
<rect width="24" height="24" fill="white" transform="translate(10 10)"/>
</clipPath>
</defs>
</svg>
