<svg width="18" height="18" viewBox="0 0 18 18" fill="none" xmlns="http://www.w3.org/2000/svg">
<path d="M16.7102 15.9148L12.627 11.8315C13.5222 10.7581 14.0625 9.37884 14.0625 7.875C14.0625 4.46316 11.2868 1.6875 7.875 1.6875C4.46316 1.6875 1.6875 4.46316 1.6875 7.875C1.6875 11.2868 4.46316 14.0625 7.875 14.0625C9.37884 14.0625 10.7581 13.5222 11.8315 12.627L15.9148 16.7103C16.0246 16.8202 16.1686 16.8751 16.3125 16.8751C16.4564 16.8751 16.6004 16.8202 16.7102 16.7103C16.93 16.4905 16.93 16.1345 16.7102 15.9148ZM2.8125 7.875C2.8125 5.08359 5.08331 2.8125 7.875 2.8125C10.6667 2.8125 12.9375 5.08359 12.9375 7.875C12.9375 10.6664 10.6667 12.9375 7.875 12.9375C5.08331 12.9375 2.8125 10.6664 2.8125 7.875Z" fill="black"/>
</svg>
