<svg width="32" height="33" viewBox="0 0 32 33" fill="none" xmlns="http://www.w3.org/2000/svg">
<path d="M15.9998 2.81641C12.3007 2.86129 8.76573 4.3507 6.14989 6.96654C3.53404 9.58238 2.04464 13.1173 1.99976 16.8164C2.04464 20.5155 3.53404 24.0504 6.14989 26.6663C8.76573 29.2821 12.3007 30.7715 15.9998 30.8164C19.6988 30.7715 23.2338 29.2821 25.8496 26.6663C28.4655 24.0504 29.9549 20.5155 29.9998 16.8164C29.9549 13.1173 28.4655 9.58238 25.8496 6.96654C23.2338 4.3507 19.6988 2.86129 15.9998 2.81641ZM23.9998 17.8164H16.9998V24.8164H14.9998V17.8164H7.99976V15.8164H14.9998V8.81641H16.9998V15.8164H23.9998V17.8164Z" fill="#FF4600"/>
</svg>
