<svg width="25" height="25" viewBox="0 0 25 25" fill="none" xmlns="http://www.w3.org/2000/svg">
<path d="M16.9629 17.0129C16.9185 17.0033 16.8729 17.0016 16.828 17.0083C16.3772 16.9558 16.0372 16.5745 16.0364 16.1208C16.0364 15.9034 15.8601 15.7271 15.6427 15.7271C15.4253 15.7271 15.2491 15.9034 15.2491 16.1208C15.2502 16.8784 15.7569 17.5419 16.4874 17.7424V18.1361C16.4874 18.3535 16.6636 18.5297 16.881 18.5297C17.0984 18.5297 17.2747 18.3535 17.2747 18.1361V17.7662C18.1178 17.5898 18.6908 16.8046 18.6022 15.9478C18.5134 15.0911 17.7916 14.44 16.9302 14.4398C16.4366 14.4398 16.0364 14.0396 16.0364 13.546C16.0364 13.0524 16.4366 12.6522 16.9302 12.6522C17.4239 12.6522 17.8241 13.0524 17.8241 13.546C17.8241 13.7634 18.0003 13.9397 18.2177 13.9397C18.4351 13.9397 18.6114 13.7634 18.6114 13.546C18.6102 12.7506 18.053 12.0646 17.2747 11.9004V11.5421C17.2747 11.3247 17.0984 11.1484 16.881 11.1484C16.6636 11.1484 16.4874 11.3247 16.4874 11.5421V11.9244C15.675 12.1463 15.1522 12.9349 15.2641 13.7696C15.3759 14.6042 16.0881 15.2272 16.9302 15.227C17.4173 15.227 17.8146 15.617 17.8235 16.1039C17.8325 16.5908 17.4496 16.9952 16.9629 17.0129Z" fill="white"/>
<path d="M11.2217 14.8648C11.2217 18.0177 13.7775 20.5734 16.9303 20.5734C20.0831 20.5734 22.6389 18.0177 22.6389 14.8648C22.6389 11.712 20.0831 9.15625 16.9303 9.15625C13.779 9.15971 11.2253 11.7136 11.2217 14.8648ZM16.9303 9.94359C19.6483 9.94359 21.8515 12.1468 21.8515 14.8648C21.8515 17.5828 19.6483 19.7861 16.9303 19.7861C14.2123 19.7861 12.009 17.5828 12.009 14.8648C12.0121 12.1482 14.2136 9.94666 16.9303 9.94359Z" fill="white"/>
<path d="M17.3244 8.04759V4.30773C17.3244 4.09033 17.1482 3.91406 16.9308 3.91406C16.7134 3.91406 16.5371 4.09033 16.5371 4.30773V8.04759C16.5371 8.26499 16.7134 8.44126 16.9308 8.44126C17.1482 8.44126 17.3244 8.26499 17.3244 8.04759Z" fill="white"/>
<path d="M20.2766 8.04799V6.27648C20.2766 6.05908 20.1003 5.88281 19.8829 5.88281C19.6655 5.88281 19.4893 6.05908 19.4893 6.27648V8.04799C19.4893 8.2654 19.6655 8.44166 19.8829 8.44166C20.1003 8.44166 20.2766 8.2654 20.2766 8.04799Z" fill="white"/>
<path d="M14.3713 8.04799V6.27648C14.3713 6.05908 14.1951 5.88281 13.9777 5.88281C13.7603 5.88281 13.584 6.05908 13.584 6.27648V8.04799C13.584 8.2654 13.7603 8.44166 13.9777 8.44166C14.1951 8.44166 14.3713 8.2654 14.3713 8.04799Z" fill="white"/>
<path d="M10.9064 8.19614L12.2206 3.29168L12.2052 3.28756C12.2464 3.13381 12.1523 2.99324 12.0139 2.95616L10.3073 2.49889C10.1536 2.45769 10.013 2.55185 9.97591 2.69022L8.65765 7.61006C6.80991 7.74114 6.19256 9.55312 6.13981 9.93447L4.19949 17.1759L4.19537 17.1912L4.19125 17.2066L3.58979 19.4513C3.35086 20.343 3.87984 21.2592 4.77156 21.4982L7.32372 22.182C8.21545 22.4209 9.13167 21.892 9.3706 21.0002L11.9247 11.4681C12.0697 11.1114 12.4411 9.23353 10.9064 8.19614ZM10.4286 3.09165L11.5971 3.40474L11.4035 4.12734L10.235 3.81425L10.4286 3.09165ZM7.45254 21.6398L4.90037 20.9559C4.50063 20.8488 4.20881 20.5235 4.11083 20.1512L8.53869 21.3376C8.26768 21.611 7.85227 21.7469 7.45254 21.6398ZM8.82124 20.8366L4.11664 19.576L4.64807 17.5927L9.35267 18.8533L8.82124 20.8366ZM9.49685 18.3151L4.79226 17.0546L6.20939 11.7657L10.914 13.0263L9.49685 18.3151ZM11.3877 11.2583C11.3836 11.2736 11.3795 11.289 11.3713 11.3198L11.0541 12.5036L6.34946 11.243L6.66667 10.0592C6.67079 10.0438 6.67491 10.0284 6.67903 10.013C6.68315 9.99766 7.11188 8.15162 8.85692 8.15781C8.98816 8.16001 9.09387 8.07299 9.12683 7.94999L10.0908 4.35236L11.2593 4.66545L10.2953 8.26308C10.2623 8.38608 10.3104 8.5143 10.4251 8.578C11.9395 9.44517 11.4072 11.247 11.3877 11.2583Z" fill="white"/>
</svg>
