<svg width="25" height="25" viewBox="0 0 25 25" fill="none" xmlns="http://www.w3.org/2000/svg">
<g clip-path="url(#clip0_711_3224)">
<path d="M6.73354 4.73285C6.5305 4.73285 6.36572 4.56807 6.36572 4.36503V1.4225C6.36572 1.21947 6.5305 1.05469 6.73354 1.05469H18.5037C18.7067 1.05469 18.8715 1.21947 18.8715 1.4225C18.8715 1.62554 18.7067 1.79032 18.5037 1.79032H7.10135V4.36503C7.10135 4.56807 6.93657 4.73285 6.73354 4.73285Z" fill="#F4F4F4"/>
<path d="M22.8999 6.20356H18.5015C18.2985 6.20356 18.1337 6.03878 18.1337 5.83575V3.26103C18.1337 3.058 18.2985 2.89322 18.5015 2.89322C18.7046 2.89322 18.8694 3.058 18.8694 3.26103V5.46793H22.0135L18.2404 1.68163C18.0977 1.53818 18.0977 1.30499 18.2419 1.16154C18.3853 1.01956 18.6185 1.01809 18.762 1.16301L23.1603 5.5768C23.2655 5.682 23.2964 5.83942 23.239 5.97699C23.1816 6.11381 23.0485 6.20356 22.8999 6.20356Z" fill="#F4F4F4"/>
<path d="M22.9163 23.12H9.81288C9.60985 23.12 9.44507 22.9552 9.44507 22.7522C9.44507 22.5492 9.60985 22.3844 9.81288 22.3844H22.5485V5.83266C22.5485 5.62963 22.7133 5.46484 22.9163 5.46484C23.1194 5.46484 23.2841 5.62963 23.2841 5.83266V22.7522C23.2841 22.9552 23.1194 23.12 22.9163 23.12Z" fill="#F4F4F4"/>
<path d="M8.24016 9.84327V4.86306H8.22455C8.22455 4.70694 8.09965 4.59766 7.95914 4.59766H6.22622C6.0701 4.59766 5.96082 4.72255 5.96082 4.86306V9.85888C4.2435 10.4521 4.11861 12.3256 4.16544 12.7002V20.0535V20.0691V20.0847V22.364C4.16544 23.2695 4.89921 24.0033 5.8047 24.0033H8.39628C9.30177 24.0033 10.0355 23.2695 10.0355 22.364V12.6846C10.0824 12.31 9.95747 10.4365 8.24016 9.84327ZM6.49162 5.12846H7.67813V5.86222H6.49162V5.12846ZM8.38067 23.4569H5.78909C5.38318 23.4569 5.0241 23.2227 4.83676 22.8948H9.33299C9.14565 23.2227 8.78658 23.4569 8.38067 23.4569ZM9.4735 22.3484H4.69625V20.3345H9.4735V22.3484ZM9.4735 19.7881H4.69625V14.4176H9.4735V19.7881ZM9.4735 12.6222C9.4735 12.6378 9.4735 12.6534 9.4735 12.6846V13.8868H4.69625V12.6846C4.69625 12.669 4.69625 12.6534 4.69625 12.6378C4.69625 12.6222 4.6338 10.7644 6.28867 10.3272C6.41356 10.296 6.49162 10.1867 6.49162 10.0618V6.40864H7.67813V10.0618C7.67813 10.1867 7.75619 10.296 7.88109 10.3272C9.53595 10.7644 9.48911 12.6066 9.4735 12.6222Z" fill="#F4F4F4"/>
<path d="M15.9541 15.0321C15.9512 15.0321 15.9482 15.0321 15.9453 15.0321C15.8386 15.0292 15.7386 14.9813 15.6709 14.8997L13.8318 12.6928C13.7024 12.5361 13.7229 12.3044 13.8789 12.1742C14.0356 12.0447 14.2666 12.066 14.3975 12.2213L15.9666 14.1052L19.7279 10.0019C19.8669 9.85178 20.0987 9.84296 20.248 9.97905C20.3973 10.1166 20.4076 10.3491 20.2693 10.4991L16.2248 14.9129C16.1557 14.9887 16.0578 15.0321 15.9541 15.0321Z" fill="#F4F4F4"/>
<path d="M15.9302 17.9799C13.4959 17.9799 11.5164 16.0003 11.5164 13.5661C11.5164 11.1319 13.4959 9.15234 15.9302 9.15234C16.7129 9.15234 17.4816 9.35979 18.154 9.75262C18.329 9.85487 18.3879 10.08 18.2864 10.2558C18.1827 10.4316 17.9561 10.489 17.7832 10.3882C17.2234 10.0601 16.5827 9.88798 15.9302 9.88798C13.9013 9.88798 12.252 11.538 12.252 13.5661C12.252 15.5943 13.9013 17.2443 15.9302 17.2443C17.9576 17.2443 19.6083 15.5943 19.6083 13.5661C19.6083 13.3006 19.5796 13.0343 19.5237 12.7775C19.4788 12.5782 19.6054 12.3825 19.804 12.3391C20.0063 12.2964 20.199 12.4215 20.2424 12.6194C20.3094 12.9298 20.3439 13.2469 20.3439 13.5661C20.3439 16.0003 18.3644 17.9799 15.9302 17.9799Z" fill="#F4F4F4"/>
<path d="M15.1919 5.83657C15.1919 6.03886 15.0264 6.20438 14.8241 6.20438H10.4103C10.208 6.20438 10.0425 6.03886 10.0425 5.83657C10.0425 5.63427 10.208 5.46875 10.4103 5.46875H14.8241C15.0264 5.46875 15.1919 5.63427 15.1919 5.83657Z" fill="#F4F4F4"/>
<path d="M16.6634 4.36782C16.6634 4.57011 16.4979 4.73563 16.2956 4.73563H10.4105C10.2082 4.73563 10.0427 4.57011 10.0427 4.36782C10.0427 4.16552 10.2082 4 10.4105 4H16.2956C16.4979 4 16.6634 4.16552 16.6634 4.36782Z" fill="#F4F4F4"/>
</g>
<defs>
<clipPath id="clip0_711_3224">
<rect width="23.5402" height="24" fill="white" transform="translate(0.47998 0.316406)"/>
</clipPath>
</defs>
</svg>
