<svg width="33" height="32" viewBox="0 0 33 32" fill="none" xmlns="http://www.w3.org/2000/svg">
<rect x="0.199219" width="32" height="32" rx="2.56" fill="#323232"/>
<g clip-path="url(#clip0_3711_47513)">
<path d="M25.4333 11.2801C25.3228 10.8718 25.1073 10.4997 24.8082 10.2006C24.5091 9.90158 24.137 9.6861 23.7287 9.57565C22.2341 9.16809 16.2192 9.16809 16.2192 9.16809C16.2192 9.16809 10.204 9.18046 8.70959 9.58802C8.30136 9.69849 7.9292 9.91397 7.63015 10.213C7.33111 10.5121 7.11562 10.8842 7.00515 11.2925C6.55307 13.9481 6.37768 17.9943 7.01752 20.5436C7.12799 20.9518 7.34348 21.324 7.64252 21.623C7.94157 21.922 8.31373 22.1375 8.72196 22.248C10.2165 22.6556 16.2315 22.6556 16.2315 22.6556C16.2315 22.6556 22.2465 22.6556 23.7411 22.248C24.1493 22.1375 24.5215 21.922 24.8205 21.623C25.1196 21.324 25.335 20.9518 25.4455 20.5436C25.9222 17.8843 26.0692 13.8405 25.4331 11.2802" fill="#FF0000"/>
<path d="M14.3037 18.802L19.2936 15.9119L14.3037 13.0216V18.802Z" fill="white"/>
</g>
<defs>
<clipPath id="clip0_3711_47513">
<rect width="19.2" height="13.6638" fill="white" transform="translate(6.59961 9.16809)"/>
</clipPath>
</defs>
</svg>
