<svg width="44" height="44" viewBox="0 0 44 44" fill="none" xmlns="http://www.w3.org/2000/svg">
<rect width="44" height="44" rx="8" fill="#FF4600" fill-opacity="0.2"/>
<g clip-path="url(#clip0_485_12449)">
<path d="M32.7692 14H11.2308C10.5538 14 10 14.5538 10 15.2307V28.7692C10 29.4461 10.5538 30 11.2308 30H32.7692C33.4461 30 34 29.4462 34 28.7692V15.2307C34 14.5538 33.4462 14 32.7692 14ZM32.3073 14.923L22.708 22.1231C22.5354 22.2545 22.2705 22.3366 22 22.3354C21.7295 22.3366 21.4646 22.2545 21.292 22.1231L11.6926 14.923H32.3073ZM27.1797 22.5982L32.4105 29.0598C32.4157 29.0662 32.4221 29.0712 32.4277 29.077H11.5723C11.5778 29.0709 11.5843 29.0662 11.5895 29.0598L16.8203 22.5982C16.9806 22.4 16.9502 22.1096 16.7517 21.9489C16.5535 21.7887 16.2631 21.819 16.1027 22.0172L10.9231 28.4157V15.5L20.7384 22.8615C21.1074 23.1363 21.5562 23.2572 21.9999 23.2584C22.443 23.2575 22.8922 23.1365 23.2614 22.8615L33.0767 15.5V28.4156L27.8972 22.0172C27.7369 21.8191 27.4461 21.7886 27.2483 21.9489C27.0498 22.1092 27.0193 22.4 27.1797 22.5982Z" fill="#FF4600"/>
</g>
<defs>
<clipPath id="clip0_485_12449">
<rect width="24" height="24" fill="white" transform="translate(10 10)"/>
</clipPath>
</defs>
</svg>
