<svg width="51" height="50" viewBox="0 0 51 50" fill="none" xmlns="http://www.w3.org/2000/svg">
<rect x="0.5" width="50" height="50" rx="4" fill="#323232"/>
<g clip-path="url(#clip0_485_11995)">
<path d="M40.5 25C40.5 16.7158 33.7842 10 25.5 10C17.2158 10 10.5 16.7158 10.5 25C10.5 32.4869 15.9853 38.6925 23.1562 39.8178V29.3359H19.3477V25H23.1562V21.6953C23.1562 17.9359 25.3957 15.8594 28.822 15.8594C30.4631 15.8594 32.1797 16.1523 32.1797 16.1523V19.8438H30.2883C28.4249 19.8438 27.8438 21 27.8438 22.1863V25H32.0039L31.3389 29.3359H27.8438V39.8178C35.0147 38.6925 40.5 32.487 40.5 25Z" fill="#1877F2"/>
<path d="M31.3389 29.3359L32.0039 25H27.8438V22.1863C27.8438 20.9999 28.4249 19.8438 30.2883 19.8438H32.1797V16.1523C32.1797 16.1523 30.4631 15.8594 28.8219 15.8594C25.3957 15.8594 23.1562 17.9359 23.1562 21.6953V25H19.3477V29.3359H23.1562V39.8178C23.9316 39.9393 24.7152 40.0002 25.5 40C26.2848 40.0002 27.0684 39.9393 27.8438 39.8178V29.3359H31.3389Z" fill="white"/>
</g>
<defs>
<clipPath id="clip0_485_11995">
<rect width="30" height="30" fill="white" transform="translate(10.5 10)"/>
</clipPath>
</defs>
</svg>
