<svg width="22" height="22" viewBox="0 0 22 22" fill="none" xmlns="http://www.w3.org/2000/svg">
<path d="M11.0006 21.75C9.33926 21.7531 7.69984 21.3711 6.21098 20.634C4.72213 19.897 3.42438 18.8248 2.41958 17.5018C1.41478 16.1788 0.730292 14.6409 0.419838 13.0089C0.109385 11.3768 0.181417 9.69503 0.630281 8.09551C1.07914 6.49598 1.89262 5.02225 3.00686 3.79C4.1211 2.55775 5.50578 1.60052 7.0522 0.993444C8.59862 0.386366 10.2647 0.145964 11.9197 0.291108C13.5746 0.436252 15.1734 0.962993 16.5906 1.82998C16.7541 1.93144 16.8716 2.09261 16.9183 2.2793C16.965 2.46599 16.9371 2.66351 16.8406 2.82998C16.7374 2.99156 16.5763 3.1075 16.3903 3.154C16.2043 3.20049 16.0076 3.17401 15.8406 3.07998C14.0992 2.01225 12.0531 1.55164 10.0221 1.77017C7.9912 1.98871 6.08992 2.87406 4.61555 4.28781C3.14118 5.70157 2.17683 7.56402 1.87327 9.58401C1.56971 11.604 1.94406 13.6676 2.93779 15.4523C3.93152 17.2369 5.4886 18.642 7.36561 19.4478C9.24261 20.2536 11.3337 20.4147 13.312 19.906C15.2903 19.3972 17.0443 18.2473 18.2997 16.6359C19.555 15.0246 20.2411 13.0426 20.2506 11C20.2505 10.4324 20.1935 9.86623 20.0806 9.30998C20.0421 9.11386 20.0825 8.91049 20.1929 8.74391C20.3034 8.57733 20.475 8.46096 20.6706 8.41998C20.8655 8.38176 21.0676 8.42241 21.2326 8.53302C21.3975 8.64362 21.5119 8.81516 21.5506 9.00998C21.6842 9.66824 21.7512 10.3383 21.7506 11.01C21.7453 13.8585 20.6107 16.5887 18.5955 18.602C16.5804 20.6153 13.8491 21.7473 11.0006 21.75ZM11.3106 14.07L20.9106 4.47998C21.051 4.33936 21.1299 4.14873 21.1299 3.94998C21.1299 3.75123 21.051 3.56061 20.9106 3.41998C20.8416 3.34923 20.7592 3.29299 20.6682 3.25459C20.5772 3.2162 20.4794 3.19641 20.3806 3.19641C20.2818 3.19641 20.184 3.2162 20.093 3.25459C20.0019 3.29299 19.9195 3.34923 19.8506 3.41998L10.7806 12.48L6.91057 8.60998C6.84163 8.53923 6.75921 8.48299 6.66818 8.44459C6.57716 8.40619 6.47937 8.38641 6.38057 8.38641C6.28178 8.38641 6.18399 8.40619 6.09296 8.44459C6.00193 8.48299 5.91952 8.53923 5.85057 8.60998C5.71012 8.75061 5.63123 8.94123 5.63123 9.13998C5.63123 9.33873 5.71012 9.52936 5.85057 9.66998L10.2506 14.07C10.3198 14.1401 10.4024 14.1957 10.4934 14.2334C10.5844 14.2712 10.682 14.2904 10.7806 14.29C10.8794 14.2922 10.9775 14.2738 11.0688 14.2359C11.1601 14.198 11.2424 14.1415 11.3106 14.07Z" fill="#FF4600"/>
</svg>
