<svg width="51" height="50" viewBox="0 0 51 50" fill="none" xmlns="http://www.w3.org/2000/svg">
<rect x="0.5" width="50" height="50" rx="4" fill="#323232"/>
<g clip-path="url(#clip0_485_12007)">
<path d="M33.4688 10H17.5312C13.648 10 10.5 13.148 10.5 17.0312V32.9688C10.5 36.852 13.648 40 17.5312 40H33.4688C37.352 40 40.5 36.852 40.5 32.9688V17.0312C40.5 13.148 37.352 10 33.4688 10Z" fill="url(#paint0_radial_485_12007)"/>
<path d="M33.4688 10H17.5312C13.648 10 10.5 13.148 10.5 17.0312V32.9688C10.5 36.852 13.648 40 17.5312 40H33.4688C37.352 40 40.5 36.852 40.5 32.9688V17.0312C40.5 13.148 37.352 10 33.4688 10Z" fill="url(#paint1_radial_485_12007)"/>
<path d="M25.5011 13.2812C22.3185 13.2812 21.919 13.2952 20.6691 13.352C19.4215 13.4092 18.5699 13.6067 17.8248 13.8965C17.0539 14.1958 16.4002 14.5962 15.7488 15.2478C15.0969 15.8992 14.6965 16.553 14.3963 17.3235C14.1056 18.0688 13.9079 18.9208 13.8518 20.1678C13.7959 21.4178 13.7812 21.8174 13.7812 25.0001C13.7812 28.1828 13.7953 28.581 13.852 29.8309C13.9095 31.0785 14.1069 31.9301 14.3965 32.6752C14.696 33.4461 15.0964 34.0998 15.748 34.7512C16.3992 35.4031 17.053 35.8045 17.8233 36.1038C18.5689 36.3936 19.4207 36.591 20.668 36.6482C21.918 36.705 22.3172 36.719 25.4996 36.719C28.6826 36.719 29.0808 36.705 30.3307 36.6482C31.5783 36.591 32.4308 36.3936 33.1765 36.1038C33.947 35.8045 34.5998 35.4031 35.2509 34.7512C35.9029 34.0998 36.3032 33.4461 36.6035 32.6755C36.8916 31.9301 37.0894 31.0783 37.148 29.8312C37.2041 28.5812 37.2188 28.1828 37.2188 25.0001C37.2188 21.8174 37.2041 21.418 37.148 20.168C37.0894 18.9204 36.8916 18.0689 36.6035 17.3239C36.3032 16.553 35.9029 15.8992 35.2509 15.2478C34.5991 14.596 33.9472 14.1955 33.1758 13.8966C32.4287 13.6067 31.5766 13.4091 30.3291 13.352C29.079 13.2952 28.6811 13.2812 25.4974 13.2812H25.5011ZM24.4498 15.3931C24.7618 15.3926 25.11 15.3931 25.5011 15.3931C28.6301 15.3931 29.0009 15.4043 30.2365 15.4605C31.3791 15.5127 31.9992 15.7036 32.4123 15.8641C32.9592 16.0764 33.3491 16.3304 33.759 16.7406C34.1692 17.1508 34.423 17.5414 34.6359 18.0883C34.7964 18.5008 34.9875 19.1209 35.0395 20.2635C35.0957 21.4989 35.1079 21.8699 35.1079 24.9974C35.1079 28.1249 35.0957 28.4961 35.0395 29.7313C34.9873 30.8739 34.7964 31.4941 34.6359 31.9067C34.4236 32.4536 34.1692 32.843 33.759 33.2529C33.3489 33.6631 32.9595 33.9169 32.4123 34.1294C31.9997 34.2905 31.3791 34.4809 30.2365 34.5332C29.0011 34.5893 28.6301 34.6015 25.5011 34.6015C22.3719 34.6015 22.001 34.5893 20.7657 34.5332C19.6232 34.4805 19.003 34.2896 18.5896 34.1291C18.0428 33.9167 17.6521 33.6629 17.2419 33.2527C16.8318 32.8425 16.5779 32.4529 16.365 31.9057C16.2046 31.4931 16.0134 30.873 15.9614 29.7304C15.9053 28.495 15.894 28.124 15.894 24.9945C15.894 21.8651 15.9053 21.496 15.9614 20.2606C16.0137 19.118 16.2046 18.4979 16.365 18.0848C16.5775 17.5379 16.8318 17.1473 17.242 16.7371C17.6522 16.327 18.0428 16.073 18.5897 15.8602C19.0028 15.6991 19.6232 15.5086 20.7657 15.4561C21.8468 15.4073 22.2657 15.3926 24.4498 15.3902V15.3931ZM31.7565 17.3389C30.9802 17.3389 30.3503 17.9682 30.3503 18.7446C30.3503 19.521 30.9802 20.1509 31.7565 20.1509C32.5329 20.1509 33.1628 19.521 33.1628 18.7446C33.1628 17.9683 32.5329 17.3384 31.7565 17.3384V17.3389ZM25.5011 18.982C22.1776 18.982 19.483 21.6766 19.483 25.0001C19.483 28.3237 22.1776 31.017 25.5011 31.017C28.8246 31.017 31.5183 28.3237 31.5183 25.0001C31.5183 21.6767 28.8244 18.982 25.5008 18.982H25.5011ZM25.5011 21.0938C27.6584 21.0938 29.4074 22.8426 29.4074 25.0001C29.4074 27.1574 27.6584 28.9064 25.5011 28.9064C23.3436 28.9064 21.5948 27.1574 21.5948 25.0001C21.5948 22.8426 23.3436 21.0938 25.5011 21.0938Z" fill="white"/>
</g>
<defs>
<radialGradient id="paint0_radial_485_12007" cx="0" cy="0" r="1" gradientUnits="userSpaceOnUse" gradientTransform="translate(18.4687 42.3106) rotate(-90) scale(29.7322 27.6533)">
<stop stop-color="#FFDD55"/>
<stop offset="0.1" stop-color="#FFDD55"/>
<stop offset="0.5" stop-color="#FF543E"/>
<stop offset="1" stop-color="#C837AB"/>
</radialGradient>
<radialGradient id="paint1_radial_485_12007" cx="0" cy="0" r="1" gradientUnits="userSpaceOnUse" gradientTransform="translate(5.47488 12.1611) rotate(78.681) scale(13.2905 54.7837)">
<stop stop-color="#3771C8"/>
<stop offset="0.128" stop-color="#3771C8"/>
<stop offset="1" stop-color="#6600FF" stop-opacity="0"/>
</radialGradient>
<clipPath id="clip0_485_12007">
<rect width="30" height="30" fill="white" transform="translate(10.5 10)"/>
</clipPath>
</defs>
</svg>
