<svg width="51" height="50" viewBox="0 0 51 50" fill="none" xmlns="http://www.w3.org/2000/svg">
<rect x="0.5" width="50" height="50" rx="4" fill="#323232"/>
<path d="M37.6875 10.7031H13.3125C12.7594 10.6975 12.2268 10.9115 11.8313 11.2982C11.4358 11.6848 11.2099 12.2126 11.2031 12.7656V37.2391C11.2112 37.7913 11.4376 38.3178 11.8329 38.7035C12.2283 39.0892 12.7602 39.3025 13.3125 39.2969H37.6875C38.2406 39.3013 38.7729 39.0865 39.1682 38.6996C39.5634 38.3127 39.7895 37.7851 39.7969 37.232V12.7586C39.787 12.2072 39.5599 11.6819 39.1649 11.297C38.7699 10.9122 38.239 10.6987 37.6875 10.7031Z" fill="#0076B2"/>
<path d="M15.4359 21.4211H19.6804V35.0781H15.4359V21.4211ZM17.5593 14.6242C18.0462 14.6242 18.522 14.7686 18.9268 15.0391C19.3315 15.3096 19.647 15.6941 19.8332 16.1439C20.0194 16.5938 20.068 17.0887 19.9728 17.5661C19.8777 18.0436 19.643 18.4821 19.2986 18.8261C18.9542 19.1702 18.5155 19.4044 18.038 19.4991C17.5605 19.5938 17.0656 19.5447 16.6159 19.3581C16.1663 19.1715 15.7821 18.8557 15.512 18.4507C15.2419 18.0457 15.0979 17.5696 15.0984 17.0828C15.099 16.4305 15.3586 15.8052 15.82 15.3442C16.2815 14.8832 16.9071 14.6242 17.5593 14.6242ZM22.3429 21.4211H26.4117V23.2961H26.4679C27.0351 22.2227 28.4179 21.0906 30.4828 21.0906C34.7812 21.0812 35.5781 23.9102 35.5781 27.5781V35.0781H31.3335V28.4336C31.3335 26.8516 31.3054 24.8148 29.1281 24.8148C26.9507 24.8148 26.5804 26.5398 26.5804 28.3305V35.0781H22.3429V21.4211Z" fill="white"/>
</svg>
