<svg width="18" height="18" viewBox="0 0 18 18" fill="none" xmlns="http://www.w3.org/2000/svg">
<g clip-path="url(#clip0_1916_11049)">
<path d="M0.879071 18.0001C0.705215 18.0001 0.535256 17.9486 0.390691 17.852C0.246125 17.7555 0.133448 17.6182 0.0669123 17.4576C0.000376494 17.297 -0.0170291 17.1202 0.0168973 16.9497C0.0508237 16.7792 0.134558 16.6226 0.257508 16.4996L16.4997 0.25746C16.6645 0.092611 16.8881 0 17.1213 0C17.3544 0 17.578 0.092611 17.7428 0.25746C17.9077 0.422308 18.0003 0.645891 18.0003 0.879022C18.0003 1.11215 17.9077 1.33574 17.7428 1.50058L1.50063 17.7428C1.41908 17.8245 1.32219 17.8893 1.21553 17.9335C1.10886 17.9776 0.994518 18.0003 0.879071 18.0001Z" fill="black"/>
<path d="M17.1212 18.0001C17.0058 18.0003 16.8914 17.9776 16.7848 17.9335C16.6781 17.8893 16.5812 17.8245 16.4996 17.7428L0.25746 1.50058C0.092611 1.33574 0 1.11215 0 0.879022C0 0.645891 0.092611 0.422308 0.25746 0.25746C0.422308 0.092611 0.645891 0 0.879022 0C1.11215 0 1.33574 0.092611 1.50058 0.25746L17.7428 16.4996C17.8657 16.6226 17.9495 16.7792 17.9834 16.9497C18.0173 17.1202 17.9999 17.297 17.9334 17.4576C17.8668 17.6182 17.7542 17.7555 17.6096 17.852C17.465 17.9486 17.2951 18.0001 17.1212 18.0001Z" fill="black"/>
</g>
<defs>
<clipPath id="clip0_1916_11049">
<rect width="18" height="18" fill="white"/>
</clipPath>
</defs>
</svg>
