<svg width="23" height="10" viewBox="0 0 23 10" fill="none" xmlns="http://www.w3.org/2000/svg">
<path d="M1.5 4.375C1.15482 4.375 0.875 4.65482 0.875 5C0.875 5.34518 1.15482 5.625 1.5 5.625L1.5 4.375ZM21.9419 5.44194C22.186 5.19787 22.186 4.80214 21.9419 4.55806L17.9645 0.580584C17.7204 0.336506 17.3247 0.336506 17.0806 0.580584C16.8365 0.824662 16.8365 1.22039 17.0806 1.46447L20.6161 5L17.0806 8.53554C16.8365 8.77961 16.8365 9.17534 17.0806 9.41942C17.3247 9.6635 17.7204 9.6635 17.9645 9.41942L21.9419 5.44194ZM1.5 5.625L21.5 5.625L21.5 4.375L1.5 4.375L1.5 5.625Z" fill="white"/>
</svg>
