<svg width="80" height="81" viewBox="0 0 80 81" fill="none" xmlns="http://www.w3.org/2000/svg">
<path d="M54.0445 56.1928C53.8965 56.1608 53.7446 56.155 53.5947 56.1774C52.0922 56.0025 50.9587 54.7313 50.9561 53.2191C50.9561 52.4945 50.3686 51.9069 49.6439 51.9069C48.9192 51.9069 48.3317 52.4945 48.3317 53.2191C48.3355 55.7443 50.0245 57.9561 52.4593 58.6244V59.9366C52.4593 60.6613 53.0469 61.2489 53.7715 61.2489C54.4962 61.2489 55.0838 60.6613 55.0838 59.9366V58.7039C57.894 58.1157 59.8041 55.4982 59.5087 52.6425C59.2127 49.7867 56.8067 47.6165 53.9356 47.6159C52.2902 47.6159 50.9561 46.2819 50.9561 44.6365C50.9561 42.991 52.2902 41.657 53.9356 41.657C55.581 41.657 56.915 42.991 56.915 44.6365C56.915 45.3611 57.5026 45.9487 58.2272 45.9487C58.9519 45.9487 59.5395 45.3611 59.5395 44.6365C59.5356 41.9851 57.6781 39.6983 55.0838 39.1511V37.9568C55.0838 37.2321 54.4962 36.6445 53.7715 36.6445C53.0469 36.6445 52.4593 37.2321 52.4593 37.9568V39.2312C49.7516 39.9706 48.0087 42.5995 48.3817 45.3816C48.7546 48.1637 51.1285 50.2403 53.9356 50.2397C55.5592 50.2397 56.8836 51.5398 56.9131 53.1628C56.9432 54.7857 55.6668 56.1339 54.0445 56.1928Z" fill="#FF4600"/>
<path d="M34.9067 49.0286C34.9067 59.538 43.426 68.0573 53.9354 68.0573C64.4448 68.0573 72.964 59.538 72.964 49.0286C72.964 38.5192 64.4448 30 53.9354 30C43.4311 30.0115 34.9189 38.5244 34.9067 49.0286ZM53.9354 32.6245C62.9954 32.6245 70.3395 39.9686 70.3395 49.0286C70.3395 58.0887 62.9954 65.4328 53.9354 65.4328C44.8753 65.4328 37.5312 58.0887 37.5312 49.0286C37.5415 39.9731 44.8798 32.6347 53.9354 32.6245Z" fill="#FF4600"/>
<path d="M55.2475 26.3136V13.8474C55.2475 13.1227 54.66 12.5352 53.9353 12.5352C53.2106 12.5352 52.623 13.1227 52.623 13.8474V26.3136C52.623 27.0383 53.2106 27.6258 53.9353 27.6258C54.66 27.6258 55.2475 27.0383 55.2475 26.3136Z" fill="#FF4600"/>
<path d="M65.0893 26.311V20.406C65.0893 19.6813 64.5017 19.0938 63.7771 19.0938C63.0524 19.0938 62.4648 19.6813 62.4648 20.406V26.311C62.4648 27.0357 63.0524 27.6233 63.7771 27.6233C64.5017 27.6233 65.0893 27.0357 65.0893 26.311Z" fill="#FF4600"/>
<path d="M45.4062 26.311V20.406C45.4062 19.6813 44.8186 19.0938 44.094 19.0938C43.3693 19.0938 42.7817 19.6813 42.7817 20.406V26.311C42.7817 27.0357 43.3693 27.6233 44.094 27.6233C44.8186 27.6233 45.4062 27.0357 45.4062 26.311Z" fill="#FF4600"/>
<path d="M33.8553 26.8101L38.2358 10.4618L38.1845 10.4481C38.3219 9.93563 38.008 9.46704 37.5468 9.34345L31.8582 7.8192C31.3457 7.68188 30.8771 7.99574 30.7535 8.45698L26.3593 24.8564C20.2002 25.2934 18.1424 31.3333 17.9665 32.6045L11.4988 56.7424L11.4851 56.7937L11.4713 56.8449L9.46646 64.3272C8.67001 67.2996 10.4333 70.3537 13.4057 71.1501L21.9129 73.4296C24.8853 74.2261 27.9394 72.4628 28.7358 69.4904L37.2496 37.7164C37.733 36.5277 38.9708 30.268 33.8553 26.8101ZM32.2625 9.79509L36.1574 10.8387L35.512 13.2474L31.6171 12.2038L32.2625 9.79509ZM22.3423 71.6222L13.8351 69.3427C12.5026 68.9857 11.5299 67.9011 11.2033 66.6601L25.9628 70.6149C25.0594 71.5263 23.6747 71.9792 22.3423 71.6222ZM26.9046 68.9448L11.2226 64.7428L12.9941 58.1318L28.676 62.3338L26.9046 68.9448ZM29.1567 60.5401L13.4747 56.3381L18.1985 38.7087L33.8805 42.9106L29.1567 60.5401ZM35.4596 37.0171C35.4459 37.0683 35.4322 37.1196 35.4047 37.2221L34.3473 41.1682L18.6654 36.9662L19.7227 33.0201C19.7364 32.9689 19.7502 32.9176 19.7639 32.8664C19.7776 32.8151 21.2067 26.6616 27.0236 26.6823C27.461 26.6896 27.8134 26.3995 27.9232 25.9896L31.1365 13.9975L35.0314 15.0411L31.8181 27.0332C31.7083 27.4432 31.8684 27.8706 32.2509 28.0829C37.2987 30.9735 35.5246 36.9796 35.4596 37.0171Z" fill="#FF4600"/>
</svg>
