<svg width="24" height="21" viewBox="0 0 24 21" fill="none" xmlns="http://www.w3.org/2000/svg">
<path d="M4.96113 16.0334L4.95457 16.0286L4.94785 16.0241C3.00327 14.7015 2.15215 14.0626 1.63474 13.6741C1.50412 13.5761 1.39477 13.494 1.29446 13.4209L0.5 12.842V13.825V18.8125C0.5 19.7579 1.28487 20.5 2.22222 20.5H12C12.9374 20.5 13.7222 19.7579 13.7222 18.8125V13.825V12.842L12.9278 13.4209C12.8275 13.494 12.7181 13.5761 12.5875 13.6741C12.0701 14.0626 11.219 14.7015 9.27437 16.0241L9.26766 16.0286L9.26109 16.0334C9.19586 16.0809 9.12728 16.1326 9.05517 16.1869C8.82821 16.3578 8.56615 16.5551 8.26263 16.7342C7.86296 16.9699 7.46723 17.125 7.11111 17.125C6.75499 17.125 6.35926 16.9699 5.9596 16.7342C5.65607 16.5551 5.39402 16.3578 5.16706 16.1869C5.09494 16.1326 5.02636 16.0809 4.96113 16.0334ZM0.5 12.2812V12.5356L0.705539 12.6853C0.980237 12.8855 1.16834 13.03 1.38181 13.1939C1.90887 13.5987 2.59063 14.1223 5.11229 15.8964L5.12013 15.9019L5.12818 15.9072C5.19727 15.9519 5.29034 16.0237 5.42555 16.128L5.43068 16.132C5.56008 16.2318 5.71605 16.3517 5.8827 16.465C6.19224 16.6755 6.63998 16.9375 7.11111 16.9375C7.57809 16.9375 8.02695 16.6776 8.32532 16.4892C8.40977 16.4358 8.5141 16.3667 8.60475 16.3066C8.66449 16.267 8.71829 16.2314 8.75652 16.2068C8.81741 16.1677 8.86726 16.1373 8.90862 16.1146C8.92891 16.1035 8.94497 16.0955 8.95733 16.0898C8.9603 16.0885 8.96294 16.0873 8.96525 16.0863C8.96764 16.0853 8.96969 16.0844 8.97139 16.0838C8.97476 16.0824 8.97634 16.0819 8.97628 16.0819L9.04815 16.0587L9.10993 16.0152C11.6316 14.241 12.3133 13.7174 12.8404 13.3127C13.0539 13.1487 13.242 13.0043 13.5167 12.8041L13.7222 12.6543V12.4V11.6875C13.7222 10.7421 12.9374 10 12 10H2.22222C1.28487 10 0.5 10.7421 0.5 11.6875V12.2812ZM7.83333 9.3125V9.8125H8.33333H12C13.0204 9.8125 13.8429 10.5698 13.9358 11.5075L13.9444 11.5946V16.4375V16.9375H14.4444H21.7778C22.7151 16.9375 23.5 16.1954 23.5 15.25V8.125C23.5 7.17965 22.7151 6.4375 21.7778 6.4375H9.55556C8.6182 6.4375 7.83333 7.17965 7.83333 8.125V9.3125ZM18.1111 6.25H18.6111V5.75V2.1875C18.6111 1.24215 17.8262 0.5 16.8889 0.5H4.66667C3.72931 0.5 2.94444 1.24215 2.94444 2.1875V9.3125V9.8125H3.44444H7.11111H7.61111V9.3125V8.125C7.61111 7.10504 8.47013 6.25 9.55556 6.25H18.1111ZM20.0556 11.1875H18.6111V9.8125H20.0556V11.1875Z" fill="white" stroke="#757575"/>
</svg>
