<svg width="22" height="17" viewBox="0 0 22 17" fill="none" xmlns="http://www.w3.org/2000/svg">
<path d="M11 12.1821C9.4 12.1821 7.8 10.8457 7 10.273C3 7.60027 1.8 6.64572 1 6.07299V14.0912C1 15.1454 1.89562 16.0003 3 16.0003H19C20.1044 16.0003 21 15.1454 21 14.0912V6.07299C20.2 6.64572 19 7.60027 15 10.273C14.2 10.8457 12.6 12.1821 11 12.1821ZM19 0.727539H3C1.89562 0.727539 1 1.58245 1 2.63663V3.59118C2.6 4.73663 2.4 4.73663 8.2 8.74572C8.8 9.12754 10 10.273 11 10.273C12 10.273 13.2 9.12754 13.8 8.93663C19.6 4.92754 19.4 4.92754 21 3.78209V2.63663C21 1.58245 20.1044 0.727539 19 0.727539Z" fill="white" stroke="#757575"/>
</svg>
