<svg width="545" height="435" viewBox="0 0 545 435" fill="none" xmlns="http://www.w3.org/2000/svg">
<path d="M96.6191 51.0779C96.6191 51.0779 96.6191 43.0232 85.3444 31.7485C74.0697 20.4738 66.8177 14.0244 66.8177 14.0244C66.8177 14.0244 61.152 32.5511 71.6429 43.8258C82.1339 55.1005 96.6191 65.5442 96.6191 65.5442V51.0779Z" fill="#A2C9FE"/>
<path d="M80.2548 101.389C80.2548 101.389 80.2548 93.3344 68.9234 82.0503C57.5921 70.7661 50.3967 64.3356 50.3967 64.3356C50.3967 64.3356 44.731 82.8623 55.2314 94.137C65.7318 105.412 80.2076 115.855 80.2076 115.855L80.2548 101.389Z" fill="#A2C9FE"/>
<path d="M95.911 64.7605C95.911 64.7605 96.7609 56.753 109.131 46.7247C121.501 36.6965 129.423 31.0591 129.423 31.0591C129.423 31.0591 133.087 50.1241 121.51 60.2279C109.934 70.3317 94.3718 79.2174 94.3718 79.2174L95.911 64.7605Z" fill="#A2C9FE"/>
<path d="M76.1377 124.25C76.1377 124.25 77.828 116.375 91.2462 107.706C104.664 99.0378 113.078 94.2598 113.078 94.2598C113.078 94.2598 114.702 113.561 102.105 122.39C89.5087 131.219 73.1255 138.443 73.1255 138.443L76.1377 124.25Z" fill="#A2C9FE"/>
<path d="M79.8584 188.99C79.8584 188.99 79.8584 180.935 91.1331 169.651C102.408 158.367 109.66 151.936 109.66 151.936C109.66 151.936 115.326 170.463 104.825 181.738C94.3248 193.013 79.8584 203.456 79.8584 203.456V188.99Z" fill="#BFDAFF"/>
<path d="M79.6696 204.797C79.6696 204.797 80.8122 196.827 71.2467 184.023C61.6811 171.219 55.43 163.91 55.43 163.91C55.43 163.91 47.2147 181.455 55.9777 194.127C64.7406 206.799 77.6017 219.207 77.6017 219.207L79.6696 204.797Z" fill="#A2C9FE"/>
<path d="M68.5457 251.652C68.5457 251.652 68.5456 243.598 79.8203 232.323C91.095 221.048 98.3471 214.599 98.3471 214.599C98.3471 214.599 104.013 233.126 93.5219 244.41C83.0309 255.694 68.5457 266.128 68.5457 266.128V251.652Z" fill="#A2C9FE"/>
<path d="M76.0809 294.145C76.0809 294.145 74.0318 286.345 82.0865 272.578C90.1412 258.81 95.5236 250.784 95.5236 250.784C95.5236 250.784 105.675 267.28 98.3565 280.84C91.0383 294.4 79.7069 308.224 79.7069 308.224L76.0809 294.145Z" fill="#BFDAFF"/>
<path d="M97.6392 49.0099C97.0701 57.3983 96.0392 65.7489 94.5514 74.0239C90.0944 97.0549 78.9519 111.918 74.5421 132.749C70.1323 153.579 82.8801 180.359 79.4523 207.073C76.0246 233.787 65.6186 248.621 68.5931 266.487C71.5676 284.353 87.1671 332.587 87.1671 332.587" stroke="#263238" stroke-width="1.20076" stroke-linecap="round" stroke-linejoin="round"/>
<path d="M95.7976 70.1523L107.95 60.8228" stroke="#263238" stroke-width="1.20076" stroke-linecap="round" stroke-linejoin="round"/>
<path d="M96.3641 59.4159L91.2744 50.3697" stroke="#263238" stroke-width="1.20076" stroke-linecap="round" stroke-linejoin="round"/>
<path d="M75.165 131.804C75.165 131.804 85.3444 124.175 95.7975 116.545" stroke="#263238" stroke-width="1.20076" stroke-linecap="round" stroke-linejoin="round"/>
<path d="M80.2548 115.884C80.2548 115.884 71.7562 99.2644 62.1624 88.2447" stroke="#263238" stroke-width="1.20076" stroke-linecap="round" stroke-linejoin="round"/>
<path d="M80.2549 200.444C86.0492 189.741 93.3648 179.935 101.973 171.332" stroke="#263238" stroke-width="1.20076" stroke-linecap="round" stroke-linejoin="round"/>
<path d="M78.3191 211.757C78.3191 211.757 73.2388 199.604 67.2993 190.841C61.3598 182.078 60.4722 180.907 60.4722 180.907" stroke="#263238" stroke-width="1.20076" stroke-linecap="round" stroke-linejoin="round"/>
<path d="M68.5457 266.459C71.1261 260.065 74.1914 253.877 77.7146 247.951C81.2337 242.45 85.2039 237.251 89.5842 232.408" stroke="#263238" stroke-width="1.20076" stroke-linecap="round" stroke-linejoin="round"/>
<path d="M79.7451 308.167C79.7451 308.167 78.5553 298.517 82.7951 290.321C87.0349 282.124 91.8413 271.388 93.8243 267.148" stroke="#263238" stroke-width="1.20076" stroke-linecap="round" stroke-linejoin="round"/>
<path d="M22.7673 158.697C22.7673 158.697 21.8986 153.646 27.7436 145.345C33.5887 137.045 37.4414 132.22 37.4414 132.22C37.4414 132.22 42.9843 143.23 37.6397 151.436C33.6704 157.245 29.2231 162.712 24.3442 167.781L22.7673 158.697Z" fill="#BFDAFF"/>
<path d="M38.4988 188.461C38.4988 188.461 37.6206 183.409 43.4657 175.118C49.3108 166.828 53.1634 162.021 53.1634 162.021C53.1634 162.021 58.7064 173.022 53.3712 181.237C49.4001 187.048 44.9496 192.515 40.0663 197.583L38.4988 188.461Z" fill="#A2C9FE"/>
<path d="M24.7029 167.215C24.7029 167.215 23.2959 162.286 14.4291 157.347C5.56233 152.409 0.000527939 149.746 0.000527939 149.746C0.000527939 149.746 -0.216657 162.021 8.1591 167.13C14.2556 170.645 20.6361 173.642 27.2335 176.091L24.7029 167.215Z" fill="#BFDAFF"/>
<path d="M43.5506 202.333C43.5506 202.333 41.6621 197.611 32.3043 193.598C22.9465 189.585 17.1958 187.536 17.1958 187.536C17.1958 187.536 18.2723 199.811 27.1296 203.985C33.5646 206.835 40.2259 209.144 47.0445 210.888L43.5506 202.333Z" fill="#A2C9FE"/>
<path d="M48.2532 243.352C48.2532 243.352 47.375 238.3 39.0842 232.455C30.7935 226.61 25.5433 223.399 25.5433 223.399C25.5433 223.399 24.0135 235.628 31.8038 241.567C37.4978 245.705 43.5275 249.359 49.8301 252.493L48.2532 243.352Z" fill="#A2C9FE"/>
<path d="M50.0851 253.248C50.0851 253.248 48.5081 248.376 53.1162 239.329C57.7243 230.283 60.8404 224.957 60.8404 224.957C60.8404 224.957 67.9036 235.061 63.7771 243.947C60.6764 250.265 57.0502 256.31 52.9368 262.02L50.0851 253.248Z" fill="#A2C9FE"/>
<path d="M64.24 293.994C64.24 293.994 64.8254 288.904 72.7385 282.587C80.6515 276.27 85.7412 272.729 85.7412 272.729C85.7412 272.729 87.9603 284.853 80.5193 291.227C75.0906 295.678 69.3011 299.671 63.2107 303.163L64.24 293.994Z" fill="#A2C9FE"/>
<path d="M62.1531 281.425C62.1531 281.425 61.275 276.374 52.9748 270.528C44.6745 264.683 39.4338 261.426 39.4338 261.426C39.4338 261.426 37.9135 273.701 45.7038 279.594C51.3952 283.73 57.4217 287.384 63.7206 290.519L62.1531 281.425Z" fill="#A2C9FE"/>
<path d="M62.0398 308.885C62.0398 308.885 62.4741 303.777 55.9303 296.015C49.3864 288.253 45.1277 283.833 45.1277 283.833C45.1277 283.833 40.548 295.231 46.5914 302.946C51.0486 308.383 55.954 313.437 61.256 318.054L62.0398 308.885Z" fill="#A2C9FE"/>
<path d="M21.908 157.508C23.1779 162.706 24.7288 167.831 26.5538 172.862C31.8512 186.818 40.4536 194.929 45.5055 207.488C50.5574 220.047 45.4488 238.244 50.5007 254.627C55.5526 271.01 63.7207 279.178 63.7207 290.708C63.7207 302.237 59.2448 334.192 59.2448 334.192" stroke="#263238" stroke-width="1.20076" stroke-linecap="round" stroke-linejoin="round"/>
<path d="M25.3544 170.567L16.7236 166.034" stroke="#263238" stroke-width="1.20076" stroke-linecap="round" stroke-linejoin="round"/>
<path d="M23.834 163.891L26.0436 157.668" stroke="#263238" stroke-width="1.20076" stroke-linecap="round" stroke-linejoin="round"/>
<path d="M44.986 206.96C44.986 206.96 37.7717 203.277 30.3875 199.632" stroke="#263238" stroke-width="1.20076" stroke-linecap="round" stroke-linejoin="round"/>
<path d="M40.0664 197.555C40.0664 197.555 43.5791 186.223 48.4138 178.253" stroke="#263238" stroke-width="1.20076" stroke-linecap="round" stroke-linejoin="round"/>
<path d="M49.2447 250.585C44.4403 244.513 38.7783 239.173 32.4365 234.731" stroke="#263238" stroke-width="1.20076" stroke-linecap="round" stroke-linejoin="round"/>
<path d="M51.7188 257.46C52.8651 252.568 54.4159 247.779 56.3552 243.144C59.1313 237.007 59.5374 236.204 59.5374 236.204" stroke="#263238" stroke-width="1.20076" stroke-linecap="round" stroke-linejoin="round"/>
<path d="M63.3616 299.433C63.3616 299.433 69.0839 292.417 72.6438 289.792C74.7938 288.211 76.8117 286.458 78.6778 284.551" stroke="#263238" stroke-width="1.20076" stroke-linecap="round" stroke-linejoin="round"/>
<path d="M63.7584 290.708C61.4454 286.965 58.8505 283.404 55.9964 280.056C53.1928 276.976 50.1386 274.133 46.8652 271.558" stroke="#263238" stroke-width="1.20076" stroke-linecap="round" stroke-linejoin="round"/>
<path d="M61.256 318.073C61.256 318.073 60.9538 311.897 57.4128 307.223C53.8717 302.549 49.6791 296.326 47.97 293.88" stroke="#263238" stroke-width="1.20076" stroke-linecap="round" stroke-linejoin="round"/>
<path d="M94.4286 410.877H47.3657C46.3815 410.877 45.4376 410.486 44.7416 409.79C44.0457 409.094 43.6547 408.15 43.6547 407.166L31.9834 329.215H109.811L98.1491 407.166C98.1491 407.654 98.0528 408.137 97.8657 408.588C97.6786 409.039 97.4044 409.448 97.0588 409.793C96.7132 410.138 96.303 410.411 95.8517 410.597C95.4003 410.783 94.9167 410.878 94.4286 410.877Z" fill="#707070" stroke="#263238" stroke-width="1.20076" stroke-linecap="round" stroke-linejoin="round"/>
<path d="M353.512 32.7549L342.288 43.9791L353.512 55.2032L364.736 43.9791L353.512 32.7549Z" stroke="#263238" stroke-width="1.20076" stroke-linecap="round" stroke-linejoin="round"/>
<path d="M238.54 0.999994L232.417 7.12287L238.54 13.2457L244.663 7.12286L238.54 0.999994Z" stroke="#263238" stroke-width="1.20076" stroke-linecap="round" stroke-linejoin="round"/>
<path d="M494.418 57.1495L488.295 63.2723L494.418 69.3952L500.54 63.2723L494.418 57.1495Z" stroke="#263238" stroke-width="1.20076" stroke-linecap="round" stroke-linejoin="round"/>
<path d="M172.095 76.8661C172.097 75.967 171.832 75.0876 171.334 74.3392C170.836 73.5908 170.126 73.0072 169.296 72.6623C168.466 72.3173 167.552 72.2266 166.67 72.4015C165.788 72.5765 164.978 73.0093 164.342 73.645C163.706 74.2808 163.273 75.091 163.098 75.9729C162.923 76.8549 163.014 77.7689 163.359 78.5992C163.704 79.4295 164.288 80.1388 165.036 80.6372C165.784 81.1355 166.664 81.4006 167.563 81.3987C168.765 81.3987 169.918 80.9212 170.768 80.0711C171.618 79.2211 172.095 78.0682 172.095 76.8661V76.8661Z" stroke="#263238" stroke-width="1.20076" stroke-linecap="round" stroke-linejoin="round"/>
<path d="M524.727 322.908C524.729 322.009 524.464 321.13 523.966 320.382C523.468 319.634 522.76 319.05 521.93 318.705C521.1 318.359 520.187 318.268 519.305 318.442C518.423 318.617 517.613 319.048 516.977 319.683C516.341 320.318 515.907 321.127 515.731 322.009C515.555 322.89 515.645 323.804 515.988 324.634C516.332 325.465 516.914 326.175 517.661 326.674C518.408 327.174 519.287 327.44 520.185 327.44C520.781 327.441 521.372 327.325 521.923 327.098C522.474 326.871 522.975 326.537 523.396 326.116C523.818 325.695 524.153 325.195 524.381 324.644C524.61 324.094 524.727 323.504 524.727 322.908V322.908Z" stroke="#263238" stroke-width="1.20076" stroke-linecap="round" stroke-linejoin="round"/>
<path d="M414.737 93.8726C414.737 92.9762 414.472 92.0999 413.974 91.3545C413.476 90.6091 412.768 90.0282 411.939 89.6851C411.111 89.3421 410.2 89.2523 409.321 89.4272C408.441 89.6021 407.634 90.0337 407 90.6676C406.366 91.3015 405.934 92.1091 405.759 92.9884C405.585 93.8676 405.674 94.7789 406.017 95.6072C406.36 96.4354 406.941 97.1433 407.687 97.6413C408.432 98.1393 409.308 98.4052 410.205 98.4052C410.8 98.4052 411.39 98.2879 411.939 98.0601C412.489 97.8324 412.989 97.4985 413.41 97.0776C413.831 96.6567 414.165 96.1571 414.392 95.6072C414.62 95.0572 414.737 94.4678 414.737 93.8726V93.8726Z" stroke="#263238" stroke-width="1.20076" stroke-linecap="round" stroke-linejoin="round"/>
<path d="M59.8491 127.886C59.851 126.987 59.5862 126.108 59.0882 125.36C58.5903 124.611 57.8816 124.028 57.0518 123.683C56.222 123.337 55.3085 123.246 54.4268 123.42C53.5451 123.594 52.735 124.026 52.0988 124.661C51.4626 125.296 51.0291 126.105 50.8531 126.987C50.6771 127.868 50.7665 128.782 51.11 129.612C51.4535 130.443 52.0356 131.153 52.7827 131.652C53.5299 132.152 54.4084 132.418 55.3071 132.418C56.5101 132.418 57.6639 131.941 58.5154 131.091C59.367 130.241 59.8466 129.089 59.8491 127.886V127.886Z" stroke="#263238" stroke-width="1.20076" stroke-linecap="round" stroke-linejoin="round"/>
<path d="M94.6929 112.919H498.155C501.346 112.919 504.406 114.186 506.662 116.442C508.918 118.698 510.185 121.758 510.185 124.949V390.452H82.6722V124.987C82.6672 123.404 82.9744 121.837 83.5762 120.374C84.1779 118.91 85.0624 117.58 86.179 116.459C87.2956 115.338 88.6224 114.448 90.0833 113.841C91.5442 113.233 93.1106 112.92 94.6929 112.919Z" fill="white" stroke="#263238" stroke-width="1.20076" stroke-linecap="round" stroke-linejoin="round"/>
<path d="M444.312 377.09H150.5V391.566H444.312V377.09Z" fill="#263238" stroke="#263238" stroke-width="1.20076" stroke-linecap="round" stroke-linejoin="round"/>
<path d="M444.312 384.069H150.5V391.576H444.312V384.069Z" fill="white" stroke="#263238" stroke-width="1.20076" stroke-linecap="round" stroke-linejoin="round"/>
<path d="M48.1023 400.15C48.1023 400.15 52.9276 406.051 67.4034 410.877H527.409C527.409 410.877 538.136 408.195 542.961 400.688L48.1023 400.15Z" fill="#263238" stroke="#263238" stroke-width="1.20076" stroke-linecap="round" stroke-linejoin="round"/>
<path d="M540.355 389.583H50.7555C48.7425 389.583 47.1106 391.215 47.1106 393.228V397.213C47.1106 399.226 48.7425 400.858 50.7555 400.858H540.355C542.368 400.858 544 399.226 544 397.213V393.228C544 391.215 542.368 389.583 540.355 389.583Z" fill="white" stroke="#263238" stroke-width="1.20076" stroke-linecap="round" stroke-linejoin="round"/>
<path d="M300.083 121.351C300.083 120.604 299.862 119.874 299.446 119.253C299.031 118.632 298.442 118.147 297.751 117.862C297.061 117.576 296.302 117.501 295.569 117.647C294.836 117.792 294.163 118.152 293.635 118.68C293.107 119.209 292.747 119.882 292.601 120.614C292.456 121.347 292.53 122.106 292.816 122.797C293.102 123.487 293.586 124.077 294.207 124.492C294.829 124.907 295.559 125.128 296.306 125.128C297.308 125.128 298.268 124.73 298.977 124.022C299.685 123.314 300.083 122.353 300.083 121.351Z" fill="#263238"/>
<path d="M86.695 191.048C86.412 191.048 86.1406 190.936 85.9405 190.736C85.7403 190.536 85.6279 190.264 85.6279 189.981V158.886C85.6279 158.602 85.74 158.33 85.9399 158.128C86.1397 157.927 86.4111 157.812 86.695 157.81C86.9805 157.81 87.2543 157.923 87.4561 158.125C87.658 158.327 87.7714 158.601 87.7714 158.886V189.981C87.7714 190.122 87.7435 190.262 87.6893 190.392C87.6351 190.522 87.5557 190.64 87.4556 190.739C87.3555 190.839 87.2368 190.917 87.1062 190.97C86.9757 191.023 86.8359 191.05 86.695 191.048Z" fill="#263238" stroke="white" stroke-width="0.830552" stroke-linejoin="round"/>
<path d="M492.83 134.637H100.009V356.628H492.83V134.637Z" fill="#757575" fill-opacity="0.21" stroke="#263238" stroke-width="1.20076" stroke-linejoin="round"/>
<path d="M492.839 134.637H165.297V147.763H492.839V134.637Z" fill="#707070"/>
<path d="M119.102 194.62C123.891 192.636 126.166 187.145 124.182 182.356C122.198 177.567 116.707 175.293 111.918 177.276C107.129 179.26 104.855 184.751 106.839 189.54C108.822 194.329 114.313 196.603 119.102 194.62Z" stroke="#263238" stroke-width="1.20076" stroke-linejoin="round"/>
<path d="M115.505 222.285C120.689 222.285 124.891 218.083 124.891 212.899C124.891 207.715 120.689 203.513 115.505 203.513C110.321 203.513 106.119 207.715 106.119 212.899C106.119 218.083 110.321 222.285 115.505 222.285Z" stroke="#263238" stroke-width="1.20076" stroke-linejoin="round"/>
<path d="M119.096 248.524C123.885 246.54 126.159 241.05 124.176 236.26C122.192 231.471 116.701 229.197 111.912 231.181C107.123 233.164 104.849 238.655 106.832 243.444C108.816 248.233 114.307 250.508 119.096 248.524Z" stroke="#263238" stroke-width="1.20076" stroke-linejoin="round"/>
<path d="M115.505 276.194C120.689 276.194 124.891 271.992 124.891 266.808C124.891 261.624 120.689 257.422 115.505 257.422C110.321 257.422 106.119 261.624 106.119 266.808C106.119 271.992 110.321 276.194 115.505 276.194Z" stroke="#263238" stroke-width="1.20076" stroke-linejoin="round"/>
<path d="M115.505 303.144C120.689 303.144 124.891 298.942 124.891 293.758C124.891 288.574 120.689 284.372 115.505 284.372C110.321 284.372 106.119 288.574 106.119 293.758C106.119 298.942 110.321 303.144 115.505 303.144Z" stroke="#263238" stroke-width="1.20076" stroke-linejoin="round"/>
<path d="M124.775 322.234C125.606 317.117 122.131 312.296 117.014 311.465C111.898 310.635 107.076 314.109 106.246 319.226C105.415 324.343 108.89 329.164 114.007 329.995C119.123 330.826 123.945 327.351 124.775 322.234Z" stroke="#263238" stroke-width="1.20076" stroke-linejoin="round"/>
<path d="M468.92 155.355H146.09V350.991H468.92V155.355Z" stroke="#263238" stroke-width="1.20076" stroke-linejoin="round"/>
<path d="M146.6 272.247H469.308" stroke="#263238" stroke-width="1.20076" stroke-linejoin="round"/>
<path d="M332.698 284.098H442.82" stroke="#263238" stroke-width="1.20076" stroke-linejoin="round"/>
<path d="M332.698 293.852H442.82" stroke="#263238" stroke-width="1.20076" stroke-linejoin="round"/>
<path d="M332.698 303.616H442.82" stroke="#263238" stroke-width="1.20076" stroke-linejoin="round"/>
<path d="M332.698 313.37H442.82" stroke="#263238" stroke-width="1.20076" stroke-linejoin="round"/>
<path d="M332.698 323.125H442.82" stroke="#263238" stroke-width="1.20076" stroke-linejoin="round"/>
<path d="M332.698 332.889H442.82" stroke="#263238" stroke-width="1.20076" stroke-linejoin="round"/>
<path d="M302.397 160.208V161.341" stroke="#263238" stroke-width="1.20076" stroke-linejoin="round"/>
<path d="M302.397 163.579V265.656" stroke="#263238" stroke-width="1.20076" stroke-linejoin="round" stroke-dasharray="2.38 2.38"/>
<path d="M302.397 266.78V267.913" stroke="#263238" stroke-width="1.20076" stroke-linejoin="round"/>
<path d="M307.241 271.048C307.241 270.09 306.957 269.153 306.424 268.357C305.892 267.56 305.136 266.939 304.25 266.572C303.365 266.206 302.391 266.11 301.452 266.297C300.512 266.484 299.649 266.945 298.971 267.623C298.294 268.3 297.832 269.163 297.646 270.103C297.459 271.042 297.555 272.016 297.921 272.902C298.288 273.787 298.909 274.543 299.705 275.076C300.502 275.608 301.439 275.892 302.397 275.892C303.033 275.893 303.664 275.769 304.252 275.526C304.84 275.283 305.375 274.926 305.825 274.476C306.275 274.026 306.632 273.491 306.875 272.903C307.118 272.315 307.242 271.684 307.241 271.048Z" fill="white" stroke="#263238" stroke-width="1.20076" stroke-linejoin="round"/>
<path d="M302.33 267.913V274.409" stroke="#263238" stroke-width="0.60038" stroke-linejoin="round"/>
<path d="M305.579 271.161H299.082" stroke="#263238" stroke-width="0.60038" stroke-linejoin="round"/>
<path d="M260.263 218.348H183.946C183.191 218.349 182.442 218.201 181.744 217.912C181.046 217.624 180.411 217.2 179.877 216.666C179.343 216.132 178.919 215.497 178.631 214.799C178.342 214.101 178.194 213.352 178.196 212.597V212.597C178.194 211.841 178.342 211.093 178.631 210.395C178.919 209.697 179.343 209.062 179.877 208.528C180.411 207.994 181.046 207.57 181.744 207.281C182.442 206.993 183.191 206.845 183.946 206.846H260.263C261.788 206.846 263.251 207.452 264.329 208.531C265.408 209.609 266.014 211.072 266.014 212.597V212.597C266.014 214.122 265.408 215.585 264.329 216.663C263.251 217.742 261.788 218.348 260.263 218.348V218.348Z" stroke="#263238" stroke-width="1.20076" stroke-linejoin="round"/>
<path d="M229.149 282.7H152.804V337.232H229.149V282.7Z" fill="#026BF9" stroke="#263238" stroke-width="1.20076" stroke-linejoin="round"/>
<path d="M152.804 337.232L229.149 282.7" stroke="white" stroke-width="1.20076" stroke-linejoin="round"/>
<path d="M152.804 282.7L229.149 337.232" stroke="white" stroke-width="1.20076" stroke-linejoin="round"/>
<path d="M316.268 282.7H239.923V337.232H316.268V282.7Z" fill="#026BF9" stroke="#263238" stroke-width="1.20076" stroke-linejoin="round"/>
<path d="M239.923 337.232L316.277 282.7" stroke="white" stroke-width="1.20076" stroke-linejoin="round"/>
<path d="M239.923 282.7L316.277 337.232" stroke="white" stroke-width="1.20076" stroke-linejoin="round"/>
<path d="M124.891 239.849H145.533" stroke="#263238" stroke-width="1.20076" stroke-linejoin="round"/>
<path d="M449.544 162.021H309.63V261.964H449.544V162.021Z" fill="#026BF9" stroke="#263238" stroke-width="1.20076" stroke-linejoin="round"/>
<path d="M309.63 261.964L449.544 162.021" stroke="white" stroke-width="1.20076" stroke-linejoin="round"/>
<path d="M309.63 162.021L449.544 261.964" stroke="white" stroke-width="1.20076" stroke-linejoin="round"/>
<path d="M434.671 213.598C435.883 215.3 436.999 217.069 438.014 218.895C438.819 220.347 439.453 221.887 439.902 223.484C439.902 223.484 440.497 222.965 443.68 220.123C446.862 217.281 447.145 214.599 447.145 214.599L444.133 210.18C444.133 210.18 436.569 209.604 434.671 213.598Z" fill="white" stroke="#263238" stroke-width="1.20076" stroke-linecap="round" stroke-linejoin="round"/>
<path d="M431.612 196.96C431.612 196.96 430.583 199.944 429.648 200.066C428.713 200.189 425.946 198.895 426.248 201.218C426.488 202.696 427.252 204.037 428.401 204.995C428.401 204.995 427.759 212.654 428.146 213.787C428.533 214.92 429.091 215.789 431.923 215.42L437.041 214.75C437.666 214.858 438.297 214.931 438.93 214.967C440.12 215.043 440.101 215.175 442.15 212.776C444.199 210.378 445.464 212.446 444.936 208.489C444.407 204.533 443.85 202.002 441.65 199.689C439.449 197.375 431.612 196.96 431.612 196.96Z" fill="white" stroke="#263238" stroke-width="1.20076" stroke-linecap="round" stroke-linejoin="round"/>
<path d="M430.535 201.681C430.28 202.55 430.261 203.305 430.535 203.371C430.809 203.437 431.158 202.795 431.413 201.927C431.668 201.058 431.687 200.293 431.413 200.227C431.14 200.161 430.781 200.822 430.535 201.681Z" fill="#263238"/>
<path d="M455.889 183.919L439.837 171.785C439.837 171.785 437.306 170.652 437.306 168.395C437.164 166.613 437.164 164.823 437.306 163.041C437.58 160.784 437.306 159.651 438.43 159.651C439.553 159.651 439.837 162.191 439.837 162.191L440.686 159.358C440.686 159.358 442.66 158.801 442.943 160.208C443.227 161.615 445.483 162.465 444.917 164.439C444.276 166.138 443.422 167.75 442.377 169.236C442.377 169.236 457.334 175.723 460.148 176.573C462.962 177.422 468.146 179.812 467.58 182.635C467.013 185.458 464.237 193.91 464.237 193.91L455.889 183.919Z" fill="white" stroke="#263238" stroke-width="1.20076" stroke-linecap="round" stroke-linejoin="round"/>
<path d="M440.668 222.295C440.668 222.295 436.74 224.995 432.169 228.376C426.504 232.568 426.409 242.295 426.003 243.277C425.342 244.91 443.888 265.089 446.541 268.489C449.195 271.888 449.676 277.365 449.676 277.365L474.803 271.926C474.803 271.926 462.226 228.017 461.584 224.797C460.941 221.577 459.865 217.384 459.865 217.384C459.865 217.384 461.602 207.46 463.85 199.443C466.097 191.426 467.013 186.299 466.843 184.996C466.673 183.693 459.733 182.947 456.862 182.89C453.992 182.833 454.256 183.23 454.256 183.23C454.256 183.23 448.014 197.725 447.646 198.433C447.278 199.141 440.668 222.295 440.668 222.295Z" fill="#263238" stroke="#263238" stroke-width="1.20076" stroke-linecap="round" stroke-linejoin="round"/>
<path d="M449.676 277.365L448.42 289.933L432.924 330.556L429.572 377.874L435.852 378.299L448.005 332.228L464.331 302.077L471.867 329.716L495.134 375.561L501.083 372.048L486.531 325.108L478.155 276.95L474.803 271.926L449.676 277.365Z" fill="#61A4FF" stroke="#263238" stroke-width="1.20076" stroke-linecap="round" stroke-linejoin="round"/>
<path d="M445.304 213.957C444.369 215.318 443.364 216.629 442.292 217.885C440.941 219.386 439.024 219.858 438.514 221.029C437.573 222.73 436.546 224.382 435.436 225.977C435.436 225.977 441.659 224.806 444.879 222.2C448.099 219.594 449.138 214.363 449.138 214.363C449.138 214.363 446.73 213.107 445.304 213.957Z" fill="white" stroke="#263238" stroke-width="1.20076" stroke-linecap="round" stroke-linejoin="round"/>
<path d="M412.802 265.156C412.802 265.156 388.203 257.375 385.824 256.251C384.746 255.752 383.57 255.5 382.383 255.513C381.195 255.526 380.025 255.804 378.959 256.327C376.749 257.271 374.54 256.544 374.483 257.526C374.426 258.508 375.852 259.074 376.664 258.734C377.696 258.476 378.755 258.343 379.818 258.338L370.375 262.37C370.375 262.37 370.177 264.117 371.433 264.258C372.689 264.4 374.511 265.325 376.372 265.203C378.232 265.08 386.287 260.019 386.287 260.019C390.606 262.132 394.783 264.526 398.789 267.186C404.879 271.303 414.332 275.731 417.467 275.203C420.602 274.674 424.294 269.584 423.831 267.45C421.829 258.385 412.802 265.156 412.802 265.156Z" fill="white" stroke="#263238" stroke-width="1.20076" stroke-linecap="round" stroke-linejoin="round"/>
<path d="M443.699 245.269C443.699 245.269 436.362 254.712 432.368 259.679C428.373 264.646 424.36 273.314 421.036 273.087C417.712 272.861 413.605 266.213 413.813 264.419C414.02 262.625 418.534 258.753 421.178 251.766C423.123 246.582 426.541 237.79 428.166 233.635C428.76 232.115 428.883 230.944 430.177 229.962L432.169 228.376" fill="white"/>
<path d="M443.699 245.269C443.699 245.269 436.362 254.712 432.368 259.679C428.373 264.646 424.36 273.314 421.036 273.087C417.712 272.861 413.605 266.213 413.813 264.419C414.02 262.625 418.534 258.753 421.178 251.766C423.123 246.582 426.541 237.79 428.166 233.635C428.76 232.115 428.883 230.944 430.177 229.962L432.169 228.376" stroke="#263238" stroke-width="1.20076" stroke-linecap="round" stroke-linejoin="round"/>
<path d="M413.813 264.419C413.926 263.399 415.484 261.662 417.278 259.065C417.967 260.283 419.469 263.286 421.48 264.731C423.341 265.932 425.334 266.914 427.42 267.658C424.266 271.52 422.859 273.21 421.036 273.087C417.703 272.87 413.605 266.213 413.813 264.419Z" fill="white" stroke="#263238" stroke-width="1.20076" stroke-linecap="round" stroke-linejoin="round"/>
<path d="M452.169 188.083C453.33 185.392 454.256 183.23 454.256 183.23C454.256 183.23 453.982 182.824 456.862 182.89C459.742 182.956 467.74 183.834 467.91 185.109C468.101 187.7 467.484 190.286 466.144 192.512C463.916 190.69 457.079 187.517 452.169 188.083Z" fill="white" stroke="#263238" stroke-width="1.20076" stroke-linecap="round" stroke-linejoin="round"/>
<path d="M438.335 252.568C441.512 250.36 445.017 248.668 448.722 247.554" stroke="#263238" stroke-width="1.20076" stroke-linecap="round" stroke-linejoin="round"/>
<path d="M437.221 203.57C437.221 203.57 427.004 196.157 430.158 189.585C433.312 183.013 437.995 180.737 442.292 182.777C446.588 184.816 445.229 187.12 445.229 187.12C445.229 187.12 449.95 186.979 451.602 190.548C452.086 191.541 452.286 192.648 452.181 193.748C452.076 194.847 451.67 195.897 451.007 196.78C452.623 199.033 453.477 201.742 453.444 204.514C453.33 209.028 445.427 215.515 443.822 215.968C442.216 216.421 440.989 213.976 440.989 213.976C440.989 213.976 443.283 209.877 442.263 209.301C441.244 208.725 438.694 210.963 438.694 210.963C438.694 210.963 437.419 212.078 437.051 209.283C436.84 207.38 436.897 205.457 437.221 203.57Z" fill="#263238" stroke="#263238" stroke-width="1.20076" stroke-linecap="round" stroke-linejoin="round"/>
<path d="M429.591 377.874C429.591 377.874 424.87 382.482 420.271 383.738C417.927 384.307 415.658 385.15 413.51 386.25L412.462 388.072C412.372 388.228 412.325 388.404 412.325 388.583C412.326 388.763 412.373 388.939 412.463 389.094C412.553 389.249 412.683 389.378 412.838 389.467C412.994 389.556 413.17 389.603 413.35 389.602H436.296C436.629 387.809 436.768 385.986 436.711 384.163C436.773 382.174 436.489 380.19 435.871 378.299L429.591 377.874Z" fill="white" stroke="#263238" stroke-width="1.20076" stroke-linecap="round" stroke-linejoin="round"/>
<path d="M495.134 375.561L494.794 379.064C494.794 379.064 493.349 382.681 491.168 384.135C488.986 385.589 486.342 385.589 486.342 387.034V389.697H495.285C495.285 389.697 497.173 389.933 499.874 387.515C502.574 385.098 503.018 382.926 504.945 381.717C506.871 380.509 506.88 378.818 505.889 376.156C504.897 373.493 501.054 372.048 501.054 372.048L495.134 375.561Z" fill="white" stroke="#263238" stroke-width="1.20076" stroke-linecap="round" stroke-linejoin="round"/>
<g filter="url(#filter0_f)">
<ellipse cx="286" cy="421" rx="255" ry="10" fill="#C4C4C4" fill-opacity="0.4"/>
</g>
<defs>
<filter id="filter0_f" x="27" y="407" width="518" height="28" filterUnits="userSpaceOnUse" color-interpolation-filters="sRGB">
<feFlood flood-opacity="0" result="BackgroundImageFix"/>
<feBlend mode="normal" in="SourceGraphic" in2="BackgroundImageFix" result="shape"/>
<feGaussianBlur stdDeviation="2" result="effect1_foregroundBlur"/>
</filter>
</defs>
</svg>
