<svg width="455" height="409" viewBox="0 0 455 409" fill="none" xmlns="http://www.w3.org/2000/svg">
<path d="M279.66 31.0293H129.381C120.737 31.0293 113.731 38.036 113.731 46.6791V369.731C113.731 378.374 120.737 385.381 129.381 385.381H279.66C288.303 385.381 295.309 378.374 295.309 369.731V46.6791C295.309 38.036 288.303 31.0293 279.66 31.0293Z" fill="#263238"/>
<path opacity="0.2" d="M129.402 31.0293C125.255 31.0236 121.276 32.664 118.337 35.5902C115.399 38.5164 113.742 42.4892 113.731 46.636V369.731C113.73 372.022 114.232 374.285 115.202 376.359C116.173 378.434 117.587 380.27 119.346 381.738L225.327 31.0293H129.402Z" fill="white"/>
<path d="M210.69 375.131C210.69 373.909 210.328 372.715 209.649 371.699C208.97 370.683 208.005 369.891 206.876 369.424C205.746 368.957 204.504 368.835 203.306 369.075C202.107 369.314 201.007 369.903 200.144 370.768C199.281 371.633 198.693 372.734 198.456 373.933C198.219 375.131 198.343 376.373 198.812 377.502C199.281 378.63 200.074 379.594 201.091 380.271C202.108 380.949 203.303 381.309 204.525 381.307C205.336 381.307 206.138 381.147 206.887 380.836C207.636 380.526 208.316 380.071 208.889 379.497C209.461 378.924 209.915 378.243 210.224 377.493C210.533 376.744 210.692 375.941 210.69 375.131V375.131Z" stroke="white" stroke-linecap="round" stroke-linejoin="round"/>
<path d="M279.66 31.0293H129.381C120.737 31.0293 113.731 38.036 113.731 46.6791V369.731C113.731 378.374 120.737 385.381 129.381 385.381H279.66C288.303 385.381 295.309 378.374 295.309 369.731V46.6791C295.309 38.036 288.303 31.0293 279.66 31.0293Z" stroke="#263238" stroke-linecap="round" stroke-linejoin="round"/>
<path d="M287.237 55.0967H121.803V364.353H287.237V55.0967Z" fill="white"/>
<path opacity="0.2" d="M121.857 242.873C143.543 230.737 175.597 217.372 211.574 217.372C238.535 217.29 264.904 225.273 287.29 240.297V84.3594H121.857V242.873Z" fill="black"/>
<path d="M208.244 137.323C208.244 137.323 205.183 131.417 201.464 129.229C197.746 127.041 189.609 130.759 189.609 130.759C189.609 130.759 194.416 125.736 198.35 124.648C202.284 123.559 207.964 128.14 207.964 128.14C207.5 125.099 206.779 122.102 205.808 119.183C204.062 113.719 199.697 107.155 199.697 107.155C199.697 107.155 207.565 111.962 209.311 115.249C210.603 117.927 211.684 120.702 212.544 123.549C212.544 123.549 213.859 117.427 214.948 115.465C216.036 113.503 221.727 111.747 221.727 111.747C221.727 111.747 218.009 116.78 217.567 118.957C217.125 121.134 216.694 125.952 216.694 125.952C218.403 124.616 220.328 123.581 222.385 122.891C225.004 122.244 228.496 125.952 228.496 125.952C226.325 125.738 224.137 126.111 222.158 127.03C219.162 128.55 215.886 140.405 215.886 140.405L209.332 139.748L208.244 137.323Z" fill="#92E3A9"/>
<path d="M208.244 137.323C208.244 137.323 205.183 131.417 201.464 129.229C197.746 127.041 189.609 130.759 189.609 130.759C189.609 130.759 194.416 125.736 198.35 124.648C202.284 123.559 207.964 128.14 207.964 128.14C207.5 125.099 206.779 122.102 205.808 119.183C204.062 113.719 199.697 107.155 199.697 107.155C199.697 107.155 207.565 111.962 209.311 115.249C210.603 117.927 211.684 120.702 212.544 123.549C212.544 123.549 213.859 117.427 214.948 115.465C216.036 113.503 221.727 111.747 221.727 111.747C221.727 111.747 218.009 116.78 217.567 118.957C217.125 121.134 216.694 125.952 216.694 125.952C218.403 124.616 220.328 123.581 222.385 122.891C225.004 122.244 228.496 125.952 228.496 125.952C226.325 125.738 224.137 126.111 222.158 127.03C219.162 128.55 215.886 140.405 215.886 140.405L209.332 139.748L208.244 137.323Z" fill="#A2C9FE"/>
<path d="M208.244 137.323C208.244 137.323 205.183 131.417 201.464 129.229C197.746 127.041 189.609 130.759 189.609 130.759C189.609 130.759 194.416 125.736 198.35 124.648C202.284 123.559 207.964 128.14 207.964 128.14C207.5 125.099 206.779 122.102 205.808 119.183C204.062 113.719 199.697 107.155 199.697 107.155C199.697 107.155 207.565 111.962 209.311 115.249C210.603 117.927 211.684 120.702 212.544 123.549C212.544 123.549 213.859 117.427 214.948 115.465C216.036 113.503 221.727 111.747 221.727 111.747C221.727 111.747 218.009 116.78 217.567 118.957C217.125 121.134 216.694 125.952 216.694 125.952C218.403 124.616 220.328 123.581 222.385 122.891C225.004 122.244 228.496 125.952 228.496 125.952C226.325 125.738 224.137 126.111 222.158 127.03C219.162 128.55 215.886 140.405 215.886 140.405L209.332 139.748L208.244 137.323Z" stroke="#263238" stroke-linecap="round" stroke-linejoin="round"/>
<path d="M208.244 137.323C208.244 137.323 207.166 130.543 204.741 127.051C202.316 123.559 193.596 120.272 193.596 120.272C193.596 120.272 201.464 118.741 206.056 122.018C210.647 125.295 212.825 134.046 212.825 134.046C212.825 134.046 214.14 124.421 218.289 120.035C222.439 115.648 233.152 121.339 233.152 121.339C233.152 121.339 225.068 118.935 222.449 122.869C220.522 126.102 218.981 129.549 217.858 133.141C217.858 133.141 223.096 129.908 225.942 131.395C228.787 132.882 229.876 137.732 229.876 137.732C229.876 137.732 224.411 134.24 221.566 135.113C218.72 135.986 214.139 143.197 214.139 143.197L209.548 141.666L208.244 137.323Z" fill="#61A4FF" stroke="#263238" stroke-linecap="round" stroke-linejoin="round"/>
<path d="M208.082 145.493C206.695 143.27 205.422 140.979 204.267 138.627C202.952 135.792 201.206 134.046 198.802 134.477C196.718 135.064 194.729 135.946 192.896 137.096C192.896 137.096 197.272 131.201 202.952 131.416C208.632 131.632 210.82 138.853 210.82 138.853C210.832 137.102 211.224 135.374 211.968 133.789C212.712 132.204 213.791 130.798 215.131 129.67C219.723 125.952 229.143 128.14 230.22 129.67C230.22 129.67 222.568 129.228 220.164 132.074C218.806 133.603 217.765 135.387 217.103 137.323C217.103 137.323 221.415 134.089 224.756 135.35C228.097 136.611 229.337 148.467 229.337 148.467C229.337 148.467 222.784 139.942 220.822 140.599C218.86 141.257 215.26 146.182 215.26 146.182L208.082 145.493Z" fill="#BFDAFF" stroke="#263238" stroke-linecap="round" stroke-linejoin="round"/>
<path d="M209.764 198.51C205.07 198.51 200.568 196.646 197.249 193.327C193.93 190.008 192.066 185.506 192.066 180.812V168.957C192.066 151.712 199.988 143.38 209.764 143.38C219.55 143.38 227.472 149.287 227.472 168.957V180.812C227.472 183.137 227.014 185.44 226.124 187.588C225.234 189.735 223.929 191.687 222.285 193.33C220.64 194.974 218.688 196.277 216.539 197.166C214.391 198.055 212.089 198.512 209.764 198.51Z" fill="white" stroke="#263238" stroke-linecap="round" stroke-linejoin="round"/>
<path d="M226.038 186.018C225.6 184.272 225.122 182.551 224.605 180.856C225.575 180.252 226.524 179.702 227.472 179.185V177.956C226.394 178.506 225.316 179.11 224.239 179.767C223.743 178.172 223.225 176.534 222.686 175.035C224.234 174.103 225.835 173.265 227.483 172.524V169.506C227.019 168.342 226.534 167.178 226.038 166.025L227.386 165.508C227.386 165.109 227.386 164.732 227.31 164.354C226.739 164.57 226.168 164.775 225.597 165.012C224.878 163.316 224.116 161.656 223.312 160.032C224.389 159.515 225.467 159.052 226.545 158.61C226.47 158.243 226.394 157.888 226.308 157.532C225.155 158.006 224.012 158.502 222.859 159.062C222.104 157.489 221.339 155.98 220.585 154.525C221.889 153.835 223.215 153.167 224.583 152.52L224.098 151.55C222.73 152.197 221.393 152.876 220.089 153.576C219.281 152.035 218.494 150.58 217.75 149.265C218.882 148.726 220.046 148.187 221.231 147.713C220.951 147.433 220.66 147.163 220.358 146.915C219.281 147.368 218.203 147.832 217.222 148.317C216.414 146.872 215.659 145.557 214.991 144.415L215.39 144.264C214.724 144.067 214.047 143.908 213.363 143.79L213.439 143.898C212.049 144.49 210.723 145.126 209.44 145.816C208.977 144.986 208.546 144.253 208.158 143.585C207.77 143.585 207.392 143.693 207.004 143.757C207.457 144.512 207.953 145.363 208.492 146.323C206.843 147.239 205.258 148.22 203.814 149.243C203.124 147.853 202.499 146.635 201.96 145.6C201.648 145.784 201.346 145.978 201.044 146.182C201.583 147.26 202.219 148.467 202.93 149.879C201.367 150.957 199.912 152.175 198.544 153.371C197.94 152.229 197.39 151.216 196.905 150.354C196.679 150.688 196.453 151.011 196.237 151.356C196.679 152.164 197.175 153.08 197.714 154.104C196.215 155.462 194.825 156.853 193.553 158.222C193.553 158.146 193.478 158.071 193.445 157.985C193.208 158.836 193.014 159.731 192.831 160.657L193.262 160.151C193.823 161.38 194.48 162.792 195.181 164.365C194.103 165.443 193.079 166.618 192.141 167.696C192.141 168.159 192.141 168.59 192.141 169.064V169.388C193.212 168.109 194.398 166.783 195.698 165.411C196.302 166.769 196.927 168.213 197.584 169.722C196.183 171.015 194.911 172.244 193.769 173.376C193.187 171.931 192.637 170.616 192.141 169.474V172.244L192.95 174.216C192.659 174.507 192.411 174.777 192.141 175.057V176.62L193.381 175.305C193.898 176.588 194.459 177.956 194.954 179.379C193.963 180.306 193.047 181.19 192.195 182.02C192.195 182.483 192.281 182.936 192.346 183.389C193.251 182.494 194.265 181.513 195.364 180.478C196.065 182.397 196.765 184.412 197.433 186.471C196.356 187.624 195.386 188.713 194.523 189.704C194.717 190.049 194.911 190.383 195.127 190.707C195.924 189.791 196.83 188.788 197.832 187.711C198.382 189.5 198.91 191.3 199.384 193.1L198.306 194.242C198.587 194.479 198.867 194.716 199.158 194.932L199.751 194.339L200.042 195.589C200.451 195.859 200.882 196.117 201.324 196.365C201.109 195.395 200.882 194.425 200.634 193.444C201.949 192.119 203.458 190.653 205.097 189.133C205.603 190.696 206.077 192.237 206.498 193.735C205.172 194.943 203.933 196.085 202.833 197.131C203.2 197.292 203.588 197.432 203.911 197.562C204.795 196.732 205.754 195.848 206.778 194.921C207.112 196.139 207.392 197.314 207.64 198.446C208.017 198.446 208.384 198.521 208.718 198.543C208.416 197.12 208.071 195.643 207.64 194.113C209.235 192.69 210.949 191.192 212.749 189.704C213.31 191.612 213.827 193.531 214.269 195.428C212.954 196.505 211.725 197.583 210.604 198.564C211.232 198.533 211.858 198.468 212.48 198.37L214.538 196.624C214.624 197.044 214.7 197.454 214.786 197.874L215.864 197.529C215.745 196.969 215.638 196.452 215.508 195.848C216.888 194.695 218.321 193.498 219.82 192.324C220.057 193.229 220.283 194.123 220.499 195.029C220.811 194.792 221.124 194.544 221.425 194.285C221.199 193.391 220.973 192.496 220.736 191.591C222.331 190.308 223.969 189.069 225.478 187.926C225.543 188.217 225.607 188.53 225.683 188.821C226.203 187.786 226.622 186.703 226.933 185.587L226.038 186.018ZM223.333 180.36C221.663 181.438 219.981 182.591 218.321 183.809C217.804 182.235 217.244 180.662 216.705 179.11C218.386 177.859 220.089 176.674 221.781 175.617C222.32 177.17 222.837 178.754 223.333 180.36ZM211.477 165.766C210.82 164.247 210.173 162.759 209.537 161.326C211.132 160.248 212.771 159.084 214.549 157.995C215.224 159.432 215.907 160.916 216.597 162.447C214.851 163.503 213.137 164.613 211.466 165.766H211.477ZM217.028 163.438C217.703 164.997 218.379 166.614 219.054 168.288C217.297 169.366 215.573 170.444 213.902 171.662C213.245 169.991 212.566 168.364 211.898 166.779C213.568 165.615 215.282 164.494 217.017 163.438H217.028ZM210.561 166.402C209.138 167.415 207.737 168.45 206.39 169.496C205.733 168.008 205.075 166.564 204.428 165.184C205.754 164.106 207.166 163.029 208.632 161.951C209.268 163.406 209.914 164.882 210.561 166.402ZM209.074 160.334C208.33 158.664 207.597 157.101 206.918 155.592C208.449 154.514 210.076 153.436 211.79 152.358C212.534 153.792 213.299 155.333 214.086 156.961C212.34 158.089 210.669 159.213 209.074 160.334ZM208.19 160.97C206.713 162.048 205.291 163.126 203.954 164.203C203.2 162.598 202.456 161.056 201.799 159.623C203.135 158.487 204.554 157.367 206.056 156.26C206.713 157.726 207.435 159.31 208.19 160.97ZM205.506 170.175C203.803 171.522 202.154 172.869 200.602 174.195C200.009 172.74 199.406 171.306 198.813 169.937C200.268 168.622 201.852 167.254 203.566 165.863C204.213 167.254 204.849 168.698 205.506 170.175ZM205.948 171.188C206.667 172.826 207.364 174.5 208.039 176.21C206.315 177.655 204.676 179.142 203.135 180.597C202.456 178.786 201.745 176.997 201.033 175.208C202.585 173.915 204.234 172.546 205.927 171.188H205.948ZM206.821 170.509C208.179 169.431 209.57 168.428 210.992 167.415C211.66 169 212.329 170.649 212.986 172.309C211.585 173.386 210.227 174.4 208.912 175.542C208.222 173.818 207.532 172.125 206.821 170.509ZM213.417 173.408C214.1 175.14 214.765 176.904 215.411 178.7C214.032 179.778 212.674 180.856 211.348 181.933C210.708 180.13 210.044 178.359 209.354 176.62C210.669 175.52 212.027 174.443 213.471 173.408H213.417ZM214.323 172.751C215.993 171.543 217.718 170.39 219.475 169.345C220.143 171.037 220.79 172.783 221.415 174.561C219.712 175.639 218.009 176.782 216.317 178.032C215.67 176.243 215.005 174.479 214.323 172.74V172.751ZM227.127 171.5C225.49 172.232 223.899 173.064 222.363 173.99C221.731 172.222 221.081 170.491 220.412 168.795C221.932 167.922 223.484 167.124 225.047 166.413C225.769 168.094 226.47 169.797 227.127 171.5ZM224.605 165.411C223.028 166.11 221.488 166.891 219.992 167.749C219.309 166.075 218.627 164.451 217.944 162.878C219.381 162.016 220.843 161.214 222.331 160.474C223.096 162.08 223.861 163.729 224.605 165.411ZM221.867 159.504C220.43 160.223 218.993 161.017 217.556 161.886C216.838 160.334 216.151 158.843 215.498 157.413C216.834 156.594 218.224 155.786 219.647 155.01C220.366 156.454 221.106 157.952 221.867 159.504ZM219.108 154.051C217.696 154.827 216.317 155.624 214.991 156.443C214.204 154.816 213.428 153.285 212.695 151.852C213.989 151.097 215.347 150.375 216.748 149.696C217.502 151.033 218.289 152.509 219.108 154.051ZM213.956 144.781C214.635 145.935 215.4 147.26 216.22 148.737C214.84 149.427 213.493 150.149 212.199 150.893C211.391 149.362 210.626 147.961 209.925 146.7C211.219 146.01 212.566 145.363 213.956 144.781ZM208.977 147.206C209.688 148.478 210.464 149.901 211.272 151.453C209.58 152.466 207.964 153.522 206.422 154.6C205.668 153.005 204.935 151.507 204.267 150.16C205.754 149.125 207.328 148.133 208.977 147.206ZM203.372 150.796C204.051 152.143 204.773 153.641 205.528 155.247C204.019 156.346 202.582 157.467 201.217 158.61C200.433 157.036 199.693 155.599 198.996 154.298C200.387 153.091 201.831 151.916 203.372 150.796ZM194.071 159.224C195.342 157.787 196.736 156.389 198.253 155.031C198.942 156.325 199.675 157.769 200.408 159.343C198.813 160.722 197.336 162.113 195.968 163.481C195.245 161.865 194.588 160.442 194.071 159.224ZM196.496 164.516C197.865 163.126 199.352 161.714 200.958 160.313C201.676 161.75 202.395 163.266 203.113 164.861C201.421 166.241 199.88 167.588 198.393 168.892C197.703 167.351 197.056 165.885 196.442 164.516H196.496ZM194.189 174.421C195.321 173.279 196.593 172.028 198.015 170.724C198.597 172.093 199.19 173.505 199.783 174.96C198.36 176.189 197.024 177.396 195.784 178.538C195.148 177.051 194.653 175.714 194.135 174.421H194.189ZM196.194 179.627C197.433 178.474 198.77 177.256 200.203 176.005C200.922 177.78 201.64 179.577 202.359 181.395C200.893 182.806 199.535 184.197 198.285 185.501C197.53 183.518 196.841 181.524 196.14 179.627H196.194ZM200.182 192.14C199.697 190.34 199.169 188.53 198.597 186.751C199.848 185.426 201.227 184.024 202.704 182.58C203.361 184.359 203.997 186.126 204.59 187.883C202.984 189.392 201.508 190.836 200.182 192.14ZM203.577 181.75C205.107 180.284 206.81 178.786 208.481 177.32C209.199 179.066 209.864 180.841 210.475 182.645C208.729 184.121 207.047 185.609 205.474 187.053C204.849 185.307 204.234 183.518 203.577 181.761V181.75ZM207.295 192.83C206.853 191.321 206.368 189.78 205.862 188.217C207.435 186.751 209.095 185.253 210.863 183.766C211.402 185.318 211.941 186.881 212.383 188.443C210.593 189.985 208.88 191.418 207.295 192.841V192.83ZM211.747 183.022C213.072 181.944 214.43 180.866 215.81 179.789C216.36 181.341 216.888 182.914 217.405 184.488C216.004 185.566 214.624 186.643 213.288 187.721C212.803 186.148 212.286 184.596 211.747 183.033V183.022ZM215.163 194.565C214.711 192.668 214.193 190.761 213.633 188.864C214.98 187.786 216.36 186.654 217.761 185.63C218.343 187.463 218.893 189.295 219.41 191.127C217.966 192.259 216.532 193.434 215.163 194.576V194.565ZM220.315 190.362C219.809 188.54 219.237 186.73 218.677 184.908C220.337 183.68 222.007 182.505 223.667 181.438C224.174 183.162 224.659 184.919 225.101 186.687C223.549 187.829 221.932 189.09 220.315 190.373V190.362Z" fill="#263238"/>
<path d="M227.418 175.564C227.418 179.128 226.002 182.547 223.482 185.067C220.961 187.588 217.542 189.004 213.978 189.004C210.413 189.004 206.995 187.588 204.474 185.067C201.954 182.547 200.538 179.128 200.538 175.564C200.538 168.137 206.121 163.374 214.021 163.708C222.223 164.117 227.418 168.137 227.418 175.564Z" fill="white" stroke="#263238" stroke-linecap="round" stroke-linejoin="round"/>
<path d="M192.508 150.494L189.274 143.143C188.152 140.555 187.495 137.789 187.334 134.973L186.968 123.01H179.423L179.089 135.016C178.928 137.833 178.271 140.598 177.149 143.186L173.916 150.537C172.604 153.561 171.929 156.822 171.933 160.119V187.064C171.933 187.797 172.223 188.499 172.74 189.019C173.257 189.538 173.959 189.831 174.692 189.834H191.689C192.423 189.834 193.128 189.542 193.647 189.022C194.167 188.503 194.459 187.798 194.459 187.064V160.119C194.478 156.81 193.814 153.534 192.508 150.494Z" fill="white" stroke="#263238" stroke-linecap="round" stroke-linejoin="round"/>
<path d="M179.456 123.01L179.445 126.825H187.043L187.011 123.01H185.75H180.717H179.456Z" fill="#BFDAFF" stroke="#263238" stroke-linecap="round" stroke-linejoin="round"/>
<path d="M182.484 152.348C182.484 152.348 175.802 146.236 173.7 145.665C171.598 145.094 165.875 144.9 158.427 145.094C150.98 145.288 151.562 146.236 154.612 147.379C157.662 148.521 161.866 147.196 161.866 147.196C161.866 147.196 157.285 147.002 150.991 151.96C144.696 156.917 143.155 159.795 144.308 159.978C145.461 160.162 150.775 155.969 152.133 155.021C152.894 154.463 153.728 154.014 154.612 153.684C154.612 153.684 149.837 159.224 147.736 163.988C145.634 168.752 141.441 176.588 143.92 178.118C146.399 179.649 150.031 168.763 150.031 168.763C150.031 168.763 148.318 178.118 148.501 182.699C148.684 187.279 151.368 194.921 152.327 190.718C153.286 186.514 155 167.62 155 167.006C155 166.391 156.714 171.015 157.662 168.148C158.611 165.281 158.05 154.212 158.621 153.835C159.193 153.458 160.529 156.12 162.06 154.783C163.59 153.447 169.507 148.489 169.507 148.489C169.507 148.489 166.069 152.498 168.548 152.498C171.027 152.498 173.7 149.06 174.465 148.672C175.231 148.284 182.484 152.348 182.484 152.348Z" fill="#A2C9FE" stroke="#263238" stroke-linecap="round" stroke-linejoin="round"/>
<path d="M198.382 178.312C198.382 178.312 195.526 168.191 193.607 161.703C191.689 155.215 188.455 151.582 186.354 150.817C184.252 150.052 177.095 151.604 176.427 156.357C175.759 161.11 178.151 165.896 179.865 169.151C181.855 172.676 183.654 176.307 185.254 180.026C186.591 183.464 187.55 184.994 188.304 188.433C189.059 191.871 192.702 197.971 194.232 200.073C195.763 202.175 196.517 204.654 198.048 205.462C199.578 206.27 200.333 203.932 200.721 200.881C200.961 197.193 200.896 193.49 200.527 189.812C200.236 188.433 198.382 178.312 198.382 178.312Z" fill="white" stroke="#263238" stroke-linecap="round" stroke-linejoin="round"/>
<path d="M189.953 166.273C190.992 167.701 191.738 169.32 192.151 171.037C192.564 172.753 192.634 174.534 192.358 176.278C192.083 178.022 191.466 179.695 190.544 181.201C189.622 182.706 188.412 184.016 186.984 185.054C185.556 186.092 183.937 186.839 182.221 187.251C180.504 187.664 178.723 187.735 176.979 187.459C175.235 187.183 173.562 186.567 172.056 185.644C170.551 184.722 169.241 183.513 168.203 182.084C163.892 176.07 165.563 168.935 172.18 164.592C179.035 160.086 185.599 160.28 189.953 166.273Z" fill="white" stroke="#263238" stroke-linecap="round" stroke-linejoin="round"/>
<path d="M174.562 164.979L172.547 159.601L174.282 159.052L175.791 165.033L174.562 164.979Z" fill="white" stroke="#263238" stroke-linecap="round" stroke-linejoin="round"/>
<path d="M169.939 171.285C170.039 171.423 170.097 171.588 170.104 171.758C170.111 171.929 170.066 172.098 169.977 172.244C169.888 172.39 169.757 172.506 169.601 172.577C169.446 172.648 169.273 172.672 169.104 172.644C168.935 172.617 168.779 172.54 168.654 172.423C168.529 172.306 168.441 172.155 168.402 171.989C168.364 171.822 168.375 171.648 168.436 171.488C168.496 171.328 168.603 171.19 168.742 171.091C168.833 171.024 168.937 170.976 169.046 170.95C169.156 170.924 169.27 170.919 169.381 170.937C169.492 170.956 169.599 170.996 169.694 171.055C169.79 171.115 169.873 171.193 169.939 171.285V171.285Z" stroke="#263238" stroke-width="0.5" stroke-linecap="round" stroke-linejoin="round"/>
<path d="M173.754 170.519C173.821 170.611 173.868 170.714 173.895 170.823C173.921 170.933 173.925 171.047 173.907 171.158C173.889 171.27 173.849 171.376 173.79 171.472C173.73 171.568 173.652 171.651 173.56 171.716C173.422 171.817 173.257 171.874 173.086 171.881C172.915 171.888 172.746 171.844 172.601 171.754C172.455 171.665 172.339 171.534 172.268 171.379C172.197 171.223 172.173 171.05 172.2 170.881C172.228 170.713 172.305 170.556 172.421 170.431C172.538 170.306 172.689 170.219 172.856 170.18C173.022 170.141 173.197 170.153 173.357 170.213C173.517 170.274 173.655 170.38 173.754 170.519V170.519Z" stroke="#263238" stroke-width="0.5" stroke-linecap="round" stroke-linejoin="round"/>
<path d="M175.338 173.203C175.371 173.249 175.394 173.3 175.407 173.354C175.42 173.408 175.422 173.465 175.413 173.52C175.404 173.575 175.384 173.627 175.354 173.675C175.325 173.722 175.287 173.763 175.241 173.796C175.196 173.829 175.145 173.852 175.091 173.865C175.036 173.877 174.98 173.879 174.925 173.87C174.87 173.861 174.817 173.842 174.77 173.812C174.722 173.783 174.681 173.744 174.649 173.699C174.583 173.608 174.556 173.494 174.574 173.383C174.592 173.271 174.654 173.172 174.746 173.106C174.837 173.04 174.951 173.014 175.062 173.032C175.173 173.05 175.273 173.112 175.338 173.203V173.203Z" stroke="#263238" stroke-width="0.5" stroke-linecap="round" stroke-linejoin="round"/>
<path d="M171.879 174.119C171.979 174.257 172.037 174.422 172.044 174.593C172.051 174.764 172.007 174.933 171.917 175.079C171.828 175.224 171.697 175.34 171.541 175.412C171.386 175.483 171.213 175.506 171.044 175.479C170.875 175.452 170.719 175.375 170.594 175.258C170.469 175.141 170.381 174.99 170.342 174.823C170.304 174.657 170.315 174.483 170.376 174.323C170.436 174.163 170.543 174.024 170.682 173.925C170.773 173.859 170.877 173.811 170.986 173.785C171.096 173.758 171.21 173.754 171.321 173.772C171.432 173.79 171.539 173.83 171.635 173.89C171.73 173.949 171.813 174.027 171.879 174.119V174.119Z" stroke="#263238" stroke-width="0.5" stroke-linecap="round" stroke-linejoin="round"/>
<path d="M211.919 177.913C211.919 181.478 210.503 184.896 207.983 187.417C205.462 189.937 202.044 191.353 198.479 191.353C194.914 191.353 191.496 189.937 188.975 187.417C186.455 184.896 185.039 181.478 185.039 177.913C185.039 170.487 190.622 165.723 198.522 166.057C206.735 166.478 211.919 170.487 211.919 177.913Z" fill="white" stroke="#263238" stroke-linecap="round" stroke-linejoin="round"/>
<path d="M200.236 167.814L201.766 162.274L203.48 162.845L201.195 168.569L200.236 167.814Z" fill="white" stroke="#263238" stroke-linecap="round" stroke-linejoin="round"/>
<path d="M192.799 170.196C192.799 170.367 192.748 170.533 192.654 170.675C192.559 170.817 192.424 170.927 192.267 170.993C192.109 171.058 191.936 171.075 191.768 171.042C191.601 171.008 191.447 170.926 191.327 170.806C191.206 170.685 191.124 170.531 191.091 170.364C191.058 170.197 191.075 170.024 191.14 169.866C191.205 169.708 191.316 169.574 191.458 169.479C191.599 169.384 191.766 169.334 191.937 169.334C192.165 169.334 192.385 169.425 192.546 169.586C192.708 169.748 192.799 169.967 192.799 170.196V170.196Z" stroke="#263238" stroke-width="0.5" stroke-linecap="round" stroke-linejoin="round"/>
<path d="M196.323 171.824C196.3 172.034 196.199 172.229 196.041 172.37C195.883 172.512 195.679 172.59 195.466 172.59C195.254 172.59 195.05 172.512 194.892 172.37C194.734 172.229 194.633 172.034 194.61 171.824C194.596 171.703 194.608 171.581 194.645 171.465C194.682 171.35 194.743 171.243 194.824 171.153C194.905 171.062 195.004 170.99 195.114 170.94C195.225 170.891 195.345 170.865 195.466 170.865C195.588 170.865 195.708 170.891 195.819 170.94C195.929 170.99 196.028 171.062 196.109 171.153C196.19 171.243 196.251 171.35 196.288 171.465C196.325 171.581 196.337 171.703 196.323 171.824V171.824Z" stroke="#263238" stroke-width="0.5" stroke-linecap="round" stroke-linejoin="round"/>
<path d="M196.043 174.895C196.043 175.01 195.998 175.119 195.917 175.2C195.836 175.281 195.726 175.326 195.612 175.326C195.498 175.326 195.388 175.281 195.307 175.2C195.226 175.119 195.181 175.01 195.181 174.895C195.181 174.781 195.226 174.671 195.307 174.59C195.388 174.51 195.498 174.464 195.612 174.464C195.726 174.464 195.836 174.51 195.917 174.59C195.998 174.671 196.043 174.781 196.043 174.895V174.895Z" stroke="#263238" stroke-width="0.5" stroke-linecap="round" stroke-linejoin="round"/>
<path d="M192.702 173.634C192.702 173.805 192.651 173.972 192.557 174.114C192.462 174.255 192.327 174.366 192.17 174.431C192.012 174.496 191.839 174.513 191.671 174.48C191.504 174.447 191.351 174.365 191.23 174.244C191.109 174.124 191.027 173.97 190.994 173.803C190.961 173.635 190.978 173.462 191.043 173.304C191.108 173.147 191.219 173.012 191.361 172.918C191.502 172.823 191.669 172.772 191.84 172.772C192.068 172.772 192.288 172.863 192.449 173.025C192.611 173.186 192.702 173.406 192.702 173.634V173.634Z" stroke="#263238" stroke-width="0.5" stroke-linecap="round" stroke-linejoin="round"/>
<path d="M247.358 180.715C247.358 184.28 245.942 187.699 243.421 190.219C240.901 192.74 237.482 194.156 233.917 194.156C230.353 194.156 226.934 192.74 224.414 190.219C221.893 187.699 220.477 184.28 220.477 180.715C220.477 173.289 226.049 168.525 233.95 168.86C242.163 169.28 247.358 173.289 247.358 180.715Z" fill="white" stroke="#263238" stroke-linecap="round" stroke-linejoin="round"/>
<path d="M235.674 170.616L237.194 165.076L238.918 165.648L236.623 171.371L235.674 170.616Z" stroke="#263238" stroke-linecap="round" stroke-linejoin="round"/>
<path d="M228.226 172.998C228.226 173.227 228.136 173.446 227.974 173.608C227.812 173.77 227.593 173.861 227.364 173.861C227.136 173.861 226.916 173.77 226.754 173.608C226.593 173.446 226.502 173.227 226.502 172.998C226.502 172.77 226.593 172.55 226.754 172.389C226.916 172.227 227.136 172.136 227.364 172.136C227.593 172.136 227.812 172.227 227.974 172.389C228.136 172.55 228.226 172.77 228.226 172.998V172.998Z" stroke="#263238" stroke-width="0.5" stroke-linecap="round" stroke-linejoin="round"/>
<path d="M231.794 174.615C231.794 174.844 231.703 175.063 231.542 175.225C231.38 175.387 231.161 175.477 230.932 175.477C230.703 175.477 230.484 175.387 230.322 175.225C230.16 175.063 230.07 174.844 230.07 174.615C230.07 174.386 230.16 174.167 230.322 174.005C230.484 173.844 230.703 173.753 230.932 173.753C231.161 173.753 231.38 173.844 231.542 174.005C231.703 174.167 231.794 174.386 231.794 174.615Z" stroke="#263238" stroke-width="0.5" stroke-linecap="round" stroke-linejoin="round"/>
<path d="M231.471 177.719C231.471 177.804 231.445 177.888 231.398 177.959C231.351 178.03 231.283 178.085 231.205 178.118C231.126 178.15 231.039 178.159 230.955 178.142C230.872 178.125 230.795 178.084 230.735 178.024C230.674 177.964 230.633 177.887 230.617 177.803C230.6 177.72 230.609 177.633 230.641 177.554C230.674 177.475 230.729 177.408 230.8 177.361C230.871 177.313 230.954 177.288 231.04 177.288C231.154 177.288 231.264 177.334 231.344 177.414C231.425 177.495 231.471 177.605 231.471 177.719V177.719Z" stroke="#263238" stroke-width="0.5" stroke-linecap="round" stroke-linejoin="round"/>
<path d="M228.129 176.437C228.129 176.549 228.107 176.661 228.064 176.765C228.02 176.869 227.956 176.963 227.876 177.043C227.796 177.122 227.701 177.184 227.596 177.226C227.492 177.269 227.38 177.29 227.267 177.288C227.041 177.288 226.825 177.198 226.665 177.039C226.505 176.879 226.416 176.663 226.416 176.437C226.414 176.324 226.435 176.212 226.477 176.108C226.52 176.003 226.582 175.908 226.661 175.828C226.74 175.747 226.835 175.684 226.939 175.64C227.043 175.597 227.154 175.574 227.267 175.574C227.496 175.574 227.715 175.665 227.877 175.827C228.039 175.989 228.129 176.208 228.129 176.437V176.437Z" stroke="#263238" stroke-width="0.5" stroke-linecap="round" stroke-linejoin="round"/>
<path d="M208.643 185.124C208.643 185.124 231.277 133.001 245.03 125.133C258.782 117.265 251.593 142.507 246.021 159.881C240.449 177.256 227.698 204.136 216.187 214.957C204.676 225.779 195.86 219.215 208.643 185.124Z" fill="white" stroke="#263238" stroke-linecap="round" stroke-linejoin="round"/>
<path d="M235.2 139.231L247.961 144.48C247.961 144.48 242.087 135.297 235.2 139.231Z" stroke="#263238" stroke-linecap="round" stroke-linejoin="round"/>
<path d="M229.293 150.106L242.087 155.344C242.087 155.344 236.181 146.118 229.293 150.106Z" stroke="#263238" stroke-linecap="round" stroke-linejoin="round"/>
<path d="M222.74 162.501L235.523 167.749C235.523 167.749 229.638 158.567 222.74 162.501Z" stroke="#263238" stroke-linecap="round" stroke-linejoin="round"/>
<path d="M216.511 177.59L229.293 182.828C229.293 182.828 223.398 173.656 216.511 177.59Z" stroke="#263238" stroke-linecap="round" stroke-linejoin="round"/>
<path d="M209.624 190.697L222.417 195.945C222.417 195.945 216.511 186.752 209.624 190.697Z" stroke="#263238" stroke-linecap="round" stroke-linejoin="round"/>
<path d="M205.032 202.833L217.783 208.071C217.783 208.071 211.919 198.899 205.032 202.833Z" stroke="#263238" stroke-linecap="round" stroke-linejoin="round"/>
<path d="M164.054 173.656L225.694 187.096L247.961 178.236C247.961 178.236 252.272 215.96 255.172 230.036C258.071 244.112 257.144 253.317 253.868 257.908C250.591 262.5 234.198 268.686 228 270.357C221.803 272.027 204.719 271.014 196.528 267.414C188.337 263.815 169.971 256.917 164.064 252.983C161.961 251.681 160.243 249.84 159.091 247.651C157.939 245.462 157.393 243.005 157.511 240.534C157.846 237.904 163.741 190.038 164.064 185.458C164.388 180.877 164.054 173.656 164.054 173.656Z" fill="#BFDAFF" stroke="#263238" stroke-linecap="round" stroke-linejoin="round"/>
<path d="M227.483 206.152C227.731 213.632 227.979 222.772 227.979 229.358C227.979 242.475 232.56 258.534 229.617 264.44" stroke="#263238" stroke-linecap="round" stroke-linejoin="round"/>
<path d="M226.998 192.992C226.998 192.992 227.127 195.892 227.278 200.224" stroke="#263238" stroke-linecap="round" stroke-linejoin="round"/>
<path d="M244.017 286.945H165.024C163.125 286.945 161.586 288.484 161.586 290.383V314.882C161.586 316.781 163.125 318.32 165.024 318.32H244.017C245.915 318.32 247.455 316.781 247.455 314.882V290.383C247.455 288.484 245.915 286.945 244.017 286.945Z" fill="#263238"/>
<path d="M171.329 304.642C170.712 303.797 170.38 302.778 170.38 301.732C170.38 300.686 170.712 299.667 171.329 298.822C172.086 298.163 173.057 297.799 174.061 297.799C175.066 297.799 176.036 298.163 176.793 298.822C177.404 299.67 177.732 300.688 177.732 301.732C177.732 302.777 177.404 303.795 176.793 304.642C176.036 305.302 175.066 305.665 174.061 305.665C173.057 305.665 172.086 305.302 171.329 304.642ZM175.522 303.759C175.827 303.129 175.985 302.438 175.985 301.738C175.985 301.038 175.827 300.347 175.522 299.717C175.341 299.507 175.116 299.339 174.864 299.223C174.612 299.108 174.338 299.048 174.061 299.048C173.784 299.048 173.51 299.108 173.258 299.223C173.006 299.339 172.782 299.507 172.601 299.717C172.296 300.347 172.137 301.038 172.137 301.738C172.137 302.438 172.296 303.129 172.601 303.759C172.782 303.968 173.006 304.137 173.258 304.252C173.51 304.368 173.784 304.427 174.061 304.427C174.338 304.427 174.612 304.368 174.864 304.252C175.116 304.137 175.341 303.968 175.522 303.759Z" fill="white"/>
<path d="M179.348 305.311C179.265 305.226 179.201 305.124 179.16 305.013C179.119 304.901 179.102 304.782 179.111 304.664V298.844C179.104 298.726 179.124 298.608 179.171 298.499C179.218 298.391 179.29 298.295 179.38 298.219C179.574 298.068 179.814 297.988 180.059 297.992H182.269C182.552 297.975 182.837 297.975 183.12 297.992C183.381 298.027 183.638 298.088 183.886 298.176C184.113 298.247 184.325 298.36 184.511 298.51C184.69 298.659 184.834 298.847 184.931 299.059C185.034 299.309 185.085 299.576 185.082 299.846C185.093 300.265 184.947 300.673 184.672 300.989C184.328 301.327 183.88 301.539 183.401 301.592C183.81 301.637 184.192 301.824 184.478 302.12C184.73 302.467 184.88 302.878 184.909 303.306L185.039 304.384C185.039 304.459 185.039 304.535 185.039 304.61C185.055 304.844 184.982 305.075 184.834 305.257C184.758 305.333 184.667 305.391 184.567 305.428C184.466 305.465 184.359 305.48 184.252 305.472C184.141 305.477 184.031 305.46 183.927 305.421C183.823 305.382 183.729 305.323 183.648 305.246C183.478 305.052 183.382 304.804 183.379 304.545L183.271 303.468C183.266 303.13 183.148 302.804 182.937 302.541C182.668 302.331 182.328 302.235 181.989 302.271H180.76V304.556C180.767 304.675 180.748 304.795 180.706 304.906C180.663 305.018 180.597 305.119 180.512 305.203C180.348 305.348 180.138 305.428 179.919 305.428C179.701 305.428 179.49 305.348 179.326 305.203L179.348 305.311ZM181.73 301.237H182.215C182.368 301.225 182.519 301.2 182.668 301.161C182.81 301.13 182.946 301.071 183.066 300.989C183.179 300.914 183.269 300.81 183.325 300.687C183.396 300.535 183.433 300.37 183.433 300.202C183.451 300.077 183.451 299.95 183.433 299.825C183.405 299.728 183.361 299.637 183.304 299.555C183.254 299.476 183.183 299.413 183.099 299.372L182.851 299.264C182.751 299.253 182.649 299.253 182.549 299.264H182.247H180.814V301.334L181.73 301.237Z" fill="white"/>
<path d="M186.753 305.203C186.604 304.98 186.529 304.716 186.537 304.448V299.059C186.537 298.348 186.882 297.982 187.615 297.982H189.048C190.172 297.901 191.284 298.248 192.163 298.952C192.534 299.32 192.822 299.764 193.008 300.253C193.194 300.741 193.273 301.264 193.241 301.786C193.27 302.298 193.188 302.81 193.002 303.288C192.816 303.766 192.53 304.198 192.163 304.556C191.319 305.238 190.249 305.577 189.167 305.505H187.41C187.283 305.519 187.155 305.498 187.039 305.445C186.923 305.392 186.824 305.308 186.753 305.203ZM189.113 304.319C189.436 304.352 189.762 304.316 190.071 304.214C190.379 304.112 190.662 303.946 190.902 303.726C191.31 303.158 191.498 302.461 191.43 301.765C191.452 301.249 191.363 300.735 191.172 300.256C191.029 299.902 190.76 299.614 190.417 299.447C189.991 299.268 189.532 299.183 189.07 299.2H188.197V304.319H189.113Z" fill="white"/>
<path d="M194.75 305.214C194.607 305.009 194.531 304.764 194.534 304.513V299.124C194.519 298.839 194.595 298.556 194.75 298.316C194.84 298.212 194.953 298.131 195.081 298.08C195.208 298.03 195.346 298.011 195.483 298.025H199.04C199.123 298.021 199.206 298.037 199.283 298.071C199.36 298.104 199.427 298.155 199.482 298.219C199.54 298.277 199.586 298.345 199.618 298.421C199.649 298.497 199.665 298.579 199.665 298.661C199.664 298.741 199.648 298.821 199.617 298.895C199.585 298.969 199.539 299.036 199.482 299.092C199.425 299.153 199.357 299.2 199.281 299.232C199.204 299.264 199.122 299.278 199.04 299.275H196.227V301.097H198.867C198.951 301.095 199.035 301.11 199.112 301.141C199.19 301.173 199.261 301.22 199.32 301.28C199.378 301.336 199.424 301.403 199.455 301.477C199.486 301.551 199.503 301.63 199.503 301.711C199.505 301.794 199.489 301.876 199.457 301.953C199.426 302.03 199.379 302.099 199.319 302.157C199.259 302.214 199.188 302.259 199.111 302.288C199.033 302.317 198.95 302.33 198.867 302.325H196.227V304.233H199.212C199.293 304.231 199.373 304.247 199.447 304.278C199.522 304.31 199.588 304.357 199.643 304.416C199.757 304.539 199.819 304.701 199.816 304.869C199.817 304.949 199.803 305.028 199.773 305.102C199.744 305.176 199.699 305.243 199.643 305.3C199.588 305.359 199.522 305.406 199.447 305.438C199.373 305.469 199.293 305.485 199.212 305.483H195.407C195.284 305.501 195.158 305.485 195.042 305.438C194.926 305.391 194.826 305.313 194.75 305.214Z" fill="white"/>
<path d="M201.292 305.311C201.209 305.226 201.145 305.124 201.104 305.013C201.063 304.901 201.047 304.782 201.055 304.664V298.844C201.048 298.726 201.068 298.608 201.115 298.499C201.162 298.391 201.234 298.295 201.325 298.219C201.518 298.068 201.758 297.988 202.004 297.992H204.159C204.446 297.975 204.734 297.975 205.021 297.992C205.278 298.028 205.531 298.089 205.776 298.176C206.006 298.249 206.221 298.363 206.412 298.51C206.585 298.663 206.724 298.85 206.821 299.059C206.924 299.309 206.975 299.576 206.972 299.846C206.984 300.265 206.838 300.673 206.563 300.989C206.218 301.327 205.77 301.539 205.291 301.592C205.702 301.634 206.084 301.822 206.369 302.12C206.627 302.464 206.778 302.877 206.8 303.306L206.929 304.384C206.929 304.459 206.929 304.535 206.929 304.61C206.939 304.726 206.926 304.843 206.891 304.954C206.856 305.065 206.799 305.168 206.724 305.257C206.649 305.333 206.557 305.391 206.457 305.428C206.356 305.465 206.249 305.48 206.142 305.472C206.032 305.477 205.921 305.46 205.817 305.421C205.714 305.382 205.619 305.323 205.539 305.246C205.368 305.052 205.272 304.804 205.269 304.545L205.162 303.468C205.161 303.129 205.043 302.801 204.827 302.541C204.561 302.333 204.225 302.236 203.89 302.271H202.693V304.556C202.7 304.675 202.682 304.795 202.639 304.906C202.596 305.018 202.53 305.119 202.445 305.203C202.282 305.348 202.071 305.428 201.853 305.428C201.634 305.428 201.423 305.348 201.26 305.203L201.292 305.311ZM203.674 301.237H204.17C204.319 301.225 204.467 301.199 204.612 301.161C204.755 301.13 204.89 301.071 205.011 300.989C205.123 300.914 205.213 300.81 205.269 300.687C205.345 300.537 205.382 300.37 205.377 300.202C205.377 300.074 205.359 299.947 205.323 299.825C205.294 299.731 205.255 299.64 205.205 299.555C205.148 299.478 205.074 299.415 204.989 299.372L204.741 299.264C204.641 299.253 204.54 299.253 204.439 299.264H204.138H202.693V301.334L203.674 301.237Z" fill="white"/>
<path d="M211.639 305.311C211.572 305.243 211.518 305.162 211.483 305.073C211.448 304.984 211.431 304.889 211.434 304.793V298.962C211.417 298.703 211.502 298.448 211.672 298.251C211.748 298.168 211.841 298.101 211.945 298.057C212.05 298.012 212.162 297.99 212.275 297.992C212.469 297.999 212.656 298.063 212.814 298.176C213 298.299 213.161 298.456 213.288 298.639L216.522 303.134V298.715C216.521 298.618 216.539 298.523 216.576 298.434C216.613 298.345 216.668 298.264 216.737 298.197C216.803 298.13 216.882 298.078 216.969 298.043C217.056 298.007 217.15 297.99 217.244 297.992C217.339 297.99 217.434 298.007 217.523 298.042C217.612 298.077 217.693 298.13 217.761 298.197C217.83 298.264 217.885 298.345 217.922 298.434C217.959 298.523 217.978 298.618 217.977 298.715V304.319C217.986 304.623 217.915 304.924 217.772 305.192C217.702 305.298 217.606 305.384 217.492 305.441C217.378 305.497 217.252 305.523 217.125 305.516C216.97 305.485 216.825 305.414 216.705 305.311C216.517 305.177 216.353 305.013 216.22 304.826L212.986 300.331V304.772C212.988 304.869 212.969 304.966 212.93 305.055C212.891 305.144 212.833 305.224 212.76 305.289C212.694 305.356 212.615 305.409 212.528 305.444C212.441 305.479 212.347 305.496 212.254 305.494C212.144 305.514 212.031 305.507 211.925 305.476C211.818 305.444 211.72 305.387 211.639 305.311Z" fill="white"/>
<path d="M220.326 304.643C219.71 303.798 219.377 302.779 219.377 301.733C219.377 300.686 219.71 299.667 220.326 298.822C221.081 298.161 222.05 297.797 223.053 297.797C224.056 297.797 225.025 298.161 225.78 298.822C226.397 299.667 226.729 300.686 226.729 301.733C226.729 302.779 226.397 303.798 225.78 304.643C225.025 305.304 224.056 305.668 223.053 305.668C222.05 305.668 221.081 305.304 220.326 304.643ZM224.508 303.759C224.866 303.146 225.031 302.44 224.982 301.733C225.028 301.03 224.867 300.329 224.519 299.717C224.351 299.491 224.128 299.311 223.872 299.195C223.616 299.078 223.334 299.028 223.053 299.049C222.774 299.026 222.493 299.076 222.238 299.193C221.984 299.31 221.763 299.49 221.598 299.717C221.293 300.347 221.134 301.038 221.134 301.738C221.134 302.438 221.293 303.129 221.598 303.759C221.765 303.984 221.985 304.163 222.24 304.28C222.494 304.397 222.774 304.447 223.053 304.427C223.333 304.449 223.613 304.4 223.868 304.283C224.123 304.166 224.343 303.985 224.508 303.759Z" fill="white"/>
<path d="M236.192 305.311C235.985 305.461 235.736 305.54 235.48 305.537C235.214 305.537 234.954 305.454 234.737 305.3C234.506 305.127 234.342 304.879 234.273 304.599L232.807 299.631L231.341 304.599C231.268 304.878 231.106 305.124 230.878 305.3C230.66 305.452 230.4 305.534 230.134 305.537C229.876 305.54 229.623 305.461 229.412 305.311C229.208 305.161 229.063 304.943 229.003 304.696L227.548 298.898C227.537 298.83 227.537 298.761 227.548 298.693C227.543 298.591 227.562 298.489 227.604 298.396C227.645 298.303 227.707 298.22 227.785 298.154C227.93 298.015 228.123 297.938 228.324 297.939C228.494 297.937 228.659 297.998 228.787 298.111C228.931 298.241 229.026 298.416 229.057 298.607L230.274 303.845L231.697 299.07C231.762 298.764 231.903 298.478 232.107 298.24C232.204 298.148 232.319 298.076 232.445 298.03C232.571 297.983 232.706 297.963 232.84 297.971C232.972 297.963 233.105 297.983 233.229 298.029C233.354 298.075 233.467 298.147 233.562 298.24C233.773 298.474 233.919 298.761 233.982 299.07L235.394 303.845L236.612 298.607C236.642 298.413 236.742 298.237 236.892 298.111C237.016 297.998 237.178 297.936 237.345 297.939C237.549 297.94 237.744 298.016 237.895 298.154C237.969 298.222 238.029 298.305 238.068 298.398C238.107 298.492 238.125 298.592 238.121 298.693C238.126 298.761 238.126 298.83 238.121 298.898L236.666 304.696C236.59 304.953 236.42 305.172 236.192 305.311Z" fill="white"/>
<path d="M213.935 71.5231H262.286C264.118 71.5231 265.875 72.251 267.171 73.5466C268.466 74.8423 269.194 76.5995 269.194 78.4319V84.4137H213.935V71.48V71.5231Z" fill="#263238"/>
<path d="M164.97 71.5231H213.321C215.153 71.5231 216.91 72.251 218.206 73.5466C219.502 74.8423 220.229 76.5995 220.229 78.4319V84.4137H164.97V71.48V71.5231Z" fill="#BFDAFF"/>
<path d="M119.799 71.5231H168.15C169.982 71.5231 171.739 72.251 173.035 73.5466C174.33 74.8423 175.058 76.5995 175.058 78.4319V84.4137H119.799V71.48V71.5231Z" fill="#263238"/>
<path d="M119.799 84.4241H289.241" stroke="#263238" stroke-miterlimit="10"/>
<path d="M254.051 58.6321H124.746V65.0774H254.051V58.6321Z" fill="white" stroke="#263238" stroke-linecap="round" stroke-linejoin="round"/>
<path d="M284.305 58.6321H256.336V65.0774H284.305V58.6321Z" fill="white" stroke="#263238" stroke-linecap="round" stroke-linejoin="round"/>
<path d="M278.851 63.385C279.881 63.385 280.716 62.5502 280.716 61.5204C280.716 60.4906 279.881 59.6558 278.851 59.6558C277.821 59.6558 276.987 60.4906 276.987 61.5204C276.987 62.5502 277.821 63.385 278.851 63.385Z" fill="white" stroke="#263238" stroke-width="0.75" stroke-linecap="round" stroke-linejoin="round"/>
<path d="M280.608 62.6199L283.238 63.9348" stroke="#263238" stroke-width="0.75" stroke-linecap="round" stroke-linejoin="round"/>
<path d="M287.237 55.0967H121.803V364.353H287.237V55.0967Z" stroke="#263238" stroke-linecap="round" stroke-linejoin="round"/>
<path d="M336.708 116.306C330.972 119.715 326.305 124.662 323.235 130.587C318.655 140.018 321.349 146.215 326.469 150.257C331.588 154.299 336.977 162.382 337.516 164.807C338.055 167.232 335.63 170.735 335.63 170.735C335.63 170.735 346.139 175.855 354.492 172.891C362.845 169.927 365.809 155.646 363.114 149.987C360.42 144.329 343.983 132.203 342.097 124.389C340.211 116.575 341.289 114.958 341.289 114.958L336.708 116.306Z" fill="#263238" stroke="#263238" stroke-linecap="round" stroke-linejoin="round"/>
<path d="M353.77 170.649L341.828 172.891C341.828 172.891 336.169 174.507 331.858 184.477C327.547 194.447 325.391 213.848 325.391 213.848L322.966 210.614L317.846 216.273C317.846 216.273 326.199 232.709 329.972 233.248C333.744 233.787 340.48 222.739 340.48 222.739C339.628 228.48 338.367 234.153 336.708 239.715C334.283 247.26 330.521 258.296 330.521 274.205C330.521 292.269 341.299 316.509 343.983 325.401C346.667 334.293 346.408 342.107 348.564 350.999C350.72 359.891 352.067 375.519 352.067 375.519C349.761 377.975 347.332 380.313 344.792 382.525C342.097 384.68 339.133 387.106 340.211 387.914C341.289 388.722 344.253 388.722 348.833 387.375C353.414 386.028 358.803 384.142 360.42 383.064C362.037 381.986 362.306 378.483 362.306 376.058C362.306 373.633 362.037 336.987 362.037 336.987C362.037 336.987 380.629 367.705 380.629 371.747C380.629 375.788 381.976 389.531 385.209 390.608C388.443 391.686 390.329 385.489 390.329 379.561C390.329 373.633 386.018 366.358 386.018 366.358C386.018 366.358 383.054 343.724 380.898 335.101C379.244 328.95 377.173 322.918 374.701 317.048C374.701 317.048 391.407 287.139 393.024 268.546C394.64 249.954 385.209 225.434 385.209 225.434C385.209 225.434 393.832 204.686 394.101 190.944C394.371 177.202 389.521 174.777 383.862 172.352C380.941 170.997 377.83 170.099 374.636 169.69L362.306 168.612L353.77 170.649Z" fill="#026BF9"/>
<path d="M385.253 180.586C387.367 179.609 389.599 178.906 391.892 178.495C391.705 178.152 391.496 177.82 391.267 177.504C389.036 177.973 386.866 178.696 384.8 179.659C384.736 179.688 384.678 179.73 384.63 179.782C384.582 179.833 384.545 179.894 384.52 179.96C384.496 180.027 384.486 180.097 384.489 180.168C384.493 180.238 384.511 180.307 384.541 180.371C384.611 180.489 384.723 180.577 384.855 180.617C384.987 180.657 385.129 180.646 385.253 180.586Z" fill="white"/>
<path d="M379.454 195.04V196.118C381.007 196.48 382.472 197.147 383.765 198.079C383.822 198.12 383.887 198.15 383.956 198.165C384.024 198.181 384.095 198.183 384.164 198.171C384.234 198.159 384.3 198.133 384.359 198.095C384.418 198.057 384.469 198.008 384.509 197.95C384.55 197.892 384.58 197.826 384.596 197.757C384.612 197.688 384.613 197.616 384.601 197.546C384.589 197.476 384.564 197.408 384.526 197.348C384.487 197.288 384.438 197.236 384.38 197.195C382.91 196.135 381.23 195.4 379.454 195.04Z" fill="white"/>
<path d="M392.582 199.157C392.593 198.97 392.657 198.79 392.766 198.638C392.874 198.486 393.023 198.367 393.196 198.295C393.243 198.29 393.29 198.29 393.336 198.295C393.401 197.917 393.465 197.54 393.519 197.217C393.271 197.222 393.027 197.273 392.797 197.368C392.458 197.508 392.162 197.736 391.939 198.027C391.716 198.319 391.573 198.664 391.525 199.028C391.132 201.652 391.103 204.317 391.439 206.949C391.741 205.872 392.021 204.686 392.291 203.533C392.23 202.068 392.328 200.601 392.582 199.157Z" fill="white"/>
<path d="M392 187.118C391.93 187.195 391.884 187.291 391.868 187.393C391.852 187.496 391.867 187.602 391.911 187.696C391.954 187.79 392.025 187.87 392.114 187.924C392.203 187.979 392.305 188.006 392.409 188.002C392.485 188.005 392.561 187.99 392.631 187.958C392.7 187.926 392.761 187.878 392.808 187.818C393.224 187.337 393.612 186.834 393.972 186.31C393.915 185.728 393.85 185.167 393.778 184.628C393.252 185.503 392.657 186.336 392 187.118Z" fill="white"/>
<path d="M384.541 221.058C384.57 221.122 384.612 221.18 384.664 221.228C384.715 221.276 384.776 221.313 384.842 221.338C384.909 221.362 384.979 221.372 385.05 221.369C385.12 221.365 385.189 221.347 385.253 221.317C385.695 221.112 386.33 220.842 387.074 220.562C387.236 220.142 387.387 219.711 387.559 219.247C386.05 219.775 384.918 220.325 384.8 220.325C384.734 220.355 384.674 220.398 384.625 220.452C384.576 220.505 384.539 220.568 384.514 220.636C384.49 220.705 384.48 220.778 384.485 220.85C384.489 220.922 384.509 220.993 384.541 221.058Z" fill="white"/>
<path d="M384.412 238.702C384.453 238.644 384.483 238.578 384.499 238.509C384.515 238.44 384.517 238.368 384.505 238.298C384.492 238.227 384.467 238.16 384.429 238.1C384.391 238.04 384.341 237.988 384.283 237.947C382.829 236.894 381.168 236.159 379.411 235.792V236.87C380.967 237.222 382.434 237.89 383.722 238.831C383.833 238.898 383.964 238.921 384.092 238.898C384.219 238.874 384.333 238.804 384.412 238.702Z" fill="white"/>
<path d="M391.601 248.51C391.601 248.24 391.493 247.971 391.45 247.701C391.464 247.9 391.49 248.098 391.525 248.294C391.534 248.371 391.56 248.444 391.601 248.51Z" fill="white"/>
<path d="M369.872 177.277C369.78 177.387 369.734 177.528 369.744 177.671C369.754 177.814 369.819 177.947 369.926 178.043C370.029 178.142 370.166 178.198 370.309 178.198C370.452 178.198 370.589 178.142 370.691 178.043C370.875 177.827 374.906 173.117 374.151 169.7L372.987 169.506C373.893 171.888 371.058 175.909 369.872 177.277Z" fill="white"/>
<path d="M363.136 170.746C364.642 170.069 366.199 169.51 367.792 169.075L365.022 168.817C363.729 169.291 362.78 169.722 362.683 169.765C362.554 169.828 362.455 169.938 362.405 170.073C362.355 170.207 362.358 170.355 362.414 170.487C362.444 170.552 362.486 170.61 362.539 170.658C362.592 170.706 362.654 170.743 362.721 170.768C362.788 170.792 362.859 170.802 362.93 170.798C363.002 170.795 363.072 170.777 363.136 170.746Z" fill="white"/>
<path d="M355.333 182.203C355.737 181.111 355.737 179.911 355.333 178.819C355.201 178.53 355.012 178.271 354.776 178.058C354.541 177.844 354.264 177.682 353.964 177.579C350.967 176.501 344.361 179.476 344.08 179.606C343.95 179.664 343.849 179.772 343.799 179.906C343.748 180.039 343.752 180.187 343.811 180.317C343.874 180.446 343.984 180.545 344.118 180.595C344.253 180.646 344.401 180.642 344.533 180.586C346.322 179.756 351.442 177.784 353.587 178.592C353.754 178.644 353.908 178.73 354.04 178.845C354.172 178.96 354.278 179.102 354.352 179.261C354.669 180.225 354.619 181.273 354.212 182.203H355.333Z" fill="white"/>
<path d="M338.67 195.04V196.118C340.204 196.484 341.651 197.151 342.927 198.079C342.985 198.121 343.05 198.15 343.12 198.166C343.189 198.182 343.261 198.184 343.331 198.172C343.401 198.16 343.468 198.134 343.529 198.096C343.589 198.058 343.641 198.008 343.681 197.95C343.762 197.832 343.794 197.687 343.77 197.546C343.746 197.406 343.668 197.28 343.552 197.195C342.095 196.14 340.431 195.405 338.67 195.04Z" fill="white"/>
<path d="M378.042 195.18C377.704 195.321 377.41 195.549 377.189 195.84C376.967 196.132 376.827 196.476 376.781 196.84C376.376 199.699 376.376 202.602 376.781 205.462C376.799 205.59 376.862 205.707 376.959 205.792C377.056 205.877 377.18 205.924 377.309 205.926H377.395C377.536 205.902 377.661 205.824 377.746 205.71C377.83 205.595 377.867 205.452 377.848 205.311C377.468 202.576 377.468 199.801 377.848 197.066C377.858 196.879 377.92 196.698 378.026 196.544C378.133 196.39 378.28 196.268 378.452 196.193C378.767 196.101 379.098 196.083 379.422 196.139V195.061C378.959 194.987 378.485 195.028 378.042 195.18Z" fill="white"/>
<path d="M352.056 197.292C351.721 197.438 351.428 197.667 351.205 197.958C350.983 198.248 350.838 198.59 350.784 198.952C350.377 201.812 350.377 204.715 350.784 207.575C350.802 207.702 350.865 207.819 350.962 207.904C351.059 207.989 351.183 208.037 351.312 208.038H351.431C351.572 208.019 351.7 207.945 351.787 207.832C351.874 207.719 351.913 207.576 351.894 207.434C351.518 204.695 351.518 201.918 351.894 199.178C352.024 198.575 352.304 198.392 352.509 198.316C353.684 197.842 356.335 199.232 357.736 200.224C357.853 200.297 357.994 200.322 358.129 200.294C358.265 200.266 358.384 200.187 358.463 200.074C358.542 199.96 358.574 199.821 358.553 199.684C358.532 199.548 358.46 199.425 358.35 199.34C357.898 199.028 354.158 196.452 352.056 197.292Z" fill="white"/>
<path d="M369.926 218.773C370.023 218.864 370.15 218.914 370.282 218.913C370.36 218.913 370.438 218.896 370.509 218.863C370.579 218.829 370.642 218.78 370.691 218.719C370.885 218.504 375.455 213.158 373.925 209.72C373.793 209.432 373.603 209.175 373.368 208.964C373.132 208.752 372.856 208.591 372.556 208.491C369.56 207.348 362.953 210.377 362.673 210.506C362.608 210.536 362.55 210.578 362.502 210.63C362.454 210.682 362.417 210.744 362.392 210.81C362.368 210.877 362.356 210.947 362.359 211.018C362.362 211.089 362.379 211.159 362.408 211.223C362.438 211.288 362.48 211.345 362.532 211.394C362.585 211.442 362.646 211.479 362.712 211.504C362.779 211.528 362.849 211.539 362.92 211.537C362.991 211.534 363.061 211.517 363.125 211.487C364.914 210.657 370.034 208.685 372.179 209.493C372.344 209.546 372.497 209.632 372.627 209.747C372.757 209.862 372.861 210.004 372.933 210.162C374.011 212.49 371.069 216.628 369.862 218.019C369.815 218.072 369.78 218.134 369.758 218.201C369.737 218.268 369.728 218.339 369.735 218.41C369.741 218.48 369.761 218.548 369.794 218.611C369.826 218.673 369.872 218.728 369.926 218.773Z" fill="white"/>
<path d="M351.258 187.118C351.212 187.171 351.176 187.232 351.153 187.299C351.13 187.366 351.121 187.436 351.126 187.507C351.131 187.577 351.15 187.645 351.182 187.708C351.214 187.771 351.259 187.827 351.312 187.872C351.412 187.955 351.538 188.001 351.668 188.002C351.746 188.004 351.823 187.989 351.894 187.957C351.965 187.925 352.027 187.878 352.078 187.819C353.488 186.159 354.584 184.256 355.311 182.203H354.179C353.492 183.995 352.504 185.658 351.258 187.118Z" fill="white"/>
<path d="M343.8 221.058C343.83 221.123 343.873 221.181 343.925 221.229C343.978 221.277 344.04 221.314 344.107 221.338C344.174 221.362 344.245 221.373 344.317 221.369C344.388 221.365 344.458 221.348 344.522 221.317C346.311 220.487 351.442 218.525 353.576 219.334C353.741 219.385 353.895 219.47 354.026 219.583C354.158 219.696 354.265 219.835 354.341 219.991C354.658 220.956 354.608 222.003 354.201 222.933H355.333C355.737 221.845 355.737 220.648 355.333 219.56C355.203 219.27 355.014 219.01 354.778 218.797C354.543 218.583 354.265 218.421 353.964 218.32C350.967 217.243 344.36 220.207 344.08 220.336C343.95 220.397 343.847 220.506 343.795 220.641C343.743 220.775 343.745 220.925 343.8 221.058Z" fill="white"/>
<path d="M364.623 184.919C364.565 184.878 364.5 184.848 364.43 184.832C364.361 184.817 364.289 184.815 364.219 184.827C364.149 184.839 364.082 184.864 364.022 184.902C363.962 184.941 363.91 184.99 363.869 185.048C363.556 185.49 360.786 189.424 361.508 191.936C361.62 192.313 361.818 192.659 362.088 192.945C362.358 193.232 362.691 193.451 363.06 193.585C363.859 193.904 364.712 194.065 365.572 194.059C367.36 194.004 369.098 193.456 370.594 192.475C370.652 192.434 370.702 192.381 370.74 192.321C370.778 192.261 370.803 192.194 370.815 192.124C370.827 192.054 370.825 191.982 370.81 191.913C370.794 191.844 370.765 191.778 370.724 191.72C370.683 191.662 370.631 191.613 370.57 191.575C370.51 191.537 370.443 191.511 370.373 191.499C370.303 191.487 370.231 191.489 370.162 191.505C370.093 191.521 370.027 191.55 369.969 191.591C369.969 191.591 366.66 193.865 363.502 192.582C363.285 192.509 363.088 192.385 362.929 192.22C362.769 192.055 362.652 191.854 362.586 191.634C362.101 189.931 364.009 186.751 364.796 185.674C364.835 185.613 364.862 185.545 364.874 185.474C364.887 185.403 364.885 185.33 364.869 185.26C364.853 185.19 364.823 185.123 364.781 185.065C364.739 185.006 364.685 184.957 364.623 184.919Z" fill="white"/>
<path d="M338.67 235.781V236.859C340.207 237.216 341.656 237.884 342.927 238.82C343.044 238.903 343.19 238.936 343.331 238.912C343.473 238.888 343.599 238.808 343.681 238.691C343.764 238.574 343.797 238.429 343.773 238.287C343.749 238.146 343.669 238.02 343.552 237.937C342.094 236.883 340.43 236.149 338.67 235.781Z" fill="white"/>
<path d="M378.042 235.921C377.704 236.062 377.41 236.29 377.189 236.582C376.967 236.873 376.827 237.218 376.781 237.581C376.376 240.441 376.376 243.343 376.781 246.203C376.799 246.331 376.862 246.448 376.959 246.533C377.056 246.618 377.18 246.665 377.309 246.667H377.395C377.535 246.645 377.66 246.57 377.745 246.457C377.83 246.345 377.867 246.203 377.848 246.063C377.469 243.328 377.469 240.553 377.848 237.818C377.967 237.204 378.258 237.02 378.452 236.945C378.765 236.843 379.099 236.824 379.422 236.891V235.813C378.96 235.736 378.486 235.773 378.042 235.921Z" fill="white"/>
<path d="M352.056 238.023C351.719 238.17 351.426 238.4 351.203 238.693C350.98 238.985 350.836 239.33 350.784 239.693C350.376 242.553 350.376 245.456 350.784 248.316C350.802 248.444 350.865 248.561 350.962 248.646C351.059 248.731 351.183 248.778 351.312 248.779H351.431C351.502 248.77 351.57 248.747 351.632 248.711C351.694 248.675 351.748 248.627 351.792 248.57C351.835 248.512 351.866 248.447 351.884 248.378C351.901 248.308 351.905 248.236 351.894 248.165C351.518 245.429 351.518 242.655 351.894 239.92C351.912 239.733 351.978 239.555 352.086 239.402C352.194 239.249 352.339 239.126 352.509 239.047C353.684 238.583 356.335 239.974 357.736 240.954C357.793 240.997 357.857 241.028 357.926 241.044C357.995 241.061 358.066 241.063 358.136 241.051C358.206 241.039 358.272 241.012 358.331 240.974C358.39 240.935 358.441 240.884 358.48 240.825C358.521 240.768 358.55 240.703 358.566 240.635C358.582 240.566 358.584 240.495 358.571 240.426C358.559 240.357 358.534 240.291 358.496 240.231C358.458 240.172 358.408 240.121 358.35 240.081C357.898 239.758 354.147 237.193 352.056 238.023Z" fill="white"/>
<path d="M369.926 259.514C370.036 259.607 370.177 259.653 370.32 259.643C370.463 259.633 370.596 259.567 370.691 259.46C370.885 259.234 375.455 253.899 373.925 250.461C373.792 250.173 373.602 249.914 373.367 249.701C373.131 249.489 372.856 249.325 372.556 249.221C369.56 248.143 362.953 251.118 362.672 251.247C362.543 251.306 362.441 251.414 362.391 251.547C362.34 251.681 362.345 251.829 362.403 251.959C362.466 252.088 362.576 252.187 362.71 252.237C362.845 252.287 362.993 252.284 363.125 252.228C364.914 251.398 370.034 249.426 372.179 250.234C372.345 250.285 372.499 250.371 372.629 250.486C372.759 250.601 372.863 250.743 372.933 250.903C374.011 253.231 371.069 257.369 369.861 258.76C369.815 258.813 369.78 258.875 369.758 258.942C369.737 259.009 369.728 259.08 369.734 259.151C369.74 259.221 369.761 259.289 369.793 259.352C369.826 259.414 369.871 259.47 369.926 259.514Z" fill="white"/>
<path d="M354.201 222.933C353.615 224.483 352.801 225.936 351.787 227.245C351.592 227.492 351.409 227.708 351.258 227.88C351.166 227.99 351.12 228.131 351.13 228.274C351.14 228.417 351.205 228.55 351.312 228.646C351.415 228.745 351.552 228.801 351.695 228.801C351.838 228.801 351.975 228.745 352.078 228.646C352.078 228.581 352.444 228.215 352.875 227.568C353.943 226.18 354.773 224.625 355.333 222.966L354.201 222.933Z" fill="white"/>
<path d="M364.623 225.66C364.507 225.578 364.363 225.545 364.222 225.567C364.081 225.589 363.955 225.665 363.869 225.779C363.556 226.221 360.786 230.166 361.508 232.677C361.62 233.054 361.818 233.4 362.088 233.686C362.358 233.973 362.691 234.192 363.06 234.326C363.859 234.645 364.712 234.806 365.572 234.8C367.359 234.742 369.097 234.194 370.594 233.216C370.652 233.175 370.702 233.123 370.74 233.063C370.778 233.002 370.803 232.935 370.815 232.865C370.827 232.795 370.825 232.724 370.81 232.654C370.794 232.585 370.765 232.519 370.724 232.461C370.683 232.403 370.631 232.354 370.57 232.316C370.51 232.278 370.443 232.252 370.373 232.24C370.303 232.228 370.231 232.23 370.162 232.246C370.093 232.262 370.027 232.291 369.969 232.332C369.969 232.332 366.66 234.595 363.502 233.324C363.285 233.25 363.088 233.126 362.929 232.961C362.769 232.796 362.652 232.595 362.586 232.375C362.101 230.672 364.009 227.493 364.796 226.415C364.835 226.354 364.862 226.286 364.874 226.215C364.887 226.144 364.885 226.071 364.869 226.001C364.853 225.931 364.823 225.864 364.781 225.806C364.739 225.747 364.685 225.698 364.623 225.66Z" fill="white"/>
<path d="M337.312 195.18C336.973 195.321 336.677 195.548 336.453 195.839C336.23 196.131 336.087 196.476 336.04 196.84C335.64 199.7 335.64 202.602 336.04 205.462C336.06 205.591 336.126 205.708 336.224 205.793C336.323 205.878 336.449 205.925 336.579 205.926H336.654C336.795 205.902 336.922 205.825 337.008 205.711C337.094 205.596 337.133 205.454 337.118 205.311C336.736 202.576 336.736 199.801 337.118 197.066C337.135 196.88 337.201 196.701 337.309 196.548C337.417 196.395 337.563 196.273 337.732 196.193C338.044 196.103 338.371 196.085 338.691 196.139V195.061C338.229 194.986 337.755 195.027 337.312 195.18Z" fill="white"/>
<path d="M322.395 211.541C322.643 211.422 322.955 211.282 323.322 211.142L322.966 210.668L322.136 211.584C322.224 211.591 322.313 211.576 322.395 211.541Z" fill="white"/>
<path d="M331.826 208.491C330.371 207.93 328.053 208.372 326.027 208.976C325.962 209.396 325.908 209.784 325.854 210.161C327.902 209.504 330.166 209.019 331.448 209.493C331.615 209.547 331.768 209.633 331.9 209.748C332.032 209.863 332.138 210.004 332.214 210.161C333.291 212.49 330.349 216.628 329.142 218.019C329.094 218.071 329.056 218.132 329.033 218.199C329.009 218.266 329 218.337 329.005 218.408C329.01 218.478 329.029 218.547 329.062 218.61C329.095 218.673 329.141 218.729 329.196 218.773C329.241 218.818 329.295 218.854 329.354 218.878C329.413 218.902 329.477 218.914 329.541 218.913C329.619 218.913 329.696 218.896 329.767 218.862C329.838 218.829 329.901 218.78 329.95 218.719C330.144 218.504 334.725 213.158 333.184 209.72C333.056 209.431 332.869 209.173 332.635 208.961C332.401 208.749 332.125 208.589 331.826 208.491Z" fill="white"/>
<path d="M329.875 192.475C329.969 192.405 330.038 192.306 330.071 192.194C330.104 192.081 330.099 191.961 330.058 191.851C330.017 191.741 329.94 191.648 329.841 191.586C329.742 191.523 329.625 191.495 329.508 191.505C329.379 191.968 329.26 192.442 329.142 192.917C329.541 192.679 329.81 192.496 329.875 192.475Z" fill="white"/>
<path d="M336.568 246.656H336.643C336.783 246.635 336.91 246.56 336.996 246.447C337.083 246.335 337.122 246.193 337.107 246.052C336.792 243.727 336.727 241.375 336.913 239.036C336.837 239.262 336.773 239.499 336.708 239.726C336.395 240.663 336.072 241.666 335.738 242.722C335.813 244.608 336.018 246.085 336.029 246.203C336.052 246.33 336.118 246.444 336.216 246.527C336.315 246.61 336.439 246.655 336.568 246.656Z" fill="white"/>
<path d="M337.71 236.924C338.02 236.822 338.351 236.803 338.67 236.87V235.792C338.391 235.754 338.108 235.754 337.829 235.792C337.721 236.212 337.613 236.633 337.495 237.053C337.558 236.997 337.631 236.953 337.71 236.924Z" fill="white"/>
<path d="M333.367 250.989C332.968 252.616 332.58 254.33 332.224 256.151C333.108 254.535 333.798 252.605 333.367 250.989Z" fill="white"/>
<path d="M329.239 232.332L328.721 232.634C329.054 232.905 329.439 233.103 329.853 233.216C329.962 233.131 330.035 233.008 330.056 232.871C330.077 232.735 330.044 232.596 329.965 232.482C329.887 232.369 329.767 232.29 329.632 232.262C329.497 232.234 329.356 232.259 329.239 232.332Z" fill="white"/>
<path d="M323.214 225.714L323.828 226.673C323.893 226.587 323.958 226.479 324.011 226.415C324.093 226.298 324.127 226.154 324.105 226.014C324.082 225.873 324.007 225.746 323.893 225.66C323.791 225.59 323.667 225.557 323.544 225.566C323.42 225.576 323.304 225.628 323.214 225.714Z" fill="white"/>
<path d="M353.77 170.649L341.828 172.891C341.828 172.891 336.169 174.507 331.858 184.477C327.547 194.447 325.391 213.848 325.391 213.848L322.966 210.614L317.846 216.273C317.846 216.273 326.199 232.709 329.972 233.248C333.744 233.787 340.48 222.739 340.48 222.739C339.628 228.48 338.367 234.153 336.708 239.715C334.283 247.26 330.521 258.296 330.521 274.205C330.521 292.269 341.299 316.509 343.983 325.401C346.667 334.293 346.408 342.107 348.564 350.999C350.72 359.891 352.067 375.519 352.067 375.519C349.761 377.975 347.332 380.313 344.792 382.525C342.097 384.68 339.133 387.106 340.211 387.914C341.289 388.722 344.253 388.722 348.833 387.375C353.414 386.028 358.803 384.142 360.42 383.064C362.037 381.986 362.306 378.483 362.306 376.058C362.306 373.633 362.037 336.987 362.037 336.987C362.037 336.987 380.629 367.705 380.629 371.747C380.629 375.789 381.976 389.531 385.209 390.608C388.443 391.686 390.329 385.489 390.329 379.561C390.329 373.633 386.018 366.358 386.018 366.358C386.018 366.358 383.054 343.724 380.898 335.101C379.244 328.95 377.173 322.918 374.701 317.048C374.701 317.048 391.407 287.139 393.024 268.546C394.64 249.954 385.209 225.434 385.209 225.434C385.209 225.434 393.832 204.686 394.101 190.944C394.371 177.202 389.521 174.777 383.862 172.352C380.941 170.997 377.83 170.099 374.636 169.69L362.306 168.612L353.77 170.649Z" stroke="#263238" stroke-linecap="round" stroke-linejoin="round"/>
<path d="M360.42 383.064C362.036 381.986 362.306 378.483 362.306 376.058C362.306 373.633 362.23 348.25 362.23 348.25H347.96C348.144 349.156 348.338 350.061 348.564 350.999C350.719 359.891 352.067 375.519 352.067 375.519C349.761 377.975 347.332 380.313 344.792 382.525C342.097 384.68 339.133 387.106 340.211 387.914C341.289 388.722 344.253 388.722 348.833 387.375C353.414 386.028 358.803 384.142 360.42 383.064Z" fill="white" stroke="#263238" stroke-linecap="round" stroke-linejoin="round"/>
<path d="M380.629 371.747C380.629 375.789 381.976 389.531 385.209 390.608C388.443 391.686 390.329 385.489 390.329 379.561C390.329 373.633 386.018 366.358 386.018 366.358C386.018 366.358 384.811 357.153 383.377 348.25H368.676C374.065 357.455 380.629 369.332 380.629 371.747Z" fill="white" stroke="#263238" stroke-linecap="round" stroke-linejoin="round"/>
<path d="M385.209 390.608C388.443 391.686 390.329 385.489 390.329 379.561C390.329 375.821 388.615 371.564 387.354 368.912L387.591 374.991C387.591 374.991 385.317 373.288 383.905 373.579C382.493 373.87 381.351 376.133 381.351 376.133H380.877C381.405 381.835 382.774 389.789 385.209 390.608Z" fill="#BFDAFF" stroke="#263238" stroke-linecap="round" stroke-linejoin="round"/>
<path d="M362.284 376.985C360.462 378.296 358.314 379.079 356.076 379.248C355.889 377.999 355.605 376.767 355.225 375.562C354.653 373.859 352.067 375.562 352.067 375.562C349.761 378.018 347.332 380.356 344.792 382.568C342.097 384.724 339.133 387.149 340.211 387.957C341.289 388.765 344.253 388.765 348.833 387.418C353.414 386.071 358.803 384.185 360.42 383.107C361.832 382.115 362.209 379.302 362.284 376.985Z" fill="#BFDAFF" stroke="#263238" stroke-linecap="round" stroke-linejoin="round"/>
<path d="M332.688 253.899C331.241 260.57 330.518 267.378 330.532 274.205C330.532 292.269 341.31 316.509 343.994 325.401C346.678 334.293 346.419 342.107 348.575 350.999C348.963 352.626 349.329 354.491 349.653 356.388C353.777 357.498 358.119 357.516 362.252 356.442L362.026 336.944C362.026 336.944 368.018 346.838 373.192 356.14C377.003 356.344 380.805 355.603 384.261 353.984C383.248 347.237 381.965 339.391 380.887 335.069C379.233 328.917 377.163 322.886 374.69 317.015C374.69 317.015 391.396 287.106 393.013 268.514C393.363 263.404 393.146 258.271 392.366 253.209C386.514 255.526 375.908 258.598 360.323 258.598C347.12 258.587 338.217 256.184 332.688 253.899Z" fill="#263238" stroke="#263238" stroke-linecap="round" stroke-linejoin="round"/>
<path d="M360.905 266.509C360.905 266.509 353.242 304.233 352.951 311.659C352.66 319.085 360.334 333.517 360.334 333.517" stroke="white" stroke-linecap="round" stroke-linejoin="round"/>
<path d="M340.48 222.74C340.48 222.74 333.205 214.656 332.936 208.728C332.666 202.8 338.864 187.172 338.864 187.172" stroke="#263238" stroke-linecap="round" stroke-linejoin="round"/>
<path d="M352.336 161.304C352.336 161.304 356.109 165.885 356.378 167.771C356.647 169.657 353.77 170.649 353.77 170.649C353.77 170.649 348.294 181.244 353.145 185.824C357.995 190.405 364.731 186.094 367.156 182.321C369.581 178.549 371.198 169.657 371.198 169.657C368.075 167.132 365.27 164.237 362.845 161.035C360.818 158.165 358.566 155.462 356.109 152.951C356.109 152.951 353.953 159.957 352.336 161.304Z" fill="white" stroke="#263238" stroke-linecap="round" stroke-linejoin="round"/>
<path d="M332.903 130.824C332.903 130.824 330.015 139.22 331.696 143.757C333.378 148.295 336.255 148.554 336.492 149.998C336.73 151.442 335.037 155.764 335.274 156.465C335.512 157.165 339.349 157.909 339.349 157.909C339.349 157.909 344.651 165.324 346.807 165.324C348.963 165.324 352.81 162.932 354.244 160.765C355.402 158.786 356.365 156.7 357.122 154.536C357.122 154.536 355.44 150.451 347.766 146.377C340.092 142.302 333.108 135.631 332.903 130.824Z" fill="white" stroke="#263238" stroke-linecap="round" stroke-linejoin="round"/>
<path d="M340.34 148.414C340.814 149.254 340.868 150.106 340.48 150.321C340.092 150.537 339.403 150.052 338.918 149.244C338.433 148.435 338.389 147.551 338.777 147.325C339.165 147.099 339.877 147.584 340.34 148.414Z" fill="#263238"/>
<path d="M336.719 147.627C336.719 147.627 336.719 144.523 339.952 145.708" stroke="#263238" stroke-linecap="round" stroke-linejoin="round"/>
<path d="M342.334 157.543C342.334 157.543 345.74 158.621 346.775 154.439" stroke="#263238" stroke-linecap="round" stroke-linejoin="round"/>
<path d="M336.708 116.306C336.708 116.306 331.049 125.736 332.666 132.473C334.283 139.209 341.289 145.137 346.408 147.832C351.528 150.526 360.15 158.34 360.42 163.46C360.689 168.579 355.3 171.813 356.378 172.352C357.456 172.891 366.078 174.777 371.198 169.657C376.317 164.538 383.431 159.008 383.162 148.769C382.892 138.53 373.461 129.563 369.721 124.174C365.981 118.785 360.15 110.917 350.989 110.647C341.828 110.378 338.055 114.958 336.708 116.306Z" fill="#263238" stroke="#263238" stroke-linecap="round" stroke-linejoin="round"/>
<path d="M336.007 127.472C336.222 130.703 337.471 133.78 339.569 136.247C341.667 138.714 344.504 140.44 347.659 141.171C358.976 144.124 376.221 152.262 374.464 164.807" stroke="#707070" stroke-linecap="round" stroke-linejoin="round"/>
<path d="M345.33 119.927C345.33 119.927 345.912 128.668 356.109 132.171C366.305 135.674 380.898 142.076 382.623 153.145" stroke="#707070" stroke-linecap="round" stroke-linejoin="round"/>
<path d="M335.716 119.065C335.716 119.065 331.653 128.097 332.666 132.473" stroke="#707070" stroke-linecap="round" stroke-linejoin="round"/>
<path d="M380.898 186.633L374.97 213.309L337.322 201.701C337.322 201.701 335.9 194.717 332.666 189.845C329.433 184.973 322.966 183.917 322.966 185.264C322.966 186.611 328.355 194.156 328.355 194.156C328.355 194.156 322.05 189.769 322.05 191.117C322.05 192.464 327.547 197.659 329.163 198.737C330.78 199.815 331.179 204.783 333.065 205.592C334.951 206.4 370.659 228.107 374.701 230.802C378.743 233.496 383.054 229.993 383.593 228.915C384.132 227.838 393.67 212.22 398.143 201.162C402.519 190.319 397.572 181.492 392.485 176.911C390.569 175.495 388.488 174.319 386.287 173.408" fill="#026BF9"/>
<path d="M385.252 180.586C386.988 179.778 391.816 177.924 394.069 178.528C393.692 178.107 393.304 177.708 392.916 177.342C389.682 177.342 385.037 179.498 384.8 179.605C384.735 179.634 384.678 179.676 384.63 179.728C384.582 179.779 384.544 179.84 384.52 179.907C384.496 179.973 384.486 180.043 384.489 180.114C384.493 180.184 384.51 180.253 384.541 180.317C384.602 180.445 384.71 180.544 384.843 180.594C384.975 180.645 385.122 180.642 385.252 180.586Z" fill="white"/>
<path d="M396.074 182.203C396.158 181.924 396.222 181.639 396.268 181.351C395.944 180.856 395.599 180.371 395.255 179.918C395.329 180.694 395.222 181.476 394.942 182.203H396.074Z" fill="white"/>
<path d="M379.454 196.128C381.007 196.49 382.472 197.157 383.765 198.09C383.822 198.131 383.887 198.16 383.955 198.176C384.024 198.192 384.095 198.193 384.164 198.181C384.233 198.169 384.3 198.144 384.359 198.106C384.418 198.068 384.469 198.018 384.509 197.96C384.55 197.902 384.58 197.837 384.595 197.768C384.611 197.698 384.613 197.626 384.601 197.556C384.589 197.486 384.564 197.419 384.525 197.359C384.487 197.299 384.438 197.247 384.379 197.206C382.925 196.152 381.265 195.418 379.508 195.05L379.454 196.128Z" fill="white"/>
<path d="M392.797 197.292C392.458 197.433 392.162 197.66 391.939 197.952C391.716 198.243 391.573 198.588 391.525 198.952C391.118 201.812 391.118 204.715 391.525 207.574C391.543 207.702 391.607 207.819 391.703 207.904C391.8 207.989 391.925 208.037 392.053 208.038H392.129C392.269 208.017 392.396 207.942 392.482 207.829C392.568 207.717 392.608 207.575 392.592 207.434C392.211 204.696 392.211 201.917 392.592 199.178C392.604 198.992 392.668 198.812 392.776 198.659C392.885 198.507 393.034 198.388 393.207 198.316C394.371 197.853 397.033 199.232 398.423 200.224H398.488C398.607 199.879 398.747 199.523 398.854 199.146C397.971 198.607 394.705 196.527 392.797 197.292Z" fill="white"/>
<path d="M392 187.118C391.929 187.195 391.884 187.29 391.868 187.393C391.852 187.496 391.867 187.601 391.911 187.696C391.954 187.79 392.025 187.87 392.114 187.924C392.202 187.978 392.305 188.005 392.409 188.002C392.485 188.004 392.561 187.989 392.631 187.958C392.7 187.926 392.761 187.878 392.808 187.818C394.216 186.157 395.311 184.254 396.041 182.203H394.91C394.217 183.99 393.234 185.651 392 187.118Z" fill="white"/>
<path d="M385.253 221.317C386.385 220.812 387.543 220.37 388.723 219.991L389.478 218.644C387.88 219.096 386.317 219.661 384.8 220.336C384.735 220.366 384.677 220.408 384.629 220.461C384.581 220.514 384.544 220.576 384.52 220.643C384.496 220.71 384.485 220.781 384.489 220.852C384.492 220.924 384.51 220.994 384.541 221.058C384.57 221.122 384.612 221.18 384.663 221.228C384.715 221.276 384.776 221.313 384.842 221.337C384.909 221.361 384.979 221.372 385.05 221.368C385.12 221.365 385.189 221.347 385.253 221.317Z" fill="white"/>
<path d="M377.298 205.915H377.384C377.525 205.891 377.65 205.814 377.735 205.699C377.819 205.584 377.856 205.441 377.837 205.3C377.837 205.3 377.611 203.673 377.546 201.679L376.749 205.279C376.749 205.365 376.749 205.441 376.749 205.451C376.767 205.583 376.833 205.703 376.935 205.788C377.036 205.874 377.166 205.919 377.298 205.915Z" fill="white"/>
<path d="M379.454 196.128V195.05H379.066L378.829 196.128C379.036 196.101 379.246 196.101 379.454 196.128Z" fill="white"/>
<path d="M350.784 207.564C350.802 207.692 350.865 207.809 350.962 207.894C351.059 207.979 351.183 208.026 351.312 208.027H351.431C351.572 208.009 351.7 207.935 351.787 207.821C351.874 207.708 351.913 207.565 351.894 207.424C351.894 207.424 351.819 206.917 351.754 206.152L350.676 205.807C350.676 206.799 350.773 207.489 350.784 207.564Z" fill="white"/>
<path d="M362.414 211.218C362.475 211.348 362.584 211.45 362.72 211.5C362.855 211.55 363.004 211.546 363.136 211.487C363.718 211.218 364.645 210.83 365.712 210.409L364.03 209.892C363.265 210.194 362.759 210.431 362.683 210.463C362.614 210.493 362.552 210.537 362.501 210.592C362.45 210.647 362.41 210.711 362.385 210.782C362.36 210.853 362.349 210.928 362.354 211.003C362.359 211.078 362.379 211.151 362.414 211.218Z" fill="white"/>
<path d="M370.282 218.913C370.36 218.913 370.438 218.896 370.508 218.863C370.579 218.829 370.642 218.78 370.691 218.719C372.137 217.035 373.252 215.094 373.979 212.996L372.955 212.684C372.276 214.642 371.23 216.453 369.872 218.019C369.825 218.071 369.789 218.133 369.767 218.2C369.744 218.266 369.735 218.337 369.74 218.407C369.745 218.478 369.764 218.546 369.796 218.609C369.828 218.672 369.872 218.728 369.926 218.773C370.022 218.864 370.15 218.914 370.282 218.913Z" fill="white"/>
<path d="M336.029 205.451C336.049 205.58 336.115 205.697 336.213 205.782C336.312 205.867 336.438 205.914 336.568 205.915H336.643C336.784 205.891 336.911 205.814 336.997 205.7C337.083 205.586 337.122 205.443 337.107 205.301C336.858 203.429 336.761 201.54 336.816 199.653C336.611 198.909 336.341 198.015 336.007 197.023C335.638 199.821 335.645 202.656 336.029 205.451Z" fill="white"/>
<path d="M324.011 185.673C324.093 185.557 324.127 185.413 324.104 185.272C324.082 185.131 324.006 185.005 323.893 184.919C323.835 184.878 323.769 184.848 323.7 184.832C323.631 184.816 323.559 184.814 323.489 184.826C323.418 184.838 323.351 184.864 323.291 184.902C323.231 184.94 323.179 184.99 323.138 185.048L322.966 185.296C323.044 185.742 323.205 186.17 323.44 186.557C323.656 186.202 323.86 185.889 324.011 185.673Z" fill="white"/>
<path d="M329.239 191.591C328.608 191.994 327.932 192.32 327.223 192.561L327.859 193.477C328.559 193.218 329.228 192.882 329.853 192.474C329.962 192.39 330.035 192.267 330.056 192.13C330.076 191.994 330.044 191.854 329.965 191.741C329.887 191.627 329.767 191.549 329.632 191.521C329.497 191.493 329.356 191.518 329.239 191.591Z" fill="white"/>
<path d="M322.847 192.625C323.171 193.056 323.569 193.52 324.011 194.005C324.283 194.039 324.557 194.057 324.83 194.059C325.74 194.054 326.643 193.901 327.503 193.606C327.169 193.38 326.749 193.099 326.286 192.819C325.144 193.085 323.951 193.018 322.847 192.625Z" fill="white"/>
<path d="M380.898 186.633L374.97 213.309L337.322 201.701C337.322 201.701 335.9 194.717 332.666 189.845C329.433 184.973 322.966 183.917 322.966 185.264C322.966 186.611 328.355 194.156 328.355 194.156C328.355 194.156 322.05 189.769 322.05 191.117C322.05 192.464 327.547 197.659 329.163 198.737C330.78 199.815 331.179 204.783 333.065 205.592C334.951 206.4 370.659 228.107 374.701 230.802C378.743 233.496 383.054 229.993 383.593 228.915C384.132 227.838 393.67 212.22 398.143 201.162C402.519 190.319 397.572 181.492 392.485 176.911C390.569 175.495 388.488 174.319 386.287 173.408" stroke="#263238" stroke-linecap="round" stroke-linejoin="round"/>
<path d="M367.911 211.325L337.322 201.701C337.322 201.701 335.9 194.716 332.666 189.845C329.433 184.973 322.966 183.917 322.966 185.264C322.966 186.611 328.355 194.156 328.355 194.156C328.355 194.156 322.05 189.769 322.05 191.116C322.05 192.464 327.547 197.659 329.163 198.737C330.78 199.814 331.179 204.783 333.065 205.591C334.348 206.141 352.606 216.553 363.815 223.753L367.911 211.325Z" fill="white" stroke="#263238" stroke-linecap="round" stroke-linejoin="round"/>
<path d="M322.405 184.596C322.405 184.596 317.167 185.21 317.609 186.277C318.051 187.344 322.405 186.547 322.675 186.547C322.944 186.547 324.626 186.547 325.068 186.988C325.509 187.43 328.301 192.043 328.301 192.043" fill="white"/>
<path d="M322.405 184.596C322.405 184.596 317.167 185.21 317.609 186.277C318.051 187.344 322.405 186.547 322.675 186.547C322.944 186.547 324.626 186.547 325.068 186.988C325.509 187.43 328.301 192.043 328.301 192.043" stroke="#263238" stroke-linecap="round" stroke-linejoin="round"/>
<path d="M331.912 188.907C331.912 188.907 328.355 185.005 326.932 184.208C325.51 183.41 321.964 184.025 321.166 184.65C320.368 185.275 321.964 185.728 322.675 185.534C323.648 185.403 324.634 185.403 325.607 185.534C325.962 185.62 329.336 190.858 329.336 190.858" fill="white"/>
<path d="M331.912 188.907C331.912 188.907 328.355 185.005 326.932 184.208C325.51 183.41 321.964 184.025 321.166 184.65C320.368 185.275 321.964 185.728 322.675 185.534C323.648 185.403 324.634 185.403 325.607 185.534C325.962 185.62 329.336 190.858 329.336 190.858" stroke="#263238" stroke-linecap="round" stroke-linejoin="round"/>
<path d="M334.035 192.475C333.206 190.564 332.226 188.722 331.103 186.967C330.026 185.631 325.068 185.814 324.809 186.256C324.55 186.698 327.644 187.236 328.441 187.409C329.239 187.581 330.489 190.254 330.748 191.052C331.006 191.85 331.825 193.445 331.825 193.445C331.937 194.951 331.969 196.462 331.922 197.971C331.825 200.289 333 202.854 333.96 203.565" fill="white"/>
<path d="M334.035 192.475C333.206 190.564 332.226 188.722 331.103 186.967C330.026 185.631 325.068 185.814 324.809 186.256C324.55 186.698 327.644 187.236 328.441 187.409C329.239 187.581 330.489 190.254 330.748 191.052C331.006 191.85 331.825 193.445 331.825 193.445C331.937 194.951 331.969 196.462 331.922 197.971C331.825 200.289 333 202.854 333.96 203.565" stroke="#263238" stroke-linecap="round" stroke-linejoin="round"/>
<path d="M315.92 170.609L305.968 172.925C304.988 173.153 304.379 174.132 304.607 175.112L310.181 199.068C310.409 200.047 311.388 200.657 312.368 200.429L322.32 198.113C323.3 197.885 323.909 196.906 323.681 195.926L318.106 171.97C317.878 170.991 316.899 170.381 315.92 170.609Z" fill="#263238" stroke="#263238" stroke-linecap="round" stroke-linejoin="round"/>
<path d="M317.846 216.272C317.846 216.272 310.302 202.563 309.827 201.183C309.353 199.804 305.322 181.783 305.15 179.53C304.977 177.277 304.449 174.507 305.495 175.219C306.54 175.93 309.472 187.172 309.472 187.172C309.472 187.172 310.862 183.884 311.897 181.632C312.931 179.379 315.195 176.092 315.54 176.954C315.885 177.816 315.022 179.724 314.85 180.597C314.678 181.47 312.425 188.217 312.425 188.217L312.252 191.332C312.252 191.332 315.022 187.872 316.057 186.654C317.092 185.436 320.562 183.539 320.368 184.747C320.174 185.954 317.426 187.172 317.426 188.045C317.426 188.918 314.128 193.757 314.128 193.757C314.128 193.757 318.116 189.597 318.989 188.907C319.862 188.217 321.414 187.7 320.368 189.252C319.323 190.804 316.736 194.447 316.736 194.447C316.736 194.447 317.814 198.952 317.814 199.836C317.594 200.725 317.178 201.554 316.596 202.261L322.987 210.657L317.846 216.272Z" fill="white" stroke="#263238" stroke-linecap="round" stroke-linejoin="round"/>
<g filter="url(#filter0_f)">
<ellipse cx="227.5" cy="396" rx="223.5" ry="9" fill="#C4C4C4" fill-opacity="0.4"/>
</g>
<path d="M27.7264 322.017C24.7133 320.131 21.3082 318.96 17.7723 318.594C16.1488 318.425 14.371 318.469 13.0634 319.454C12.9146 319.542 12.7915 319.668 12.7065 319.819C12.6214 319.969 12.5773 320.14 12.5785 320.313C12.6539 320.562 12.8188 320.774 13.0413 320.908C15.1565 322.415 17.6434 323.314 20.233 323.51C22.8225 323.705 25.4163 323.189 27.7337 322.017" fill="#A2C9FE"/>
<path d="M27.4693 321.738C25.1662 320.043 23.0154 318.15 21.0414 316.081C19.0636 313.995 17.6722 311.423 17.0083 308.625C16.8804 308.211 16.843 307.774 16.8988 307.345C16.9546 306.915 17.1021 306.502 17.3316 306.135C22.4739 310.131 26.4776 315.31 27.4693 321.738Z" fill="#A2C9FE"/>
<path d="M27.6749 321.981C27.1955 319.184 27.2354 316.322 27.7924 313.54C28.3615 310.736 29.9669 308.249 32.2883 306.576C33.1698 308.647 32.7878 311.027 32.1708 313.187C31.1985 316.534 29.6928 319.701 27.7116 322.568" fill="#A2C9FE"/>
<path d="M32.6924 330.98C29.6438 331.347 26.9918 332.956 24.7145 335.02C22.4237 337.103 20.8285 339.839 20.1451 342.859C23.1424 342.668 25.6768 340.559 27.4913 338.194C29.3058 335.828 30.6061 333.235 32.6337 331.024" fill="#A2C9FE"/>
<path d="M33.7869 332.42C32.5861 329.372 32.1648 326.072 32.5612 322.821C32.9575 319.569 34.1591 316.467 36.0569 313.797C37.798 319.975 37.1589 326.954 33.7869 332.42Z" fill="#A2C9FE"/>
<path d="M40.4206 340.317C37.6335 340.154 34.8593 340.805 32.4352 342.19C30.0181 343.585 28.0639 345.659 26.8154 348.155C26.6465 348.493 26.4922 348.89 26.7199 349.22C26.8376 349.335 26.9814 349.419 27.1389 349.465C27.2964 349.511 27.4627 349.518 27.6235 349.485C30.3049 349.316 32.685 347.7 34.6465 345.863C36.6079 344.027 38.3196 341.904 40.4793 340.31" fill="#A2C9FE"/>
<path d="M40.2076 339.891C38.7814 335.289 38.6948 330.376 39.9578 325.727C40.4574 323.905 41.2948 321.988 42.9771 321.136C43.0387 321.09 43.1107 321.06 43.1866 321.049C43.2625 321.037 43.3401 321.044 43.4126 321.07C43.485 321.095 43.5502 321.138 43.6023 321.194C43.6545 321.25 43.692 321.319 43.7117 321.393C44.2858 322.666 44.5381 324.061 44.4463 325.455C44.3471 326.842 44.1333 328.218 43.8072 329.569C43.2783 332.082 42.9991 334.778 41.6034 336.915C41.2776 337.437 40.9856 337.98 40.7292 338.539C40.4647 339.09 40.4647 339.274 40.2223 339.722" fill="#A2C9FE"/>
<path d="M57.7796 342.506C56.4793 337.555 57.8604 331.553 60.9752 327.498C61.2103 327.197 61.5115 326.881 61.8861 326.91C62.4591 326.962 62.6207 327.733 62.584 328.306C62.3481 333.397 60.683 338.318 57.7796 342.506Z" fill="#A2C9FE"/>
<path d="M59.3591 343.593C62.4335 344.314 65.6279 344.36 68.7214 343.725C71.815 343.091 74.7339 341.793 77.2765 339.92C74.2777 338.418 70.8524 337.998 67.5795 338.73C64.3398 339.465 61.3793 340.934 59.3591 343.571" fill="#A2C9FE"/>
<path d="M60.696 340.295C64.0679 334.8 70.5253 331.215 76.9605 330.892C76.2259 333.507 74.0661 335.542 71.6419 336.769C69.2176 337.995 66.4995 338.532 63.8329 339.053C62.7971 339.259 61.3719 339.479 60.696 340.295Z" fill="#A2C9FE"/>
<path d="M58.1102 324.295C59.1319 321.192 59.8286 317.991 60.1892 314.745C60.5402 311.492 59.8701 308.211 58.2718 305.356C55.1277 311.446 54.8118 318.579 57.9927 324.625" fill="#A2C9FE"/>
<path d="M68.7034 318.947C72.3765 312.254 79.8916 306.914 87.4876 306.164C84.5491 313.459 76.5711 319.101 68.7034 318.947Z" fill="#A2C9FE"/>
<path d="M66.3894 320.254C71.877 321.092 76.5565 324.596 81.6842 326.719C82.76 327.238 83.9529 327.466 85.1442 327.38C85.6968 327.372 86.2338 327.195 86.6827 326.873C87.1316 326.551 87.471 326.099 87.6551 325.578C87.8392 325.057 87.8592 324.492 87.7123 323.959C87.5655 323.426 87.2589 322.951 86.8339 322.598C86.1062 321.927 85.2521 321.407 84.3215 321.07C78.7384 318.748 72.7512 318.69 66.8669 320.1" fill="#A2C9FE"/>
<path d="M63.2158 324.104C64.4573 324.456 64.8834 325.103 65.8678 325.94C69.2215 328.792 73.1887 330.831 77.4601 331.898C77.9082 332.008 78.4885 332.052 78.7089 331.648C78.9293 331.244 78.6575 330.914 78.4077 330.568C76.5456 328.381 74.1265 326.739 71.4068 325.815C68.7255 324.816 66.4114 323.611 63.2158 323.876" fill="#A2C9FE"/>
<path d="M59.6309 300.853C61.8805 302.928 64.5393 304.51 67.4364 305.497C70.3335 306.484 73.405 306.854 76.4536 306.583C76.7358 306.585 77.0094 306.486 77.225 306.304C77.6437 305.841 77.1368 305.136 76.6446 304.747C71.7006 300.89 65.7062 299.296 59.6309 300.853Z" fill="#A2C9FE"/>
<path d="M63.8844 299.303C66.8615 297.111 70.3148 295.654 73.9624 295.052C77.61 294.449 81.3485 294.718 84.8724 295.836C82.1318 298.39 78.6086 299.943 74.8743 300.243C71.1753 300.583 67.4454 300.27 63.855 299.318" fill="#A2C9FE"/>
<path d="M62.1947 288.622C61.7098 283.678 62.0184 279.806 61.6805 274.825C61.6805 274.429 61.5629 273.951 61.1956 273.804C60.6814 273.606 60.2479 274.245 60.079 274.767C59.3595 277.067 59.1754 279.501 59.5408 281.883C59.9062 284.266 60.8115 286.533 62.1873 288.511" fill="#A2C9FE"/>
<path d="M61.8347 289.165C65.0635 287.083 67.8475 284.382 70.0257 281.217C71.6419 279.013 73.0009 276.354 72.6336 273.643C71.4995 273.677 70.3865 273.958 69.3717 274.465C68.3569 274.973 67.4646 275.695 66.7566 276.581C65.3472 278.371 64.3219 280.431 63.7447 282.635C63.0909 284.802 62.6355 287.042 61.8641 289.173" fill="#A2C9FE"/>
<path d="M69.8714 286.932C77.2343 284.205 84.0509 280.185 90 275.061C87.5978 274.091 84.8576 274.671 82.4407 275.641C76.9828 277.709 72.4737 281.709 69.7686 286.881" fill="#A2C9FE"/>
<path d="M64.0974 291.869C67.8021 292.396 71.5616 292.413 75.271 291.92C78.9 291.31 82.3233 289.878 85.7099 288.453C86.0148 288.375 86.278 288.183 86.4445 287.916C86.4984 287.759 86.5027 287.588 86.4567 287.428C86.4107 287.268 86.3167 287.125 86.1874 287.02C85.9264 286.815 85.6226 286.672 85.2985 286.601C81.6254 285.573 77.6511 286.058 74.0221 287.277C70.5716 288.456 67.2549 289.995 64.1268 291.869" fill="#A2C9FE"/>
<path d="M42.8816 301.022C40.3472 295.88 40.5088 289.937 42.698 284.662C44.2407 287.013 44.4317 290.003 44.1672 292.794C43.9027 295.586 43.0359 298.473 42.9845 301.279" fill="#A2C9FE"/>
<path d="M32.7512 295.916C29.5785 295.877 26.4324 296.498 23.5133 297.742C20.5941 298.985 17.9659 300.823 15.7961 303.138C18.9942 303.524 22.2338 302.924 25.0817 301.419C27.9076 299.918 30.5733 298.133 33.0376 296.093" fill="#A2C9FE"/>
<path d="M25.9486 293.639C22.8558 293.39 19.8733 293.008 16.8981 293.918C15.3928 294.343 13.9972 295.089 12.8066 296.103C11.616 297.117 10.6587 298.377 10 299.795C12.9209 300.035 15.8522 299.481 18.4848 298.194C21.1043 296.903 23.6023 295.378 25.9486 293.639Z" fill="#A2C9FE"/>
<path d="M36.0275 293.742C33.2433 291.92 30.3783 290.069 27.1387 289.334C23.899 288.6 20.1377 289.136 17.8751 291.582C20.4977 293.125 23.6859 293.301 26.7273 293.301C29.7686 293.301 33.5005 293.265 36.3728 294.278" fill="#A2C9FE"/>
<path d="M36.0423 293.889C31.282 289.217 29.4748 280.813 31.3922 274.421C35.1479 280.177 36.7913 287.057 36.0423 293.889Z" fill="#A2C9FE"/>
<path d="M49.1332 280.666C50.0368 278.579 50.6685 276.383 51.4693 274.26C52.209 272.112 53.3398 270.119 54.8044 268.383C56.2917 266.639 58.3996 265.543 60.6814 265.327C59.9548 268.554 58.5613 271.594 56.5902 274.251C54.6191 276.908 52.1141 279.123 49.236 280.754" fill="#A2C9FE"/>
<path d="M46.7677 283.406C45.2984 281.356 43.5647 278.579 41.5445 277.051C39.5243 275.523 36.9091 274.605 34.4481 275.185C35.7226 277.418 37.4993 279.323 39.6376 280.75C41.7759 282.177 44.217 283.086 46.7677 283.406Z" fill="#A2C9FE"/>
<path d="M47.2526 280.813C46.1872 278.372 45.4011 275.819 44.9091 273.202C44.4194 270.563 44.839 267.836 46.0992 265.466C48.7145 270.41 49.5519 275.714 47.3848 280.893" fill="#A2C9FE"/>
<path d="M49.1625 265.466C50.6317 260.574 55.1276 256.967 59.9687 255.306C60.5687 255.062 61.219 254.966 61.864 255.027C62.1855 255.061 62.4898 255.189 62.7384 255.396C62.9869 255.602 63.1684 255.878 63.2598 256.188C63.4361 257.025 62.7456 257.767 62.0991 258.326C58.3162 261.559 53.9146 263.989 49.1625 265.466Z" fill="#A2C9FE"/>
<path d="M49.2139 261.463C49.4049 258.304 49.5959 255.101 50.6244 252.111C51.6528 249.121 53.6363 246.308 56.5013 245C56.9862 248.188 55.583 251.362 53.8861 254.109C52.1891 256.857 50.1395 259.443 49.1184 262.506" fill="#A2C9FE"/>
<path d="M49.1332 263.637C47.9137 260.067 47.7888 255.556 45.6511 252.42C44.1818 250.253 41.7576 248.747 40.472 246.462C39.6953 248.672 39.8032 251.096 40.7732 253.228C41.7454 255.335 43.0835 257.252 44.7254 258.892C46.3122 260.581 47.6639 261.83 49.1332 263.637Z" fill="#A2C9FE"/>
<path d="M49.1627 368.769C49.0672 368.769 48.979 344.952 48.979 315.582C48.979 286.212 49.0378 262.396 49.1333 262.396C49.2288 262.396 49.3169 286.205 49.3169 315.582C49.3169 344.96 49.2582 368.769 49.1627 368.769Z" fill="#263238"/>
<path d="M69.9744 297.43C69.6852 297.566 69.3855 297.679 69.0781 297.768L66.6098 298.598C64.5309 299.332 61.6805 300.331 58.5805 301.602C55.4804 302.873 52.6227 303.982 50.9771 305.415C50.3178 305.961 49.7947 306.652 49.4491 307.435C49.2067 307.994 49.17 308.339 49.1332 308.331C49.1203 308.249 49.1203 308.164 49.1332 308.082C49.1655 307.843 49.2246 307.609 49.3095 307.384C49.6107 306.554 50.116 305.814 50.7788 305.231C51.7709 304.389 52.8825 303.698 54.0772 303.182C55.3996 302.565 56.8614 301.918 58.4115 301.279C61.5189 300.008 64.3986 299.016 66.4923 298.341C67.5428 298.01 68.4023 297.768 68.99 297.606C69.3116 297.515 69.6413 297.456 69.9744 297.43Z" fill="#263238"/>
<path d="M76.7916 280.666C76.7916 280.666 76.7108 280.768 76.5418 280.937L75.8072 281.672L72.9643 284.25L63.4142 292.706C59.7411 296.004 56.5014 299.156 54.2829 301.521C53.1736 302.704 52.2994 303.688 51.7044 304.372L51.0138 305.158C50.9365 305.254 50.8504 305.342 50.7567 305.422C50.7567 305.422 50.8155 305.305 50.9551 305.114C51.0947 304.923 51.3077 304.636 51.6015 304.284C52.1672 303.549 53.012 302.565 54.1066 301.345C56.9774 298.21 60.0133 295.231 63.2012 292.419C66.9183 289.128 70.3049 286.175 72.7512 284.037L75.6897 281.532L76.4978 280.864C76.5874 280.786 76.686 280.72 76.7916 280.666Z" fill="#263238"/>
<path d="M59.4252 296.093C59.3297 296.049 60.1084 294.264 60.8944 292.001C61.6805 289.738 62.0331 287.828 62.136 287.85C62.0521 289.31 61.7423 290.747 61.2177 292.111C60.8859 293.084 60.5008 294.038 60.0643 294.969C59.9077 295.373 59.6923 295.752 59.4252 296.093Z" fill="#263238"/>
<path d="M49.1845 310.476C48.9679 310.28 48.7755 310.058 48.6115 309.815L47.1423 307.935C45.9081 306.348 44.2038 304.159 42.3085 301.756C40.4132 299.354 38.6354 297.202 37.3866 295.644L35.9173 293.793C35.7173 293.57 35.5446 293.323 35.4031 293.059C35.6275 293.245 35.834 293.451 36.0202 293.676C36.4022 294.094 36.9384 294.697 37.5996 295.461C38.9145 296.974 40.6997 299.134 42.6097 301.514C44.5197 303.894 46.1873 306.135 47.3627 307.758C47.9577 308.574 48.4205 309.228 48.7438 309.705C48.9154 309.947 49.0631 310.206 49.1845 310.476Z" fill="#263238"/>
<path d="M44.6153 304.622C43.6987 303.598 43.0434 302.368 42.7053 301.037C42.346 299.87 42.1992 298.648 42.2718 297.43H42.4261C42.36 297.702 42.3086 297.848 42.2792 297.848C42.2498 297.848 42.2792 297.687 42.2792 297.408H42.4335C42.5114 298.597 42.7158 299.774 43.0432 300.919C43.4761 302.19 44.0016 303.428 44.6153 304.622Z" fill="#263238"/>
<path d="M38.731 297.209C38.3203 296.894 37.871 296.632 37.394 296.431C36.1916 296.074 34.9278 295.974 33.6842 296.137C32.4262 296.238 31.1783 296.44 29.9524 296.739C29.4509 296.901 28.9375 297.024 28.417 297.107C28.8767 296.839 29.3711 296.636 29.8862 296.504C31.1108 296.118 32.375 295.872 33.6548 295.77C34.9433 295.6 36.2537 295.744 37.4749 296.188C37.9988 296.374 38.4426 296.734 38.731 297.209Z" fill="#263238"/>
<path d="M37.3278 295.41C37.3278 295.468 36.5564 295.101 35.2855 294.675C31.9797 293.544 28.4402 293.273 25.0009 293.889C23.6859 294.124 22.8852 294.374 22.8705 294.315C23.0388 294.211 23.2222 294.134 23.4141 294.087C23.9182 293.909 24.4336 293.764 24.9568 293.654C28.4362 292.884 32.0655 293.16 35.3884 294.447C35.8912 294.637 36.3818 294.858 36.8576 295.108C37.1662 295.285 37.3425 295.358 37.3278 295.41Z" fill="#263238"/>
<path d="M49.1332 287.821C48.5382 286.124 48.0476 284.392 47.664 282.634C47.1671 280.908 46.7818 279.151 46.5106 277.375C47.1063 279.069 47.597 280.799 47.9799 282.554C48.478 284.282 48.8633 286.042 49.1332 287.821Z" fill="#263238"/>
<path d="M49.2286 287.821C48.7537 286.746 48.2013 285.708 47.5758 284.713C46.8771 283.777 46.0597 282.934 45.1442 282.208C45.4923 282.291 45.8151 282.458 46.0845 282.693C46.7764 283.195 47.3777 283.811 47.8622 284.515C48.6032 285.476 49.0749 286.617 49.2286 287.821Z" fill="#263238"/>
<path d="M49.1626 356.074C49.1258 356.074 49.0524 355.501 48.7879 354.488C48.3886 353.066 47.8549 351.686 47.1938 350.366C44.8995 346.058 42.0628 342.061 38.753 338.473C36.865 336.313 35.0358 334.286 33.4858 332.339C32.0907 330.63 30.8307 328.815 29.7172 326.91C28.9723 325.621 28.3359 324.272 27.8145 322.877C27.6382 322.377 27.5133 321.995 27.4399 321.724C27.3949 321.59 27.363 321.452 27.3444 321.312C27.3444 321.312 27.5501 321.856 27.9394 322.826C28.5042 324.193 29.1696 325.516 29.9302 326.785C31.0656 328.659 32.3349 330.449 33.7282 332.141C35.2856 334.065 37.1221 336.085 39.0101 338.245C42.8228 342.521 45.8127 346.84 47.4142 350.256C48.0512 351.601 48.5437 353.01 48.8834 354.458C48.9936 354.973 49.0671 355.377 49.0964 355.648C49.1319 355.788 49.154 355.931 49.1626 356.074Z" fill="#263238"/>
<path d="M67.9687 334.829C67.6497 335.035 67.3185 335.221 66.977 335.387C66.0841 335.886 65.2296 336.451 64.4205 337.077C63.2229 338.019 62.1005 339.053 61.0633 340.17C59.8879 341.419 58.6758 342.866 57.4343 344.416C54.9586 347.523 52.6446 350.293 51.2562 352.497C50.6953 353.354 50.178 354.239 49.7061 355.149C49.3608 355.788 49.1845 356.148 49.1625 356.14C49.1405 356.133 49.1625 356.038 49.2506 355.861C49.3388 355.685 49.427 355.413 49.5812 355.083C50.0169 354.148 50.5075 353.241 51.0505 352.364C52.932 349.536 54.9752 346.818 57.1698 344.225C58.4113 342.675 59.6382 341.228 60.8429 339.986C61.9045 338.878 63.057 337.861 64.2883 336.945C65.1203 336.333 66.0025 335.792 66.9256 335.329C67.2488 335.167 67.5206 335.064 67.6969 334.991C67.7788 334.923 67.8704 334.869 67.9687 334.829Z" fill="#263238"/>
<path d="M68.3361 341.72C67.649 341.872 66.9516 341.972 66.2498 342.021C64.5778 342.195 62.9253 342.522 61.3131 342.998C59.724 343.519 58.2339 344.304 56.9054 345.32C55.8916 346.106 55.4362 346.789 55.3627 346.723C55.2893 346.657 55.4435 346.532 55.6712 346.238C55.9967 345.836 56.3582 345.465 56.7511 345.129C58.0691 344.035 59.5821 343.2 61.2103 342.668C62.8469 342.185 64.5323 341.887 66.2351 341.779C66.9324 341.699 67.6354 341.679 68.3361 341.72Z" fill="#263238"/>
<path d="M55.9431 345.966C55.8403 345.9 56.7732 344.497 57.5079 342.543C58.2425 340.589 58.3453 338.87 58.4702 338.87C58.5348 339.239 58.5348 339.617 58.4702 339.986C58.3687 340.885 58.1666 341.77 57.8678 342.624C57.5483 343.467 57.1421 344.274 56.6557 345.033C56.4773 345.385 56.2357 345.701 55.9431 345.966Z" fill="#263238"/>
<path d="M74.0589 316.332C73.9528 316.402 73.8395 316.461 73.721 316.508L72.7439 316.956C72.3178 317.14 71.7962 317.367 71.2086 317.691C70.6209 318.014 69.9303 318.3 69.2177 318.734L68.0791 319.38C67.6897 319.608 67.3004 319.872 66.8817 320.115C66.0442 320.622 65.2067 321.246 64.3105 321.885C60.4712 324.753 57.1242 328.227 54.4005 332.17C53.7908 333.088 53.1957 333.948 52.7182 334.8C52.4684 335.226 52.2187 335.623 51.9836 336.027L51.3738 337.18C50.9698 337.915 50.676 338.613 50.3968 339.208C50.1177 339.803 49.8899 340.332 49.721 340.765C49.552 341.198 49.4198 341.5 49.3096 341.764C49.2648 341.881 49.2108 341.994 49.1479 342.102C49.1621 341.976 49.1942 341.852 49.2435 341.735C49.3365 341.47 49.4541 341.132 49.5961 340.721C49.7503 340.273 49.9487 339.737 50.2205 339.134C50.4923 338.532 50.7641 337.812 51.1535 337.077L51.7485 335.902C51.9542 335.49 52.204 335.086 52.4831 334.66C52.9533 333.793 53.5483 332.919 54.1507 331.986C56.8724 327.996 60.2534 324.498 64.1489 321.643C65.0598 321.011 65.912 320.387 66.7568 319.887C67.1828 319.63 67.5722 319.366 67.9762 319.152L69.1296 318.521C69.8642 318.102 70.5548 317.786 71.1571 317.514C71.6663 317.261 72.1887 317.036 72.7219 316.838L73.7283 316.449C73.833 316.396 73.9441 316.356 74.0589 316.332Z" fill="#263238"/>
<path d="M59.1754 326.3C59.3097 325.819 59.5957 325.394 59.9908 325.088C60.9056 324.288 62.0742 323.838 63.2893 323.817C64.479 323.813 65.6577 324.045 66.7567 324.5C67.2239 324.645 67.6671 324.858 68.0716 325.132C67.5947 325.042 67.1273 324.907 66.6759 324.728C65.5879 324.356 64.4464 324.165 63.2966 324.162C62.1574 324.189 61.0563 324.578 60.1524 325.272C59.8007 325.589 59.474 325.933 59.1754 326.3Z" fill="#263238"/>
<path d="M56.9496 328.599C57.3889 327.627 57.7025 326.603 57.8825 325.551C57.9461 324.486 57.877 323.418 57.6769 322.37C57.8723 322.632 58.0032 322.937 58.0588 323.259C58.4677 324.791 58.2786 326.422 57.5299 327.821C57.2361 328.35 56.979 328.621 56.9496 328.599Z" fill="#263238"/>
<path d="M32.7145 359.483C33.2287 368.585 35.9688 377.848 40.1856 387.2H58.551C62.5767 377.937 65.1259 368.695 65.5813 359.483H32.7145Z" fill="#707070"/>
<path d="M62.584 374.212C62.584 374.308 56.5454 374.381 49.0964 374.381C41.6473 374.381 35.6088 374.308 35.6088 374.212C35.6088 374.117 41.6473 374.036 49.0964 374.036C56.5454 374.036 62.584 374.117 62.584 374.212Z" fill="#FAFAFA"/>
<path d="M62.18 377.511C62.18 377.606 56.5161 377.68 49.5299 377.68C42.5436 377.68 36.8871 377.606 36.8871 377.511C36.8871 377.415 42.5436 377.334 49.5299 377.334C56.5161 377.334 62.18 377.415 62.18 377.511Z" fill="#FAFAFA"/>
<defs>
<filter id="filter0_f" x="0" y="383" width="455" height="26" filterUnits="userSpaceOnUse" color-interpolation-filters="sRGB">
<feFlood flood-opacity="0" result="BackgroundImageFix"/>
<feBlend mode="normal" in="SourceGraphic" in2="BackgroundImageFix" result="shape"/>
<feGaussianBlur stdDeviation="2" result="effect1_foregroundBlur"/>
</filter>
</defs>
</svg>
