<svg width="94" height="84" viewBox="0 0 94 84" fill="none" xmlns="http://www.w3.org/2000/svg">
<path d="M85.1875 42H70.5V30C70.5 23.3813 75.7691 18 82.25 18H83.7188C86.1605 18 88.125 15.9937 88.125 13.5V4.5C88.125 2.00625 86.1605 0 83.7188 0H82.25C66.0203 0 52.875 13.425 52.875 30V75C52.875 79.9688 56.8223 84 61.6875 84H85.1875C90.0527 84 94 79.9688 94 75V51C94 46.0312 90.0527 42 85.1875 42ZM32.3125 42H17.625V30C17.625 23.3813 22.8941 18 29.375 18H30.8438C33.2855 18 35.25 15.9937 35.25 13.5V4.5C35.25 2.00625 33.2855 0 30.8438 0H29.375C13.1453 0 0 13.425 0 30V75C0 79.9688 3.94727 84 8.8125 84H32.3125C37.1777 84 41.125 79.9688 41.125 75V51C41.125 46.0312 37.1777 42 32.3125 42Z" fill="white" fill-opacity="0.11"/>
</svg>
