<svg width="19" height="19" viewBox="0 0 19 19" fill="none" xmlns="http://www.w3.org/2000/svg">
<path d="M18.0874 18.3098C18.0421 18.5061 17.9315 18.6812 17.7738 18.8066C17.6161 18.9319 17.4205 19.0001 17.219 19C7.71517 19 0 11.2997 0 1.78094L13.2628 11.9009C13.3848 11.7513 13.5521 11.6455 13.7395 11.5994C13.9269 11.5532 14.1243 11.5691 14.3018 11.6448M18.0874 18.3098L18.9781 14.4503M18.0874 18.3098L17.6002 18.1973M18.0874 18.3098L5.11142 0.736896M18.9781 14.4503C19.024 14.2458 18.9973 14.0316 18.9024 13.8447C18.8075 13.6577 18.6504 13.5097 18.4582 13.4261M18.9781 14.4503L18.4902 14.3407M18.9781 14.4503L18.4909 14.3379L18.4905 14.3396C18.5106 14.2488 18.4986 14.1539 18.4565 14.071C18.4144 13.9881 18.3449 13.9224 18.2598 13.885L18.2612 13.8856L18.4582 13.4261M18.4582 13.4261L14.3018 11.6448M18.4582 13.4261L18.2587 13.8846L14.1058 12.1048M14.3018 11.6448L14.1058 12.1048M14.3018 11.6448L14.1049 12.1044L14.1053 12.1045C14.0276 12.0715 13.9412 12.0646 13.8592 12.0848C13.777 12.1051 13.7036 12.1515 13.6501 12.2171L13.6497 12.2175L11.809 14.4664L11.5618 14.7684L11.2089 14.602C8.21512 13.1904 5.80584 10.7812 4.39432 7.78742L4.22789 7.43444L4.52988 7.18727L6.77875 5.34661L6.77994 5.34563C6.84544 5.29237 6.8918 5.21921 6.912 5.13724C6.93219 5.05529 6.92514 4.969 6.89192 4.89141L7.3515 4.69445M14.1058 12.1048L4.84657 7.57419L7.09544 5.73353C7.24524 5.61169 7.35127 5.44436 7.39747 5.25687C7.44368 5.06939 7.42754 4.87195 7.3515 4.69445M14.1058 12.1048L18.4902 14.3407M7.3515 4.69445L6.8919 4.89135M7.3515 4.69445L5.57021 0.53813C5.48676 0.346794 5.33916 0.190574 5.15286 0.0964089L6.8919 4.89135M6.8919 4.89135L5.11142 0.736896M6.8919 4.89135L5.11142 0.736896M5.11142 0.736896C5.07442 0.65278 5.00934 0.584111 4.9273 0.542645C4.84509 0.50109 4.75099 0.489454 4.66114 0.509722C4.66093 0.509769 4.66072 0.509817 4.66051 0.509865L0.802746 1.40012C0.802723 1.40013 0.8027 1.40013 0.802676 1.40014C0.716628 1.42002 0.639858 1.46848 0.584889 1.53761C0.529904 1.60675 0.49998 1.69249 0.5 1.78083L0.5 1.78094C0.5 11.0232 7.99103 18.5 17.219 18.5H17.2194C17.3077 18.5001 17.3935 18.4701 17.4627 18.4152C17.5319 18.3602 17.5803 18.2834 17.6002 18.1973C17.6002 18.1973 17.6002 18.1973 17.6002 18.1973M17.6002 18.1973L18.4902 14.3407M17.6002 18.1973L18.4902 14.3407" fill="white" stroke="#757575"/>
</svg>
