<svg width="19" height="24" viewBox="0 0 19 24" fill="none" xmlns="http://www.w3.org/2000/svg">
<path d="M9.49999 -7.62939e-06C4.61133 -7.62939e-06 0.634277 3.97705 0.634277 8.8657C0.634277 10.4751 1.35605 12.206 1.3863 12.279C1.61941 12.8323 2.07939 13.6918 2.41107 14.1956L8.48982 23.406C8.73858 23.7836 9.10677 24 9.49999 24C9.89321 24 10.2614 23.7836 10.5102 23.4065L16.5894 14.1956C16.9216 13.6918 17.3811 12.8323 17.6142 12.279C17.6444 12.2065 18.3657 10.4756 18.3657 8.8657C18.3657 3.97705 14.3886 -7.62939e-06 9.49999 -7.62939e-06ZM16.6525 11.8743C16.4444 12.3703 16.0163 13.1697 15.7185 13.6214L9.63923 22.8323C9.51928 23.0143 9.48121 23.0143 9.36127 22.8323L3.282 13.6214C2.98421 13.1697 2.55605 12.3697 2.34797 11.8738C2.3391 11.8524 1.6773 10.2592 1.6773 8.8657C1.6773 4.55227 5.18656 1.04302 9.49999 1.04302C13.8134 1.04302 17.3227 4.55227 17.3227 8.8657C17.3227 10.2613 16.6593 11.8587 16.6525 11.8743Z" fill="#FF4600"/>
<path d="M9.50001 4.17262C6.91174 4.17262 4.8064 6.27848 4.8064 8.86623C4.8064 11.454 6.91174 13.5598 9.50001 13.5598C12.0883 13.5598 14.1936 11.454 14.1936 8.86623C14.1936 6.27848 12.0883 4.17262 9.50001 4.17262ZM9.50001 12.5168C7.48749 12.5168 5.84942 10.8793 5.84942 8.86623C5.84942 6.85319 7.48749 5.21564 9.50001 5.21564C11.5125 5.21564 13.1506 6.85319 13.1506 8.86623C13.1506 10.8793 11.5125 12.5168 9.50001 12.5168Z" fill="#FF4600"/>
</svg>
