<svg width="51" height="50" viewBox="0 0 51 50" fill="none" xmlns="http://www.w3.org/2000/svg">
<rect x="0.5" width="50" height="50" rx="4" fill="#323232"/>
<g clip-path="url(#clip0_485_11999)">
<path d="M39.9276 17.6252C39.755 16.9873 39.4182 16.4057 38.9509 15.9385C38.4837 15.4712 37.9021 15.1345 37.2642 14.962C34.9288 14.3252 25.5305 14.3252 25.5305 14.3252C25.5305 14.3252 16.1319 14.3445 13.7969 14.9813C13.159 15.1539 12.5775 15.4906 12.1102 15.9579C11.643 16.4251 11.3063 17.0066 11.1337 17.6445C10.4273 21.7939 10.1532 28.1161 11.153 32.0993C11.3256 32.7372 11.6623 33.3187 12.1296 33.7859C12.5968 34.2532 13.1783 34.5899 13.8162 34.7625C16.1514 35.3993 25.5499 35.3993 25.5499 35.3993C25.5499 35.3993 34.9483 35.3993 37.2835 34.7625C37.9214 34.5899 38.5029 34.2532 38.9702 33.7859C39.4374 33.3187 39.7741 32.7372 39.9467 32.0993C40.6916 27.9442 40.9213 21.6258 39.9274 17.6253" fill="#FF0000"/>
<path d="M22.5393 29.3781L30.336 24.8623L22.5393 20.3463V29.3781Z" fill="white"/>
</g>
<defs>
<clipPath id="clip0_485_11999">
<rect width="30" height="21.3497" fill="white" transform="translate(10.5 14.3252)"/>
</clipPath>
</defs>
</svg>
