<svg width="24" height="24" viewBox="0 0 24 24" fill="none" xmlns="http://www.w3.org/2000/svg">
<g clip-path="url(#clip0_1124_17097)">
<path d="M12 24C18.6274 24 24 18.6274 24 12C24 5.37258 18.6274 0 12 0C5.37258 0 0 5.37258 0 12C0 18.6274 5.37258 24 12 24Z" fill="#29A71A"/>
<path d="M17.2915 6.70908C16.043 5.44812 14.385 4.67482 12.6166 4.52866C10.8481 4.38249 9.08567 4.87309 7.64708 5.91195C6.2085 6.95082 5.18851 8.46957 4.77109 10.1942C4.35366 11.9189 4.56629 13.736 5.37062 15.3177L4.58107 19.1509C4.57288 19.189 4.57265 19.2285 4.58039 19.2667C4.58813 19.305 4.60368 19.3412 4.62607 19.3732C4.65887 19.4217 4.70568 19.459 4.76026 19.4802C4.81484 19.5014 4.87459 19.5055 4.93152 19.4918L8.68834 18.6014C10.2656 19.3853 12.0699 19.5843 13.78 19.1628C15.4902 18.7414 16.9954 17.7268 18.0278 16.2998C19.0602 14.8727 19.5528 13.1256 19.418 11.3694C19.2832 9.61324 18.5296 7.96184 17.2915 6.70908ZM16.1202 16.0582C15.2563 16.9196 14.144 17.4882 12.9398 17.6839C11.7357 17.8796 10.5005 17.6926 9.40834 17.1491L8.88471 16.89L6.58152 17.4354L6.58834 17.4068L7.06562 15.0886L6.80925 14.5827C6.2512 13.4867 6.05434 12.2422 6.24687 11.0275C6.4394 9.81278 7.01145 8.69015 7.88107 7.82044C8.97376 6.72809 10.4556 6.11444 12.0006 6.11444C13.5457 6.11444 15.0275 6.72809 16.1202 7.82044C16.1295 7.83111 16.1395 7.84114 16.1502 7.85044C17.2293 8.94561 17.8317 10.423 17.8261 11.9605C17.8205 13.498 17.2073 14.9709 16.1202 16.0582Z" fill="white"/>
<path d="M15.9156 14.3578C15.6334 14.8023 15.1875 15.3464 14.627 15.4814C13.6452 15.7187 12.1384 15.4896 10.2634 13.7414L10.2402 13.7209C8.59155 12.1923 8.16337 10.92 8.267 9.91095C8.32428 9.33822 8.80155 8.82004 9.20382 8.48186C9.26742 8.42758 9.34284 8.38893 9.42404 8.36901C9.50525 8.34909 9.58999 8.34844 9.67149 8.36713C9.75298 8.38581 9.82898 8.42331 9.8934 8.47662C9.95781 8.52992 10.0089 8.59756 10.0425 8.67413L10.6493 10.0378C10.6887 10.1262 10.7033 10.2237 10.6916 10.3198C10.6798 10.4159 10.6421 10.5069 10.5825 10.5832L10.2756 10.9814C10.2098 11.0636 10.1701 11.1637 10.1616 11.2686C10.1531 11.3736 10.1762 11.4787 10.2279 11.5705C10.3997 11.8719 10.8116 12.315 11.2684 12.7255C11.7811 13.1891 12.3497 13.6132 12.7097 13.7578C12.8061 13.7971 12.912 13.8067 13.0138 13.7853C13.1156 13.7639 13.2087 13.7125 13.2811 13.6378L13.637 13.2791C13.7057 13.2114 13.7911 13.1631 13.8845 13.1392C13.9779 13.1152 14.076 13.1164 14.1688 13.1428L15.6102 13.5519C15.6897 13.5762 15.7626 13.6185 15.8233 13.6754C15.8839 13.7322 15.9308 13.8022 15.9603 13.88C15.9897 13.9578 16.001 14.0413 15.9933 14.1241C15.9856 14.2069 15.959 14.2868 15.9156 14.3578Z" fill="white"/>
</g>
<defs>
<clipPath id="clip0_1124_17097">
<rect width="24" height="24" fill="white"/>
</clipPath>
</defs>
</svg>
