<svg width="18" height="19" viewBox="0 0 18 19" fill="none" xmlns="http://www.w3.org/2000/svg">
<g clip-path="url(#clip0_83_1275)">
<path d="M18.0005 9.79495C18.0005 8.57545 17.465 7.42495 16.5568 6.70195C16.6618 5.48545 16.2268 4.2937 15.3643 3.43045C14.5018 2.5687 13.313 2.13445 12.1565 2.2642C10.646 0.347196 7.38278 0.311196 5.90753 2.23795C4.68953 2.12995 3.49928 2.5672 2.63678 3.43045C1.77503 4.29295 1.34003 5.48545 1.47053 6.6382C-0.446466 8.1487 -0.483216 11.4119 1.44428 12.8879C1.33928 14.1044 1.77428 15.2962 2.63678 16.1594C3.49928 17.0212 4.68953 17.4569 5.84453 17.3257C7.35503 19.2427 10.6183 19.2787 12.0935 17.3519C13.3085 17.4539 14.501 17.0227 15.3643 16.1594C16.226 15.2969 16.661 14.1044 16.5305 12.9517C17.465 12.1657 18.0005 11.0152 18.0005 9.7957V9.79495ZM13.1555 8.71945L9.60128 12.1454C8.72903 13.0162 7.30178 13.0087 6.42953 12.1357L4.74053 10.5667C4.43753 10.2847 4.41953 9.80995 4.70153 9.50695C4.98428 9.2032 5.45978 9.1867 5.76128 9.46795L7.46978 11.0557C7.78328 11.3684 8.25729 11.3677 8.54978 11.0744L12.1138 7.6387C12.4123 7.3522 12.887 7.36045 13.1743 7.6582C13.4623 7.95595 13.4533 8.43145 13.1555 8.7187V8.71945Z" fill="#6BB531"/>
</g>
<defs>
<clipPath id="clip0_83_1275">
<rect width="18" height="18" fill="white" transform="translate(0 0.794922)"/>
</clipPath>
</defs>
</svg>
