<svg width="106" height="18" viewBox="0 0 106 18" fill="none" xmlns="http://www.w3.org/2000/svg">
<g clip-path="url(#clip0_83_1067)">
<path d="M23.45 5.91153L16.1333 13.0745L14.4908 17.6248L11.6836 16.1784L13.3261 11.6281L12.887 1.30176L15.8491 1.9954L16.2418 8.83967L20.298 4.28756L23.45 5.91153Z" fill="white"/>
<path d="M11.3699 2.32688V17.3212H8.31274V11.1483H3.55716V17.3212H0.5V2.32688H3.55716V8.20072H8.31274V2.32688H11.3699Z" fill="white"/>
<path d="M28.667 2.32688C29.99 2.32688 31.1461 2.64015 32.1353 3.26669C33.1246 3.89323 33.8874 4.77609 34.4237 5.91526C34.972 7.04019 35.2461 8.34311 35.2461 9.82403C35.2461 11.2907 34.972 12.5936 34.4237 13.7328C33.8874 14.872 33.1186 15.7548 32.1174 16.3814C31.1282 17.0079 29.978 17.3212 28.667 17.3212H23.965V2.32688H28.667ZM28.4703 14.16C29.6264 14.16 30.5263 13.7826 31.1699 13.0279C31.8135 12.2732 32.1353 11.2053 32.1353 9.82403C32.1353 8.44279 31.8135 7.3677 31.1699 6.59876C30.5263 5.82982 29.6264 5.44535 28.4703 5.44535H27.0222V14.16H28.4703Z" fill="white"/>
<path d="M42.5169 17.3212L39.9067 11.6609H39.1737V17.3212H36.1166V2.32688H41.2476C42.2368 2.32688 43.0771 2.53335 43.7684 2.9463C44.4716 3.35925 44.996 3.92883 45.3417 4.65505C45.6873 5.36703 45.8601 6.16445 45.8601 7.04731C45.8601 8.04408 45.6218 8.93406 45.145 9.71724C44.6802 10.5004 43.9889 11.0558 43.0711 11.3833L45.9674 17.3212H42.5169ZM39.1737 9.07645H41.0688C41.629 9.07645 42.0461 8.9127 42.3203 8.58519C42.6063 8.25768 42.7493 7.79489 42.7493 7.19682C42.7493 6.62724 42.6063 6.17869 42.3203 5.85118C42.0461 5.52367 41.629 5.35991 41.0688 5.35991H39.1737V9.07645Z" fill="white"/>
<path d="M54.7539 14.6726H50.0699L49.319 17.3212H46.1188L50.6598 2.32688H54.1997L58.7408 17.3212H55.5048L54.7539 14.6726ZM53.9673 11.8532L52.4119 6.36381L50.8744 11.8532H53.9673Z" fill="white"/>
<path d="M62.3419 14.5017H66.3466V17.3212H59.2848V2.32688H62.3419V14.5017Z" fill="white"/>
<path d="M74.7795 14.6726H70.0955L69.3446 17.3212H66.1444L70.6854 2.32688H74.2253L78.7663 17.3212H75.5304L74.7795 14.6726ZM73.9929 11.8532L72.4375 6.36381L70.9 11.8532H73.9929Z" fill="white"/>
<path d="M83.8514 17.4707C82.9337 17.4707 82.1113 17.2927 81.3842 16.9367C80.6572 16.5807 80.0732 16.0539 79.6322 15.3561C79.2031 14.6584 78.9766 13.8182 78.9528 12.8357H82.2066C82.2543 13.3911 82.4152 13.8182 82.6893 14.1173C82.9635 14.4021 83.321 14.5445 83.762 14.5445C84.2149 14.5445 84.5725 14.4234 84.8347 14.1814C85.0969 13.925 85.228 13.5762 85.228 13.1347C85.228 12.7645 85.1208 12.4584 84.9062 12.2163C84.7036 11.9742 84.4473 11.7749 84.1375 11.6182C83.8395 11.4616 83.4104 11.2836 82.8502 11.0842C82.0397 10.7852 81.3783 10.4862 80.8658 10.1871C80.3532 9.88811 79.9123 9.44668 79.5428 8.86286C79.1733 8.27903 78.9886 7.51722 78.9886 6.5774C78.9886 5.18192 79.4117 4.09259 80.2579 3.30941C81.1041 2.51199 82.2066 2.11328 83.5654 2.11328C84.9479 2.11328 86.0623 2.51199 86.9086 3.30941C87.7548 4.09259 88.2077 5.18904 88.2673 6.59876H84.9598C84.936 6.11461 84.787 5.73726 84.5129 5.46671C84.2388 5.18192 83.8872 5.03952 83.4581 5.03952C83.0886 5.03952 82.7906 5.16056 82.5642 5.40263C82.3377 5.63047 82.2245 5.9651 82.2245 6.40652C82.2245 6.89067 82.4152 7.26802 82.7966 7.53857C83.178 7.80913 83.7739 8.10104 84.5844 8.41431C85.3949 8.74182 86.0504 9.05509 86.551 9.35413C87.0635 9.65316 87.5045 10.0875 87.874 10.6571C88.2435 11.2266 88.4282 11.96 88.4282 12.8571C88.4282 13.7114 88.2435 14.4875 87.874 15.1852C87.5164 15.883 86.992 16.4383 86.3007 16.8513C85.6094 17.2642 84.793 17.4707 83.8514 17.4707Z" fill="white"/>
<path d="M98.5 2.32688V5.25312H95.1747V17.3212H92.1175V5.25312H88.7922V2.32688H98.5Z" fill="white"/>
</g>
<defs>
<clipPath id="clip0_83_1067">
<rect width="105" height="17" fill="white" transform="translate(0.5 0.963379)"/>
</clipPath>
</defs>
</svg>
