<svg width="19" height="19" viewBox="0 0 19 19" fill="none" xmlns="http://www.w3.org/2000/svg">
<path d="M9.50191 0.5C9.98344 0.5 10.5625 0.889525 11.1267 1.87663C11.6103 2.72253 12.0193 3.9059 12.2956 5.32258H6.70819C6.98457 3.9059 7.39357 2.72253 7.87709 1.87663C8.44134 0.889525 9.02039 0.5 9.50191 0.5ZM12.5942 11.4516H6.40579C6.35305 10.8214 6.32375 10.1716 6.32375 9.5C6.32375 8.82841 6.35305 8.17857 6.40579 7.54839H12.5942C12.6469 8.17857 12.6762 8.82841 12.6762 9.5C12.6762 10.1716 12.6469 10.8214 12.5942 11.4516ZM13.3572 1.37085C15.1215 2.20723 16.5692 3.6001 17.4755 5.32258H14.5508C14.296 3.86727 13.9002 2.50363 13.3572 1.37085ZM4.45238 5.32258H1.52744C2.43148 3.60092 3.87988 2.20823 5.64249 1.37165C5.09987 2.50419 4.70492 3.86746 4.45238 5.32258ZM14.8266 11.4516C14.8777 10.8082 14.9061 10.1546 14.9061 9.5C14.9061 8.84538 14.8777 8.19179 14.8266 7.54839H18.2814C18.4219 8.17986 18.5 8.82942 18.5 9.5C18.5 10.1711 18.4217 10.8207 18.2792 11.4516H14.8266ZM0.722171 7.54839H4.17725C4.12611 8.19179 4.0977 8.84538 4.0977 9.5C4.0977 10.1551 4.12614 10.8087 4.17545 11.4516H0.722171C0.580574 10.8191 0.5 10.1696 0.5 9.5C0.5 8.8304 0.580574 8.18093 0.722171 7.54839ZM9.50191 18.5C9.02039 18.5 8.44134 18.1105 7.87709 17.1234C7.39357 16.2775 6.98457 15.0941 6.70819 13.6774H12.2956C12.0193 15.0941 11.6103 16.2775 11.1267 17.1234C10.5625 18.1105 9.98344 18.5 9.50191 18.5ZM14.5546 13.6774H17.4792C16.5728 15.3992 15.124 16.7918 13.3614 17.6283C13.9043 16.4957 14.2999 15.1324 14.5546 13.6774ZM4.45307 13.6774C4.70786 15.1327 5.10359 16.4964 5.64662 17.6291C3.88231 16.7928 2.43464 15.3999 1.52835 13.6774H4.45307Z" fill="white" stroke="#757575"/>
</svg>
