<svg width="24" height="21" viewBox="0 0 24 21" fill="none" xmlns="http://www.w3.org/2000/svg">
<path d="M14.75 13.8929C14.75 14.2678 14.4423 14.5714 14.0625 14.5714H9.9375C9.55766 14.5714 9.25 14.2678 9.25 13.8929V11.8571H1V17.9643C1 19.05 1.9625 20 3.0625 20H20.9375C22.0375 20 23 19.05 23 17.9643V11.8571H14.75V13.8929ZM20.9375 5.07143H17.5V3.03571C17.5 1.95 16.5375 1 15.4375 1H8.5625C7.4625 1 6.5 1.95 6.5 3.03571V5.07143H3.0625C1.9625 5.07143 1 6.02143 1 7.10714V10.5H23V7.10714C23 6.02143 22.0375 5.07143 20.9375 5.07143ZM14.75 5.07143H9.25V3.71429H14.75V5.07143Z" fill="white" stroke="#757575"/>
</svg>
