<svg width="392" height="420" viewBox="0 0 392 420" fill="none" xmlns="http://www.w3.org/2000/svg">
<g filter="url(#filter0_f)">
<ellipse cx="196" cy="406" rx="192" ry="10" fill="#C4C4C4" fill-opacity="0.4"/>
</g>
<g filter="url(#filter1_f)">
<ellipse cx="89.5" cy="406" rx="46.5" ry="10" fill="#232323"/>
</g>
<path opacity="0.5" d="M383 129.855H139.26V292.614H383V129.855Z" stroke="black" stroke-linecap="round" stroke-linejoin="round"/>
<path opacity="0.5" d="M379.728 132.042H142.532V290.436H379.728V132.042Z" stroke="black" stroke-linecap="round" stroke-linejoin="round"/>
<path opacity="0.3" d="M171.249 155.763C171.249 155.763 173.845 169.784 173.845 173.936V188.473C173.845 188.473 184.229 188.989 192.534 188.473C200.838 187.957 210.707 182.764 210.707 182.764C210.707 182.764 207.071 168.744 207.071 165.108C207.071 161.471 204.998 152.628 204.998 152.628L171.249 155.763Z" fill="white" stroke="black" stroke-linecap="round" stroke-linejoin="round"/>
<path opacity="0.3" d="M172.281 242.962C172.281 242.962 170.763 254.903 170.763 260.095C170.763 265.287 168.167 273.592 168.167 273.592C168.167 273.592 180.631 278.268 183.743 278.268C186.856 278.268 200.36 277.228 200.36 277.228L202.44 246.598C202.44 246.598 176.426 244.032 172.281 242.962Z" fill="white" stroke="black" stroke-linecap="round" stroke-linejoin="round"/>
<path opacity="0.3" d="M229.919 178.604L236.144 207.162C236.144 207.162 243.932 207.686 252.245 207.686C260.557 207.686 274.57 199.897 274.57 199.897C274.57 199.897 267.821 186.393 267.821 182.764C267.821 179.136 265.741 168.744 265.741 168.744C265.741 168.744 244.487 175.492 241.336 176.008C238.186 176.524 229.919 178.604 229.919 178.604Z" fill="white" stroke="black" stroke-linecap="round" stroke-linejoin="round"/>
<path opacity="0.3" d="M276.627 170.847C276.627 170.847 275.109 189.536 275.109 191.608C275.109 193.68 274.593 201.993 274.593 201.993C274.593 201.993 284.977 203.556 290.685 203.556C296.394 203.556 306.262 203.033 306.262 203.033C306.262 203.033 305.746 184.86 306.778 183.296C307.811 181.732 308.342 173.428 308.342 173.428C308.342 173.428 278.722 171.34 276.627 170.847Z" fill="white" stroke="black" stroke-linecap="round" stroke-linejoin="round"/>
<path opacity="0.3" d="M288.067 212.355V224.819C288.067 226.892 287.027 241.952 287.027 241.952C287.027 241.952 300.531 242.468 305.723 241.952C310.916 241.436 321.3 238.316 321.3 238.316L319.736 221.707L318.704 210.32C318.704 210.32 293.783 213.918 288.067 212.355Z" fill="white" stroke="black" stroke-linecap="round" stroke-linejoin="round"/>
<path opacity="0.3" d="M366.466 142.266L354.526 142.782H348.294V151.611C348.294 154.207 347.777 162.511 347.777 164.067C347.777 165.624 356.082 166.664 359.718 166.664H372.699L373.215 141.226L366.466 142.266Z" fill="white" stroke="black" stroke-linecap="round" stroke-linejoin="round"/>
<g opacity="0.5">
<path opacity="0.5" d="M336.354 198.342H358.679" stroke="black" stroke-linecap="round" stroke-linejoin="round"/>
<path opacity="0.5" d="M336.353 203.534H358.678" stroke="black" stroke-linecap="round" stroke-linejoin="round"/>
<path opacity="0.5" d="M336.353 208.726H358.678" stroke="black" stroke-linecap="round" stroke-linejoin="round"/>
<path opacity="0.5" d="M336.353 213.918H358.678" stroke="black" stroke-linecap="round" stroke-linejoin="round"/>
</g>
<g opacity="0.5">
<path opacity="0.5" d="M221.091 139.147H294.815" stroke="black" stroke-linecap="round" stroke-linejoin="round"/>
<path opacity="0.5" d="M221.091 144.339H294.815" stroke="black" stroke-linecap="round" stroke-linejoin="round"/>
</g>
<g opacity="0.5">
<path opacity="0.5" d="M296.372 252.336H318.704" stroke="black" stroke-linecap="round" stroke-linejoin="round"/>
<path opacity="0.5" d="M296.372 257.528H318.704" stroke="black" stroke-linecap="round" stroke-linejoin="round"/>
<path opacity="0.5" d="M296.372 262.721H318.704" stroke="black" stroke-linecap="round" stroke-linejoin="round"/>
<path opacity="0.5" d="M296.372 267.913H318.704" stroke="black" stroke-linecap="round" stroke-linejoin="round"/>
</g>
<g opacity="0.5">
<path opacity="0.5" d="M157.744 218.07H180.069" stroke="black" stroke-linecap="round" stroke-linejoin="round"/>
<path opacity="0.5" d="M157.744 223.262H180.069" stroke="black" stroke-linecap="round" stroke-linejoin="round"/>
<path opacity="0.5" d="M157.744 228.455H180.069" stroke="black" stroke-linecap="round" stroke-linejoin="round"/>
<path opacity="0.5" d="M157.744 233.647H180.069" stroke="black" stroke-linecap="round" stroke-linejoin="round"/>
</g>
<g opacity="0.5">
<path opacity="0.5" d="M315.068 152.651H337.393" stroke="black" stroke-linecap="round" stroke-linejoin="round"/>
<path opacity="0.5" d="M315.068 157.844H337.393" stroke="black" stroke-linecap="round" stroke-linejoin="round"/>
<path opacity="0.5" d="M315.068 163.036H337.393" stroke="black" stroke-linecap="round" stroke-linejoin="round"/>
<path opacity="0.5" d="M315.068 168.228H337.393" stroke="black" stroke-linecap="round" stroke-linejoin="round"/>
</g>
<path opacity="0.5" d="M233.358 202.228L220.56 205.887L223.854 208.741C217.865 212.681 205.18 219.429 196.883 212.575C185.755 203.382 188.753 195.434 188.882 195.115L187.895 194.721L186.916 194.318C186.757 194.706 183.121 203.982 195.532 214.23C198.358 216.548 201.92 217.779 205.575 217.699C213.318 217.699 221.311 213.083 225.532 210.214L229.699 213.82L233.358 202.228Z" fill="black"/>
<path opacity="0.5" d="M362.565 180.374L358.868 168.046L352.089 177.907L355.854 178.795L351.945 192.861L353.995 193.43L357.927 179.281L362.565 180.374Z" fill="black"/>
<path opacity="0.3" d="M192.534 157.32C192.534 156.702 192.351 156.099 192.007 155.585C191.664 155.072 191.177 154.672 190.606 154.436C190.036 154.201 189.408 154.139 188.802 154.26C188.197 154.381 187.641 154.679 187.205 155.116C186.769 155.553 186.472 156.11 186.353 156.716C186.233 157.321 186.296 157.949 186.534 158.519C186.771 159.089 187.172 159.576 187.686 159.917C188.2 160.259 188.804 160.441 189.421 160.44C190.248 160.438 191.039 160.108 191.623 159.523C192.206 158.938 192.534 158.146 192.534 157.32Z" fill="white" stroke="black" stroke-linecap="round" stroke-linejoin="round"/>
<path opacity="0.3" d="M249.648 177.049C249.648 176.432 249.465 175.828 249.122 175.315C248.78 174.802 248.292 174.402 247.722 174.166C247.152 173.93 246.525 173.868 245.92 173.989C245.314 174.109 244.759 174.406 244.322 174.843C243.886 175.279 243.589 175.835 243.468 176.44C243.348 177.045 243.41 177.672 243.646 178.243C243.882 178.813 244.282 179.3 244.795 179.643C245.308 179.986 245.911 180.169 246.528 180.169C246.938 180.169 247.344 180.088 247.722 179.931C248.101 179.774 248.445 179.544 248.734 179.255C249.024 178.965 249.254 178.621 249.411 178.243C249.568 177.864 249.648 177.458 249.648 177.049Z" fill="#92E3A9" stroke="black" stroke-linecap="round" stroke-linejoin="round"/>
<path opacity="0.3" d="M293.783 175.492C295.502 175.492 296.895 174.099 296.895 172.38C296.895 170.661 295.502 169.268 293.783 169.268C292.064 169.268 290.67 170.661 290.67 172.38C290.67 174.099 292.064 175.492 293.783 175.492Z" fill="white" stroke="black" stroke-linecap="round" stroke-linejoin="round"/>
<path opacity="0.3" d="M307.279 215.475C307.281 214.857 307.099 214.253 306.757 213.739C306.415 213.225 305.929 212.824 305.359 212.587C304.789 212.35 304.161 212.287 303.555 212.406C302.95 212.526 302.393 212.822 301.956 213.258C301.519 213.694 301.221 214.25 301.1 214.856C300.979 215.461 301.04 216.089 301.276 216.659C301.512 217.23 301.912 217.718 302.425 218.061C302.939 218.404 303.542 218.587 304.159 218.587C304.986 218.587 305.778 218.259 306.363 217.676C306.948 217.092 307.277 216.301 307.279 215.475Z" fill="white" stroke="black" stroke-linecap="round" stroke-linejoin="round"/>
<path opacity="0.3" d="M192.534 248.7C192.534 248.083 192.351 247.48 192.007 246.966C191.664 246.453 191.177 246.053 190.606 245.817C190.036 245.581 189.408 245.52 188.802 245.641C188.197 245.762 187.641 246.06 187.205 246.497C186.769 246.934 186.472 247.491 186.353 248.096C186.233 248.702 186.296 249.33 186.534 249.9C186.771 250.47 187.172 250.956 187.686 251.298C188.2 251.64 188.804 251.822 189.421 251.82C190.248 251.818 191.039 251.489 191.623 250.904C192.206 250.319 192.534 249.527 192.534 248.7Z" fill="#92E3A9" stroke="black" stroke-linecap="round" stroke-linejoin="round"/>
<path opacity="0.3" d="M360.758 145.378C362.477 145.378 363.87 143.985 363.87 142.266C363.87 140.547 362.477 139.154 360.758 139.154C359.039 139.154 357.646 140.547 357.646 142.266C357.646 143.985 359.039 145.378 360.758 145.378Z" fill="#92E3A9" stroke="black" stroke-linecap="round" stroke-linejoin="round"/>
<path d="M247.746 32.0297C247.747 28.9462 247.005 25.9079 245.584 23.1717C244.162 20.4355 242.102 18.0821 239.578 16.3104C237.054 14.5388 234.141 13.4011 231.085 12.9936C228.028 12.5861 224.918 12.9208 222.019 13.9693C219.119 15.0179 216.514 16.7495 214.425 19.0176C212.336 21.2857 210.825 24.0236 210.018 26.9996C209.211 29.9756 209.132 33.1023 209.789 36.115C210.446 39.1277 211.819 41.9378 213.792 44.3076C216.622 47.7017 218.169 51.9815 218.166 56.4003V59.0308H238.922V56.4003C238.919 51.9904 240.465 47.7195 243.29 44.3331C246.173 40.8823 247.751 36.5269 247.746 32.0297Z" fill="white" stroke="#026BF9" stroke-width="2" stroke-linecap="round" stroke-linejoin="round"/>
<path d="M238.922 59.0244H218.165V64.1577H238.922V59.0244Z" fill="white" stroke="#026BF9" stroke-width="2" stroke-linecap="round" stroke-linejoin="round"/>
<path d="M218.165 64.1704H238.922V66.2901C238.922 67.0911 238.604 67.8592 238.038 68.4256C237.471 68.992 236.703 69.3101 235.902 69.3101H221.154C220.353 69.3101 219.584 68.992 219.018 68.4256C218.452 67.8592 218.134 67.0911 218.134 66.2901V64.1704H218.165Z" fill="white" stroke="#026BF9" stroke-width="2" stroke-linecap="round" stroke-linejoin="round"/>
<path d="M220.783 69.2974H236.298V70.3381C236.298 70.8755 236.193 71.4077 235.987 71.9043C235.781 72.4008 235.48 72.852 235.1 73.232C234.72 73.612 234.268 73.9135 233.772 74.1192C233.275 74.3248 232.743 74.4307 232.206 74.4307H224.876C223.791 74.4307 222.75 73.9995 221.982 73.232C221.215 72.4645 220.783 71.4235 220.783 70.3381V69.2974Z" fill="white" stroke="#026BF9" stroke-width="2" stroke-linecap="round" stroke-linejoin="round"/>
<path d="M250.466 32.1255H259.264" stroke="#026BF9" stroke-width="2" stroke-linecap="round" stroke-linejoin="round"/>
<path d="M197 32.1255H205.907" stroke="#026BF9" stroke-width="2" stroke-linecap="round" stroke-linejoin="round"/>
<path d="M228.132 9.81732V1" stroke="#026BF9" stroke-width="2" stroke-linecap="round" stroke-linejoin="round"/>
<path d="M244.074 16.1832L250.146 10.1177" stroke="#026BF9" stroke-width="2" stroke-linecap="round" stroke-linejoin="round"/>
<path d="M206.117 54.1403L212.278 47.979" stroke="#026BF9" stroke-width="2" stroke-linecap="round" stroke-linejoin="round"/>
<path d="M212.017 16.0108L206.117 10.1177" stroke="#026BF9" stroke-width="2" stroke-linecap="round" stroke-linejoin="round"/>
<path d="M250.146 54.1405L244.272 48.2729" stroke="#026BF9" stroke-width="2" stroke-linecap="round" stroke-linejoin="round"/>
<path d="M192.815 132.756C192.815 132.756 187.179 120.576 186.497 119.454C185.815 118.332 185.142 111.556 185.599 109.527C186.056 107.499 191.685 100.507 191.685 100.507C191.685 100.507 192.358 86.0826 193.264 82.2167C194.17 78.3508 193.713 75.0003 195.966 74.3186C198.219 73.6368 198.901 73.8696 199.125 76.8127C199.35 79.7558 198.677 86.731 198.677 87.4044C198.677 88.0779 199.799 98.4534 199.799 98.4534C199.799 98.4534 210.399 109.261 211.53 110.409C212.66 111.556 214.456 114.017 212.652 119.878C211.561 123.412 209.799 126.703 207.464 129.572L208.37 134.086L192.815 135.209V132.756Z" fill="white" stroke="#263238" stroke-linecap="round" stroke-linejoin="round"/>
<path d="M191.684 126.895C191.684 126.895 186.272 121.033 184.692 117.65C183.113 114.266 183.57 106.152 184.243 105.021C184.917 103.89 190.329 101.188 191.684 100.507C193.039 99.825 202.284 99.1599 204.313 98.0126C206.341 96.8653 208.594 100.266 205.668 103.2C202.742 106.135 193.937 108.613 193.937 108.613C193.937 108.613 200.48 113.119 198.926 119.662" fill="white"/>
<path d="M191.684 126.895C191.684 126.895 186.272 121.033 184.692 117.65C183.113 114.266 183.57 106.152 184.243 105.021C184.917 103.89 190.329 101.188 191.684 100.507C193.039 99.825 202.284 99.1599 204.313 98.0126C206.341 96.8653 208.594 100.266 205.668 103.2C202.742 106.135 193.937 108.613 193.937 108.613C193.937 108.613 200.48 113.119 198.926 119.662" stroke="#263238" stroke-linecap="round" stroke-linejoin="round"/>
<path d="M208.511 99.3348C208.511 99.3348 203.906 111.805 206.1 113.385C208.295 114.965 210.931 114.483 211.588 112.072C212.244 109.661 215.744 103.758 215.32 100.648C214.896 97.5391 210.931 96.3003 208.511 99.3348Z" fill="white" stroke="#263238" stroke-linecap="round" stroke-linejoin="round"/>
<path d="M214.431 103.509C214.431 103.509 210.698 113.643 212.477 114.89C214.256 116.137 216.393 115.78 216.925 113.826C217.457 111.872 220.3 107.067 219.951 104.573C219.602 102.079 216.393 101.015 214.431 103.509Z" fill="white" stroke="#263238" stroke-linecap="round" stroke-linejoin="round"/>
<path d="M203.182 95.7763C203.182 95.7763 198.452 108.629 200.688 110.209C202.925 111.789 205.676 111.331 206.325 108.854C206.973 106.376 210.606 100.282 210.158 97.1314C209.709 93.9805 205.668 92.6171 203.182 95.7763Z" fill="white" stroke="#263238" stroke-linecap="round" stroke-linejoin="round"/>
<path d="M191.909 139.973L190.329 130.279L209.725 128.467L213.101 139.973H191.909Z" fill="#A2C9FE" stroke="#263238" stroke-linecap="round" stroke-linejoin="round"/>
<path d="M32.6422 357L50.4002 282.113L55.094 357L155.993 352.09C156.11 347.583 157.656 287.525 157.232 277.124C156.816 266.316 162.22 248.026 162.22 248.026C162.22 248.026 229.146 233.893 237.876 228.073C246.605 222.254 241.617 214.771 240.785 210.614C239.954 206.457 215.428 141.61 214.597 138.7C213.766 135.79 210.024 136.206 206.283 136.206C202.542 136.206 189.656 137.037 189.656 139.532C189.656 142.026 196.722 202.716 196.722 202.716H193.397L192.15 205.626L174.275 201.885C174.275 201.885 160.973 191.908 156.401 191.493L124.808 188.583H78.667C78.667 188.583 27.1217 212.693 23.3805 217.265C19.6393 221.838 19.6393 237.218 19.6393 237.218L8 352.09L32.6422 357Z" fill="#61A4FF" stroke="#263238" stroke-linecap="round" stroke-linejoin="round"/>
<path d="M129.007 318.394L133.122 312.874" stroke="#263238" stroke-linecap="round" stroke-linejoin="round"/>
<path d="M105.429 350.069C112.338 339.893 119.82 330.748 127.086 320.979" stroke="#263238" stroke-linecap="round" stroke-linejoin="round"/>
<path d="M136.04 314.337C132.341 321.121 126.263 331.28 119.413 338.646" stroke="#263238" stroke-linecap="round" stroke-linejoin="round"/>
<path d="M139.773 307.054C139.773 307.054 139.008 308.716 137.645 311.319" stroke="#263238" stroke-linecap="round" stroke-linejoin="round"/>
<path d="M168.514 223.858L171.091 213.94" stroke="#263238" stroke-linecap="round" stroke-linejoin="round"/>
<path d="M162.22 248.027L167.607 227.351" stroke="#263238" stroke-linecap="round" stroke-linejoin="round"/>
<path d="M164.923 237.525L175.722 217.464" stroke="#263238" stroke-linecap="round" stroke-linejoin="round"/>
<path d="M207.414 216.451C207.846 217.116 208.228 217.748 208.561 218.347" stroke="#263238" stroke-linecap="round" stroke-linejoin="round"/>
<path d="M200.405 217.465C197.88 212.967 196.608 207.874 196.722 202.716C196.722 202.716 201.553 208.195 205.352 213.441" stroke="#263238" stroke-linecap="round" stroke-linejoin="round"/>
<path d="M39.3431 235.064C38.2706 232.778 37.4143 231.065 37.4143 231.065" stroke="#263238" stroke-linecap="round" stroke-linejoin="round"/>
<path d="M50.4002 282.112C50.4002 282.112 44.5223 248.234 43.0342 243.794C42.5021 242.181 41.6125 240.061 40.698 237.975" stroke="#263238" stroke-linecap="round" stroke-linejoin="round"/>
<path d="M40.8398 251.842C39.6354 249.39 38.3062 247.001 36.8575 244.684L29.4583 234.026" stroke="#263238" stroke-linecap="round" stroke-linejoin="round"/>
<path d="M47.4904 265.402C47.4904 265.402 44.7385 259.582 41.9285 254.02" stroke="#263238" stroke-linecap="round" stroke-linejoin="round"/>
<path d="M91.2788 210.755L100.141 223.775L87.6707 321.877L104.024 337.956L116.494 319.109L105.961 222.669L114.832 209.367L101.804 198.833L91.2788 210.755Z" fill="#263238" stroke="#263238" stroke-linecap="round" stroke-linejoin="round"/>
<path d="M99.5925 205.485L83.5137 223.501L75.2 192.183L81.5766 181.932L86.8392 181.375L119.546 181.932L130.353 191.909L123.145 222.395L105.129 204.379L99.5925 205.485Z" fill="#A2C9FE" stroke="#263238" stroke-linecap="round" stroke-linejoin="round"/>
<path d="M82.408 170.567L83.5137 186.92C83.5137 186.92 99.5925 207.979 101.804 207.979C104.015 207.979 119.546 185.532 119.546 185.532L119.82 171.398L82.408 170.567Z" fill="white" stroke="#263238" stroke-linecap="round" stroke-linejoin="round"/>
<path d="M74.6515 148.12C74.6515 148.12 71.6003 138.701 67.7178 144.795C63.8353 150.889 72.4317 160.317 74.0945 161.422L75.7572 162.536L74.6515 148.12Z" fill="white" stroke="#263238" stroke-linecap="round" stroke-linejoin="round"/>
<path d="M128.691 148.12C128.691 148.12 131.734 138.701 135.616 144.795C139.499 150.889 130.902 160.317 129.24 161.422L127.577 162.536L128.691 148.12Z" fill="white" stroke="#263238" stroke-linecap="round" stroke-linejoin="round"/>
<path d="M74.0945 147.014C74.0945 147.014 74.9259 166.136 77.8357 170.293C80.7455 174.45 90.722 184.842 98.2044 186.504C105.687 188.167 108.597 186.504 114.416 182.763C120.236 179.022 128.134 171.54 128.965 166.967C129.797 162.395 129.797 143.273 129.797 143.273L128.134 123.32C128.134 123.32 127.303 111.681 113.169 106.692C99.0358 101.704 87.8122 98.3786 83.2396 106.692C78.667 115.006 72.8474 124.151 72.8474 124.151L74.0945 147.014Z" fill="white" stroke="#263238" stroke-linecap="round" stroke-linejoin="round"/>
<path d="M97.7891 161.38C100.67 162.077 103.664 162.167 106.581 161.643C109.498 161.119 112.274 159.993 114.733 158.337" stroke="#263238" stroke-linecap="round" stroke-linejoin="round"/>
<path d="M85.1936 142.267L93.0168 144.004" stroke="#263238" stroke-linecap="round" stroke-linejoin="round"/>
<path d="M112.994 144.437L122.115 141.835" stroke="#263238" stroke-linecap="round" stroke-linejoin="round"/>
<path d="M89.8906 112.928C89.8906 112.928 89.0592 122.073 84.071 125.814L75.7572 132.049L76.5886 147.43L74.0945 147.014L72.8474 137.038C72.8474 137.038 67.8591 123.736 67.8591 114.175C67.8591 104.614 75.3415 98.7943 78.2513 98.3786C80.7403 98.1515 83.2448 98.1515 85.7337 98.3786C85.7337 98.3786 91.5534 90.0649 106.934 89.2335C122.314 88.4021 134.369 104.614 132.706 107.524L131.044 110.434C133.099 114.278 134.237 118.547 134.369 122.904C134.369 129.555 130.212 135.791 130.212 135.791V148.677L126.887 134.544C126.887 134.544 123.977 125.814 123.146 124.151C122.314 122.489 113.585 123.32 108.597 121.241C103.608 119.163 99.8671 113.343 99.8671 113.343C99.8671 113.343 104.024 121.241 100.698 121.241C97.373 121.241 89.8906 112.928 89.8906 112.928Z" fill="#263238" stroke="#263238" stroke-linecap="round" stroke-linejoin="round"/>
<path d="M120.652 153.665C117.326 152.002 103.467 148.402 103.467 148.402C103.467 148.402 87.1225 152.834 84.6284 155.602C82.1343 158.371 84.3457 172.23 87.1225 177.501C89.8993 182.771 92.9422 187.194 101.53 187.477C110.118 187.76 118.989 182.763 120.378 177.775C121.766 172.787 123.977 155.328 120.652 153.665ZM115.389 173.618C113.17 177.501 108.181 177.218 107.907 175.006C107.633 172.795 107.624 170.292 104.856 170.292C102.087 170.292 102.919 171.398 103.193 174.449C103.467 177.501 99.5932 179.712 95.4363 177.218C91.2794 174.724 89.334 164.473 89.334 161.147C89.334 157.822 103.75 153.108 103.75 153.108C103.75 153.108 115.938 153.665 117.601 156.99C119.264 160.316 117.601 169.735 115.389 173.618Z" fill="#263238" stroke="#263238" stroke-linecap="round" stroke-linejoin="round"/>
<path d="M91.4121 140.638C92.1008 140.638 92.6592 139.398 92.6592 137.869C92.6592 136.34 92.1008 135.101 91.4121 135.101C90.7234 135.101 90.165 136.34 90.165 137.869C90.165 139.398 90.7234 140.638 91.4121 140.638Z" fill="#263238"/>
<path d="M113.585 140.638C114.274 140.638 114.832 139.398 114.832 137.869C114.832 136.34 114.274 135.101 113.585 135.101C112.896 135.101 112.338 136.34 112.338 137.869C112.338 139.398 112.896 140.638 113.585 140.638Z" fill="#263238"/>
<path d="M85.7336 130.111C85.7336 130.111 88.7848 124.292 97.9299 126.229" stroke="#263238" stroke-width="4" stroke-linecap="round" stroke-linejoin="round"/>
<path d="M109.286 125.672C109.286 125.672 116.22 122.629 122.04 129.28" stroke="#263238" stroke-width="4" stroke-linecap="round" stroke-linejoin="round"/>
<path d="M107.075 128.167L107.624 150.065L97.0984 147.288" fill="white"/>
<path d="M107.075 128.167L107.624 150.065L97.0984 147.288" stroke="#263238" stroke-linecap="round" stroke-linejoin="round"/>
<path d="M168 272H8V389.088H168V272Z" fill="#263238" stroke="#263238" stroke-linecap="round" stroke-linejoin="round"/>
<path opacity="0.25" d="M160.282 277.646H15.7175V383.443H160.282V277.646Z" fill="white" stroke="#263238" stroke-linecap="round" stroke-linejoin="round"/>
<path d="M103.637 384.584H74.9387V407.536H103.637V384.584Z" fill="#263238" stroke="#263238" stroke-linecap="round" stroke-linejoin="round"/>
<path d="M20.0076 293.573H155.286" stroke="white" stroke-linecap="round" stroke-linejoin="round"/>
<path d="M21.6545 318.99H53.948" stroke="white" stroke-linecap="round" stroke-linejoin="round"/>
<path d="M41.8391 328.007H60.1869" stroke="white" stroke-linecap="round" stroke-linejoin="round"/>
<path d="M21.6545 328.007H39.2742" stroke="white" stroke-linecap="round" stroke-linejoin="round"/>
<path d="M51.7522 337.023H82.9479" stroke="white" stroke-linecap="round" stroke-linejoin="round"/>
<path d="M21.6545 337.023H47.7088" stroke="white" stroke-linecap="round" stroke-linejoin="round"/>
<path d="M21.6545 346.041H40.372" stroke="white" stroke-linecap="round" stroke-linejoin="round"/>
<path d="M39.6438 355.07H60.1871" stroke="white" stroke-linecap="round" stroke-linejoin="round"/>
<path d="M21.6545 355.07H34.5025" stroke="white" stroke-linecap="round" stroke-linejoin="round"/>
<path d="M92.4805 364.086H101.654" stroke="white" stroke-linecap="round" stroke-linejoin="round"/>
<path d="M35.2415 364.086H86.9805" stroke="white" stroke-linecap="round" stroke-linejoin="round"/>
<path d="M21.6545 364.086H31.1981" stroke="white" stroke-linecap="round" stroke-linejoin="round"/>
<defs>
<filter id="filter0_f" x="0" y="392" width="392" height="28" filterUnits="userSpaceOnUse" color-interpolation-filters="sRGB">
<feFlood flood-opacity="0" result="BackgroundImageFix"/>
<feBlend mode="normal" in="SourceGraphic" in2="BackgroundImageFix" result="shape"/>
<feGaussianBlur stdDeviation="2" result="effect1_foregroundBlur"/>
</filter>
<filter id="filter1_f" x="39" y="392" width="101" height="28" filterUnits="userSpaceOnUse" color-interpolation-filters="sRGB">
<feFlood flood-opacity="0" result="BackgroundImageFix"/>
<feBlend mode="normal" in="SourceGraphic" in2="BackgroundImageFix" result="shape"/>
<feGaussianBlur stdDeviation="2" result="effect1_foregroundBlur"/>
</filter>
</defs>
</svg>
