<svg width="68" height="68" viewBox="0 0 68 68" fill="none" xmlns="http://www.w3.org/2000/svg">
<path d="M34 0C15.2219 0 0 15.2219 0 34C0 52.7781 15.2219 68 34 68C52.7781 68 68 52.7781 68 34C68 15.2219 52.7781 0 34 0ZM45.2817 49.0258C44.747 49.5577 44.1863 50.1157 43.7311 50.5723C43.3212 50.9836 43.0319 51.4908 42.8852 52.0406C42.6782 52.8165 42.511 53.6007 42.2313 54.3534L39.8472 60.7764C37.9607 61.1877 36.0085 61.4194 34 61.4194V57.6656C34.2317 55.9355 32.9526 52.6945 30.8975 50.6394C30.0749 49.8169 29.6129 48.7009 29.6129 47.5369V43.1485C29.6129 41.5527 28.7533 40.0857 27.3563 39.3139C25.3862 38.224 22.584 36.7008 20.6646 35.7343C19.0907 34.9419 17.6348 33.9328 16.3255 32.7524L16.2158 32.6537C15.2795 31.8086 14.4482 30.8539 13.7398 29.8103C12.4539 27.9225 10.359 24.8173 8.99766 22.7992C11.804 16.5613 16.8615 11.5518 23.146 8.8304L26.4377 10.4769C27.8965 11.2063 29.6129 10.1465 29.6129 8.51508V6.96589C30.7083 6.78903 31.8229 6.67661 32.9567 6.63411L36.8365 10.514C37.6934 11.3708 37.6934 12.7596 36.8365 13.6165L36.1936 14.2581L34.776 15.6756C34.3482 16.1034 34.3482 16.7985 34.776 17.2262L35.419 17.8692C35.8467 18.2969 35.8467 18.992 35.419 19.4198L34.3222 20.5165C34.1162 20.7221 33.8372 20.8374 33.5462 20.8373H32.3137C32.0285 20.8373 31.7544 20.9484 31.5487 21.1485L30.1887 22.4715C30.022 22.6339 29.9112 22.845 29.8723 23.0744C29.8333 23.3038 29.8683 23.5397 29.9721 23.7479L32.1094 28.024C32.4741 28.7533 31.9435 29.6115 31.1292 29.6115H30.356C30.0914 29.6115 29.8364 29.5156 29.6376 29.3428L28.3653 28.2378C28.0774 27.9881 27.7295 27.8175 27.3557 27.743C26.9819 27.6685 26.5951 27.6926 26.2335 27.8128L21.9602 29.2373C21.6339 29.346 21.3502 29.5547 21.1491 29.8338C20.9481 30.1128 20.84 30.448 20.8401 30.7919C20.8401 31.413 21.191 31.9792 21.7463 32.2575L23.2653 33.017C24.5554 33.6627 25.9785 33.9986 27.4207 33.9986C28.863 33.9986 30.5177 37.74 31.8078 38.3857H40.959C42.123 38.3857 43.2376 38.8477 44.0615 39.6703L45.9384 41.5472C46.7225 42.3316 47.1629 43.3953 47.1627 44.5044C47.1624 45.3447 46.9961 46.1768 46.6733 46.9527C46.3505 47.7287 45.8776 48.4332 45.2817 49.0258ZM57.1694 36.502C56.3756 36.3032 55.6832 35.8165 55.2294 35.1352L52.7644 31.4377C52.4038 30.8974 52.2113 30.2625 52.2113 29.6129C52.2113 28.9633 52.4038 28.3284 52.7644 27.7881L55.4502 23.7602C55.7682 23.2845 56.2042 22.8979 56.7169 22.6429L58.4965 21.7531C60.35 25.4438 61.4194 29.5951 61.4194 34C61.4194 35.1886 61.3179 36.3526 61.1698 37.5015L57.1694 36.502Z" fill="white"/>
</svg>
