<svg width="467" height="500" viewBox="0 0 467 500" fill="none" xmlns="http://www.w3.org/2000/svg">
<g filter="url(#filter0_d)">
<circle cx="46.5" cy="318.5" r="41.5" fill="white"/>
</g>
<path d="M53.2438 342.704L67.8173 339.546C67.8173 339.546 62.5604 303.964 62.5171 303.729C62.4738 303.496 62.2842 303.339 62.0892 303.339C61.8942 303.339 58.1919 303.065 58.1919 303.065C58.1919 303.065 55.6217 300.495 55.3102 300.221C55.2371 300.143 55.1559 300.105 55.0773 300.064L53.2438 342.704ZM54.4517 299.989C54.4084 299.989 54.3352 300.026 54.2973 300.026C54.254 300.026 53.7096 300.186 52.8538 300.454C51.9925 297.965 50.4732 295.666 47.7865 295.666H47.5536C46.7709 294.688 45.8392 294.26 45.0186 294.26C38.7461 294.26 35.7398 302.093 34.8082 306.066C32.3923 306.811 30.6427 307.355 30.4396 307.434C29.0746 307.862 29.0394 307.9 28.885 309.189C28.7307 310.12 25.1827 337.596 25.1827 337.596L52.5829 342.74L54.4517 299.989ZM47.3152 301.895V302.171C45.8013 302.64 44.1248 303.146 42.4863 303.653C43.4234 300.07 45.1729 298.312 46.6923 297.649C47.0877 298.664 47.3152 300.026 47.3152 301.895ZM44.8236 295.937C45.0944 295.937 45.3679 296.013 45.6442 296.213C43.6617 297.145 41.4761 299.523 40.5769 304.279C39.308 304.684 38.0341 305.074 36.7554 305.449C37.809 301.822 40.344 295.937 44.8236 295.937ZM45.9123 317.094C45.9123 317.094 44.2765 316.241 42.3319 316.241C39.4069 316.241 39.2904 318.072 39.2904 318.541C39.2904 321.035 45.8392 322.007 45.8392 327.892C45.8392 332.529 42.9142 335.492 38.9411 335.492C34.1852 335.492 31.7694 332.529 31.7694 332.529L33.0559 328.32C33.0559 328.32 35.5529 330.465 37.6519 330.465C37.904 330.476 38.1556 330.435 38.3916 330.346C38.6276 330.256 38.8431 330.12 39.0254 329.946C39.2077 329.772 39.353 329.562 39.4525 329.33C39.552 329.098 39.6037 328.849 39.6046 328.597C39.6046 325.322 34.2259 325.162 34.2259 319.789C34.2259 315.269 37.4623 310.865 44.049 310.865C46.584 310.865 47.8271 311.602 47.8271 311.602L45.9123 317.094ZM48.4094 297.375C49.8123 297.537 50.7115 299.13 51.2911 300.926C50.5923 301.161 49.8096 301.394 48.9538 301.665V301.159C48.9538 299.639 48.7588 298.391 48.4094 297.375Z" fill="black"/>
<path d="M417 282L421.09 327.941L439.5 334L457.91 327.941L462 282H417ZM453.691 291.286L453.129 296.776L439.617 302.498L439.582 302.51H452.648L451.148 319.526L439.641 322.857L428.062 319.468L427.312 310.89H433.043L433.418 315.336L439.582 316.879L445.992 315.092L446.426 307.942L426.938 307.884V307.872L426.914 307.884L426.492 302.51L439.629 297.089L440.391 296.776H425.988L425.309 291.286H453.691Z" fill="#757575"/>
<path d="M413.613 52.799H68.4468V262.113H413.613V52.799Z" fill="white" stroke="#263238" stroke-linecap="round" stroke-linejoin="round"/>
<path d="M267.365 80.3016H80.1906V96.6542H267.365V80.3016Z" stroke="#263238" stroke-linecap="round" stroke-linejoin="round"/>
<path d="M267.365 105.922H80.1906V200.395H267.365V105.922Z" stroke="#263238" stroke-linecap="round" stroke-linejoin="round"/>
<path d="M404.737 174.221H277.972V249.473H404.737V174.221Z" stroke="#263238" stroke-linecap="round" stroke-linejoin="round"/>
<path d="M277.972 249.473L404.737 174.221" stroke="#263238" stroke-linecap="round" stroke-linejoin="round"/>
<path d="M404.737 249.473L277.972 174.221" stroke="#263238" stroke-linecap="round" stroke-linejoin="round"/>
<path d="M234.559 214.745H265.232" stroke="#263238" stroke-linecap="round" stroke-linejoin="round"/>
<path d="M180.148 214.745H228.189" stroke="#263238" stroke-linecap="round" stroke-linejoin="round"/>
<path d="M106.053 214.745H170.88" stroke="#263238" stroke-linecap="round" stroke-linejoin="round"/>
<path d="M81.1666 214.745H98.5256" stroke="#263238" stroke-linecap="round" stroke-linejoin="round"/>
<path d="M126.31 223.42H265.232" stroke="#263238" stroke-linecap="round" stroke-linejoin="round"/>
<path d="M81.1666 223.42H119.366" stroke="#263238" stroke-linecap="round" stroke-linejoin="round"/>
<path d="M199.821 232.104H265.232" stroke="#263238" stroke-linecap="round" stroke-linejoin="round"/>
<path d="M134.995 232.104H190.563" stroke="#263238" stroke-linecap="round" stroke-linejoin="round"/>
<path d="M81.1666 232.104H128.624" stroke="#263238" stroke-linecap="round" stroke-linejoin="round"/>
<path d="M189.406 240.789H265.232" stroke="#263238" stroke-linecap="round" stroke-linejoin="round"/>
<path d="M127.467 240.789H181.879" stroke="#263238" stroke-linecap="round" stroke-linejoin="round"/>
<path d="M81.1666 240.789H121.107" stroke="#263238" stroke-linecap="round" stroke-linejoin="round"/>
<path d="M231.661 249.473H265.232" stroke="#263238" stroke-linecap="round" stroke-linejoin="round"/>
<path d="M152.364 249.473H225.291" stroke="#263238" stroke-linecap="round" stroke-linejoin="round"/>
<path d="M119.366 249.473H145.993" stroke="#263238" stroke-linecap="round" stroke-linejoin="round"/>
<path d="M93.323 249.473H108.951" stroke="#263238" stroke-linecap="round" stroke-linejoin="round"/>
<path d="M81.1666 249.473H93.3229" stroke="#263238" stroke-linecap="round" stroke-linejoin="round"/>
<path d="M413.613 52.799H68.4468V67.8937H413.613V52.799Z" fill="#BFDAFF" stroke="#263238" stroke-linecap="round" stroke-linejoin="round"/>
<path d="M405.834 57.3274H118.028V63.4156H405.834V57.3274Z" fill="white"/>
<path d="M112.03 57.3274H73.7601V63.4156H112.03V57.3274Z" fill="white"/>
<path d="M433.438 88.9861H302.617V163.453H433.438V88.9861Z" fill="white" stroke="#263238" stroke-linecap="round" stroke-linejoin="round"/>
<path d="M433.438 149.365H302.617V163.453H433.438V149.365Z" fill="white" stroke="#263238" stroke-linecap="round" stroke-linejoin="round"/>
<path d="M385.245 120.484L350.819 100.609V140.358L385.245 120.484Z" fill="#BFDAFF"/>
<path d="M306.913 85.0816H299.386V92.6088H306.913V85.0816Z" fill="white" stroke="#263238" stroke-linecap="round" stroke-linejoin="round"/>
<path d="M436.859 85.0816H429.332V92.6088H436.859V85.0816Z" fill="white" stroke="#263238" stroke-linecap="round" stroke-linejoin="round"/>
<path d="M306.913 158.301H299.386V165.828H306.913V158.301Z" fill="white" stroke="#263238" stroke-linecap="round" stroke-linejoin="round"/>
<path d="M436.859 158.301H429.332V165.828H436.859V158.301Z" fill="white" stroke="#263238" stroke-linecap="round" stroke-linejoin="round"/>
<path d="M415.827 159.972L422.781 191.167C422.845 191.373 422.969 191.556 423.137 191.691C423.305 191.827 423.509 191.911 423.723 191.931C423.938 191.951 424.154 191.908 424.345 191.806C424.535 191.704 424.691 191.549 424.793 191.359L429.302 181.869C429.39 181.678 429.532 181.517 429.711 181.406C429.89 181.295 430.097 181.239 430.308 181.245L440.794 181.819C441.016 181.829 441.236 181.771 441.425 181.653C441.613 181.536 441.762 181.363 441.85 181.159C441.939 180.955 441.963 180.729 441.92 180.51C441.877 180.292 441.768 180.092 441.609 179.937L417.638 158.895C417.465 158.732 417.243 158.631 417.007 158.605C416.771 158.579 416.532 158.631 416.328 158.753C416.124 158.874 415.964 159.059 415.874 159.278C415.784 159.498 415.767 159.742 415.827 159.972Z" fill="#026BF9"/>
<path d="M444.467 187.645H435.078V197.034H444.467V187.645Z" fill="white" stroke="#263238" stroke-width="0.75" stroke-linecap="round" stroke-linejoin="round"/>
<path d="M435.732 186.901H434.323V188.309H435.732V186.901Z" fill="#263238"/>
<path d="M440.502 186.901H439.093V188.309H440.502V186.901Z" fill="#263238"/>
<path d="M445.07 186.901H443.662V188.309H445.07V186.901Z" fill="#263238"/>
<path d="M435.732 191.65H434.323V193.059H435.732V191.65Z" fill="#263238"/>
<path d="M440.502 191.65H439.093V193.059H440.502V191.65Z" fill="#263238"/>
<path d="M445.07 191.65H443.662V193.059H445.07V191.65Z" fill="#263238"/>
<path d="M435.732 196.219H434.323V197.628H435.732V196.219Z" fill="#263238"/>
<path d="M440.502 196.219H439.093V197.628H440.502V196.219Z" fill="#263238"/>
<path d="M445.07 196.219H443.662V197.628H445.07V196.219Z" fill="#263238"/>
<path d="M188.671 332.394L185.693 332.977L177.068 290.34L180.047 289.756L188.671 332.394Z" fill="white" stroke="#263238" stroke-linecap="round" stroke-linejoin="round"/>
<path d="M242.167 331.548H185.511V333.571H242.167V331.548Z" fill="white" stroke="#263238" stroke-linecap="round" stroke-linejoin="round"/>
<path d="M345.385 437.765H257.845V442.042H345.385V437.765Z" fill="white" stroke="#263238" stroke-linecap="round" stroke-linejoin="round"/>
<path d="M358.598 305.978C358.598 305.978 350.306 371.71 348.011 392.078C345.717 412.446 354.733 476.387 354.733 476.387H349.47L339.136 403.933H261.911L256.97 475.089H253.025L259.647 392.41V383.424C259.647 382.964 259.737 382.509 259.913 382.084C260.089 381.659 260.347 381.273 260.672 380.948C260.998 380.623 261.384 380.365 261.809 380.189C262.233 380.013 262.689 379.922 263.149 379.922H337.133L348.716 298.753C348.716 298.753 350.024 291.195 356.595 293.5C363.166 295.804 358.598 305.978 358.598 305.978Z" fill="#263238" stroke="#263238" stroke-linecap="round" stroke-linejoin="round"/>
<path d="M356.625 293.5C356.454 293.434 356.279 293.376 356.102 293.329C356.605 294.335 356.907 296.086 356.303 299.366C354.985 306.602 341.108 392.702 341.108 392.702H259.596L253.065 476.045H257.01L265.604 403.872H339.146L349.481 476.327H354.744C354.744 476.327 345.687 412.396 348.021 392.018C350.356 371.64 360.158 307.417 360.158 307.417C360.158 307.417 363.207 295.794 356.625 293.5Z" fill="white" stroke="#263238" stroke-linecap="round" stroke-linejoin="round"/>
<path d="M277.861 311.714L236.733 314.049L218.388 324.655L214.765 330.864L217.603 331.377L224.074 328.529C224.074 328.529 231.319 327.241 233.392 326.467C235.465 325.692 241.131 319.473 241.131 319.473L279.371 325.682L277.861 311.714Z" fill="white" stroke="#263238" stroke-linecap="round" stroke-linejoin="round"/>
<path d="M218.539 438.822C218.539 438.822 211.293 451.501 210.257 451.501C209.22 451.501 200.828 453.363 194.156 450.002C187.484 446.641 182.513 444.055 180.44 447.154C179.403 448.604 178.535 450.167 177.853 451.813C177.853 451.813 184.062 460.608 189.758 463.708C195.454 466.807 197.889 465.207 203.847 468.568C209.804 471.929 210.317 474.516 215.228 473.489C220.139 472.463 222.997 456.674 224.285 454.862C225.573 453.051 230.464 442.958 230.464 442.958L218.539 438.822Z" fill="white" stroke="#263238" stroke-linecap="round" stroke-linejoin="round"/>
<path d="M211.505 450.193C210.911 450.998 210.498 451.501 210.257 451.501C209.25 451.501 200.828 453.363 194.156 450.002C187.484 446.641 182.513 444.054 180.44 447.154C179.403 448.604 178.535 450.167 177.853 451.813C177.853 451.813 184.062 460.608 189.758 463.708C195.454 466.807 197.889 465.207 203.847 468.568C209.804 471.929 210.317 474.516 215.228 473.489C219.585 472.563 222.272 460.095 223.782 455.989C219.314 454.842 214.524 452.115 211.505 450.193Z" fill="#263238" stroke="#263238" stroke-linecap="round" stroke-linejoin="round"/>
<path d="M215.168 473.489C215.315 473.453 215.46 473.406 215.6 473.348C215.649 473.333 215.696 473.312 215.741 473.288L216.023 473.147L216.184 473.046L216.436 472.875L216.597 472.745L216.838 472.533L216.989 472.382C217.078 472.3 217.162 472.213 217.241 472.121L217.382 471.96C217.462 471.859 217.553 471.758 217.633 471.648L217.754 471.497L218.046 471.074L218.116 470.973C218.317 470.672 218.509 470.339 218.7 469.967C213.668 469.967 210.247 466.797 204.823 464.936C198.1 462.611 197.718 464.483 192.807 461.112C187.896 457.74 187.373 455.687 187.373 455.687L191.731 448.804C186.226 446.087 182.211 444.417 180.389 447.144C179.353 448.593 178.485 450.157 177.803 451.803C177.803 451.803 184.012 460.598 189.708 463.698C195.404 466.797 197.839 465.197 203.796 468.558C209.754 471.919 210.257 474.516 215.168 473.489Z" fill="white" stroke="#263238" stroke-linecap="round" stroke-linejoin="round"/>
<path d="M226.297 374.146L203.293 431.576L230.715 447.104C230.715 447.104 259.898 380.878 260.2 379.58C260.502 378.282 265.634 376.994 265.634 376.994L286.566 379.852C286.566 379.852 255.008 365.884 245.699 363.811C236.391 361.738 230.172 363.288 226.297 374.146Z" fill="#61A4FF" stroke="#263238" stroke-linecap="round" stroke-linejoin="round"/>
<path d="M250.177 418.816L263.119 430.972C263.119 430.972 258.721 441.841 253.548 448.824C248.376 455.808 247.853 459.894 250.177 461.494C252.502 463.094 257.161 462.792 260.24 460.719C263.32 458.646 280.93 441.317 283.003 438.218C283.669 437.163 283.934 435.904 283.75 434.67C283.565 433.436 282.943 432.309 281.997 431.496C281.222 430.972 264.155 410.534 264.155 410.534L250.177 418.816Z" fill="white" stroke="#263238" stroke-linecap="round" stroke-linejoin="round"/>
<path d="M283.033 438.218C283.7 437.163 283.965 435.904 283.78 434.67C283.595 433.436 282.973 432.309 282.027 431.496C281.665 431.244 277.65 426.545 273.514 421.654C269.73 426.233 262.897 428.789 261.388 429.322L263.149 430.972C263.149 430.972 258.751 441.841 253.579 448.824C248.406 455.808 247.883 459.894 250.207 461.494C252.532 463.094 257.191 462.792 260.271 460.719C263.35 458.646 280.96 441.317 283.033 438.218Z" fill="#263238" stroke="#263238" stroke-linecap="round" stroke-linejoin="round"/>
<path d="M282.329 431.777C282.197 433.558 281.543 435.259 280.447 436.668C277.348 440.542 260.009 456.583 260.009 456.583L251.958 451.028C248.255 456.684 248.064 460.085 250.127 461.494C252.462 463.054 257.111 462.792 260.19 460.719C263.269 458.646 280.88 441.317 282.953 438.218C283.59 437.231 283.875 436.058 283.761 434.889C283.648 433.72 283.143 432.624 282.329 431.777Z" fill="white" stroke="#263238" stroke-linecap="round" stroke-linejoin="round"/>
<path d="M275.013 430.459C275.039 431.001 274.902 431.539 274.62 432.003C274.338 432.466 273.923 432.835 273.43 433.061C272.936 433.287 272.386 433.359 271.851 433.27C271.315 433.18 270.819 432.932 270.426 432.558C270.033 432.184 269.761 431.7 269.645 431.17C269.529 430.64 269.575 430.087 269.776 429.583C269.977 429.079 270.325 428.646 270.774 428.342C271.223 428.037 271.753 427.874 272.296 427.873C272.999 427.857 273.68 428.12 274.189 428.605C274.698 429.089 274.995 429.756 275.013 430.459Z" fill="white"/>
<path d="M283.295 337.073L281.997 341.471C281.997 341.471 242.942 341.984 225.865 346.643C208.788 351.302 204.138 353.889 205.426 363.459C206.715 373.029 233.11 428.155 233.11 428.155C238.422 426.664 243.61 424.763 248.628 422.469C254.57 419.573 260.203 416.083 265.443 412.054L245.78 374.538C245.78 374.538 268.291 379.197 293.378 381.522C318.466 383.847 329.083 381.26 333.218 373.763C337.354 366.266 330.371 336.258 330.371 336.258L283.557 334.698L283.295 337.073Z" fill="#61A4FF" stroke="#263238" stroke-linecap="round" stroke-linejoin="round"/>
<path d="M228.451 362.191C227.57 361.328 226.796 360.361 226.146 359.313" stroke="#263238" stroke-linecap="round" stroke-linejoin="round"/>
<path d="M245.78 374.578C240.551 371.596 235.564 368.208 230.866 364.445" stroke="#263238" stroke-linecap="round" stroke-linejoin="round"/>
<path d="M248.678 396.184L250.751 397.19" stroke="#263238" stroke-linecap="round" stroke-linejoin="round"/>
<path d="M212.461 365.683C221.322 377.275 232.415 386.975 245.085 394.212" stroke="#263238" stroke-linecap="round" stroke-linejoin="round"/>
<path d="M320.841 354.221C321.829 354.988 322.767 355.818 323.648 356.706" stroke="#263238" stroke-linecap="round" stroke-linejoin="round"/>
<path d="M284.583 341.984C284.583 341.984 303.542 343.453 316.926 351.524" stroke="#263238" stroke-linecap="round" stroke-linejoin="round"/>
<path d="M310.456 346.382C310.456 346.382 322.874 346.643 327.784 351.816" stroke="#263238" stroke-linecap="round" stroke-linejoin="round"/>
<path d="M286.918 259.466C286.918 259.466 278.123 285.63 276.855 293.61C275.587 301.59 276.342 336.55 276.342 336.55C276.342 336.55 297.031 342.759 308.674 341.471C320.318 340.183 334.839 337.848 334.839 337.848C334.839 337.848 332.252 291.557 329.928 275.507C327.603 259.456 322.169 250.148 316.997 246.273C313.557 243.746 309.923 241.495 306.129 239.541L286.918 259.466Z" fill="#263238" stroke="#263238" stroke-linecap="round" stroke-linejoin="round"/>
<path d="M241.382 219.113C241.944 222.391 243.086 225.543 244.753 228.421C247.339 232.557 250.962 234.369 249.926 238.484C248.889 242.6 248.919 245.468 251.938 245.72L255.048 245.981C255.048 245.981 261.257 256.588 265.916 256.588C270.575 256.588 283.798 244.724 283.798 244.724C283.798 244.724 276.814 211.867 276.814 210.831C276.814 209.794 239.822 214.715 239.822 214.715L241.382 219.113Z" fill="white" stroke="#263238" stroke-linecap="round" stroke-linejoin="round"/>
<path d="M256.779 232.406C257.272 233.413 257.101 234.55 256.386 234.892C255.672 235.234 254.706 234.67 254.213 233.634C253.72 232.597 253.891 231.49 254.605 231.158C255.32 230.826 256.286 231.38 256.779 232.406Z" fill="#263238"/>
<path d="M250.439 229.458C250.439 229.458 250.177 225.835 255.611 226.61" stroke="#263238" stroke-linecap="round" stroke-linejoin="round"/>
<path d="M257.996 246.837C258.157 247.41 264.316 247.068 263.37 241.614" stroke="#263238" stroke-linecap="round" stroke-linejoin="round"/>
<path d="M293.862 206.946C293.006 196.471 279.964 200.486 273.856 203.656L273.685 203.334L249.111 210.318C248.91 211.314 249.026 212.349 249.443 213.277C249.859 214.205 250.556 214.978 251.435 215.49C256.58 219.321 262.658 221.702 269.036 222.383C270.867 233.332 273.423 249.695 273.423 255.843C273.423 265.413 269.8 269.036 269.8 269.036C269.8 269.036 286.354 263.864 295.965 254.807C301.548 249.607 306.421 243.692 310.456 237.216C310.456 237.216 294.938 219.626 293.862 206.946Z" fill="#232323" stroke="#263238" stroke-linecap="round" stroke-linejoin="round"/>
<path d="M269.076 222.383L268.341 218.962" stroke="#263238" stroke-linecap="round" stroke-linejoin="round"/>
<path d="M281.353 246.193C281.564 247.37 281.735 248.467 281.856 249.423" stroke="#263238" stroke-linecap="round" stroke-linejoin="round"/>
<path d="M274.953 218.962C274.953 218.962 278.606 232.457 280.669 242.59" stroke="#263238" stroke-linecap="round" stroke-linejoin="round"/>
<path d="M287.169 222.353L292.191 235.626" stroke="#263238" stroke-linecap="round" stroke-linejoin="round"/>
<path d="M285.016 216.657L286.314 220.089" stroke="#263238" stroke-linecap="round" stroke-linejoin="round"/>
<path d="M291.336 216.949L293.63 222.695" stroke="#263238" stroke-linecap="round" stroke-linejoin="round"/>
<path d="M238.846 218.71C238.846 218.71 221.537 227.898 227.304 227.898C233.07 227.898 261.931 215.973 263.078 215.973C264.225 215.973 243.847 217.935 238.846 218.71Z" fill="#757575" stroke="#263238" stroke-linecap="round" stroke-linejoin="round"/>
<path d="M238.846 218.71C238.846 218.71 228.491 221.991 233.11 210.831C237.729 199.671 269.176 183.409 282.259 183.409C295.341 183.409 305.011 202.931 303.089 209.09C301.167 215.249 296.931 216.013 295.039 216.013C293.147 216.013 238.846 218.71 238.846 218.71Z" fill="#757575" stroke="#263238" stroke-linecap="round" stroke-linejoin="round"/>
<path d="M243.848 215.248C243.848 215.248 262.696 215.631 278.857 213.326C295.019 211.022 301.55 208.707 301.55 208.707" stroke="#263238" stroke-linecap="round" stroke-linejoin="round"/>
<path d="M299.245 213.709L273.856 214.091" stroke="#263238" stroke-linecap="round" stroke-linejoin="round"/>
<path d="M283.295 315.337L279.934 318.466C279.934 318.466 238.021 313.032 235.173 313.807C232.325 314.582 222.242 317.43 222.242 317.43L214.192 317.943L207.731 328.811H209.794L214.453 322.341H217.382L212.461 328.036L210.337 331.116L217.573 331.377L218.629 330.482L222.755 326.98L221.457 330.864H223.007L226.63 324.655L231.55 322.069L236.723 318.446C236.723 318.446 289.494 336.811 290.782 337.566C292.07 338.321 294.928 340.414 297.253 338.341C299.577 336.268 305.786 318.939 305.786 318.939L283.295 315.337Z" fill="white" stroke="#263238" stroke-linecap="round" stroke-linejoin="round"/>
<path d="M213.578 330.763C216.261 328.656 218.633 326.18 220.622 323.407C220.622 323.407 220.974 320.68 223.349 320.247" stroke="#263238" stroke-linecap="round" stroke-linejoin="round"/>
<path d="M222.765 326.98L223.933 322.481L225.221 321.445" stroke="#263238" stroke-linecap="round" stroke-linejoin="round"/>
<path d="M217.381 322.32C218.063 321.228 218.889 320.233 219.837 319.362C220.712 318.839 221.246 318.577 221.246 318.577" stroke="#263238" stroke-linecap="round" stroke-linejoin="round"/>
<path d="M261.156 326.98C275.164 331.891 290.118 337.184 290.843 337.586C292.141 338.361 294.989 340.434 297.313 338.361C299.638 336.288 305.847 318.959 305.847 318.959L283.345 315.337L279.934 318.466C279.934 318.466 272.226 317.46 263.209 316.383L261.156 326.98Z" fill="#757575" stroke="#263238" stroke-linecap="round" stroke-linejoin="round"/>
<path d="M290.843 276.02L279.672 313.525C279.672 313.525 280.679 318.708 291.054 321.576C296.77 323.247 302.689 324.117 308.644 324.162L316.926 277.6" fill="#263238"/>
<path d="M290.843 276.02L279.672 313.525C279.672 313.525 280.679 318.708 291.054 321.576C296.77 323.247 302.689 324.117 308.644 324.162L316.926 277.6" stroke="#263238" stroke-linecap="round" stroke-linejoin="round"/>
<path d="M290.098 279.401L280.005 310.687" stroke="#707070" stroke-linecap="round" stroke-linejoin="round"/>
<path d="M314.743 289.424L309.781 321.284" stroke="#707070" stroke-linecap="round" stroke-linejoin="round"/>
<path d="M315.829 282.42L315.286 285.922" stroke="#707070" stroke-linecap="round" stroke-linejoin="round"/>
<path d="M197.758 336.077H188.701V470.722H197.758V336.077Z" fill="#263238" stroke="#263238" stroke-linecap="round" stroke-linejoin="round"/>
<path d="M259.496 333.702H124.69V339.267H259.496V333.702Z" fill="#757575" stroke="#263238" stroke-linecap="round" stroke-linejoin="round"/>
<path d="M241.765 476.226H144.715C144.718 474.751 145.305 473.337 146.348 472.294C147.391 471.251 148.805 470.664 150.28 470.661H236.2C237.675 470.664 239.089 471.251 240.132 472.294C241.175 473.337 241.762 474.751 241.765 476.226Z" fill="#757575" stroke="#263238" stroke-linecap="round" stroke-linejoin="round"/>
<path d="M163.654 334.688H145.943L143.286 301.56H166.311L163.654 334.688Z" fill="#BFDAFF" stroke="#263238" stroke-linecap="round" stroke-linejoin="round"/>
<path d="M167.257 298.29H141.676V305.837H167.257V298.29Z" fill="white" stroke="#263238" stroke-linecap="round" stroke-linejoin="round"/>
<path d="M164.389 325.5L165.365 313.374H144.232L145.209 325.5H164.389Z" fill="white" stroke="#263238" stroke-linecap="round" stroke-linejoin="round"/>
<path d="M451.179 476.387H463.255" stroke="#263238" stroke-linecap="round" stroke-linejoin="round"/>
<path d="M431.052 476.387H443.803" stroke="#263238" stroke-linecap="round" stroke-linejoin="round"/>
<path d="M124.468 476.387H423.676" stroke="#263238" stroke-linecap="round" stroke-linejoin="round"/>
<path d="M41.7491 476.387H115.069" stroke="#263238" stroke-linecap="round" stroke-linejoin="round"/>
<g filter="url(#filter1_d)">
<circle cx="245.5" cy="22.5" r="22.5" fill="white"/>
</g>
<path d="M234.386 9.55768L236.431 32.8048L245.606 35.8707L254.84 32.8048L256.885 9.55768H234.386ZM252.444 17.0698H241.675L241.915 19.9713H252.204L251.407 28.6875L245.671 30.2733V30.2909H245.606L239.823 28.6875L239.471 24.2354H242.266L242.471 26.4732L245.606 27.3248L248.753 26.4732L249.104 22.8199H239.325L238.575 14.2682H252.702L252.444 17.0698Z" fill="#61A4FF"/>
<g filter="url(#filter2_f)">
<ellipse cx="252.5" cy="487.5" rx="210.5" ry="8.5" fill="#C4C4C4" fill-opacity="0.4"/>
</g>
<g filter="url(#filter3_d)">
<circle cx="39" cy="131" r="35" fill="white"/>
</g>
<path d="M58.644 122.862C58.46 122.596 58.2144 122.379 57.9281 122.229C57.6417 122.079 57.3233 122 57 122H29.666L27.358 116.46C27.0554 115.73 26.5429 115.107 25.8856 114.669C25.2284 114.231 24.4558 113.998 23.666 114H19V118H23.666L33.154 140.77C33.306 141.134 33.5624 141.446 33.8908 141.664C34.2193 141.883 34.6053 142 35 142H51C51.834 142 52.58 141.482 52.874 140.704L58.874 124.704C58.9874 124.401 59.0257 124.076 58.9856 123.755C58.9456 123.434 58.8284 123.128 58.644 122.862Z" fill="#A2C9FE"/>
<path d="M36 150C37.6569 150 39 148.657 39 147C39 145.343 37.6569 144 36 144C34.3431 144 33 145.343 33 147C33 148.657 34.3431 150 36 150Z" fill="#757575"/>
<path d="M50 150C51.6569 150 53 148.657 53 147C53 145.343 51.6569 144 50 144C48.3431 144 47 145.343 47 147C47 148.657 48.3431 150 50 150Z" fill="#757575"/>
<path d="M113.562 141C113.562 141 112.625 141 112.625 140.062C112.625 139.125 113.562 136.312 117.312 136.312C121.062 136.312 122 139.125 122 140.062C122 141 121.062 141 121.062 141H113.562ZM117.312 135.375C118.058 135.375 118.774 135.079 119.301 134.551C119.829 134.024 120.125 133.308 120.125 132.562C120.125 131.817 119.829 131.101 119.301 130.574C118.774 130.046 118.058 129.75 117.312 129.75C116.567 129.75 115.851 130.046 115.324 130.574C114.796 131.101 114.5 131.817 114.5 132.562C114.5 133.308 114.796 134.024 115.324 134.551C115.851 135.079 116.567 135.375 117.312 135.375Z" fill="#DBDBDB"/>
<path fill-rule="evenodd" clip-rule="evenodd" d="M111.89 141C111.751 140.707 111.682 140.386 111.687 140.063C111.687 138.792 112.325 137.484 113.502 136.575C112.915 136.394 112.302 136.305 111.687 136.313C107.937 136.313 107 139.125 107 140.063C107 141 107.937 141 107.937 141H111.89Z" fill="#DBDBDB"/>
<path d="M111.219 135.375C111.84 135.375 112.436 135.128 112.876 134.689C113.316 134.249 113.562 133.653 113.562 133.031C113.562 132.41 113.316 131.814 112.876 131.374C112.436 130.934 111.84 130.688 111.219 130.688C110.597 130.688 110.001 130.934 109.561 131.374C109.122 131.814 108.875 132.41 108.875 133.031C108.875 133.653 109.122 134.249 109.561 134.689C110.001 135.128 110.597 135.375 111.219 135.375Z" fill="#DBDBDB"/>
<path d="M93.624 150.45C93.624 149.557 93.819 148.76 94.209 148.058C94.599 147.347 95.132 146.797 95.808 146.407C96.484 146.008 97.238 145.809 98.07 145.809C99.084 145.809 99.9507 146.052 100.67 146.537C101.398 147.014 101.927 147.69 102.256 148.565H101.19C100.93 147.95 100.531 147.469 99.994 147.122C99.4653 146.775 98.824 146.602 98.07 146.602C97.4027 146.602 96.8003 146.758 96.263 147.07C95.7343 147.382 95.3183 147.833 95.015 148.422C94.7117 149.003 94.56 149.679 94.56 150.45C94.56 151.221 94.7117 151.897 95.015 152.478C95.3183 153.059 95.7343 153.505 96.263 153.817C96.8003 154.129 97.4027 154.285 98.07 154.285C98.824 154.285 99.4653 154.116 99.994 153.778C100.531 153.431 100.93 152.955 101.19 152.348H102.256C101.927 153.215 101.398 153.886 100.67 154.363C99.942 154.84 99.0753 155.078 98.07 155.078C97.238 155.078 96.484 154.883 95.808 154.493C95.132 154.094 94.599 153.544 94.209 152.842C93.819 152.14 93.624 151.343 93.624 150.45ZM104.979 145.38V155H104.069V145.38H104.979ZM107.495 146.563C107.313 146.563 107.157 146.498 107.027 146.368C106.897 146.238 106.832 146.078 106.832 145.887C106.832 145.696 106.897 145.54 107.027 145.419C107.157 145.289 107.313 145.224 107.495 145.224C107.677 145.224 107.833 145.289 107.963 145.419C108.093 145.54 108.158 145.696 108.158 145.887C108.158 146.078 108.093 146.238 107.963 146.368C107.833 146.498 107.677 146.563 107.495 146.563ZM107.95 147.902V155H107.04V147.902H107.95ZM116.433 151.087C116.433 151.399 116.424 151.637 116.407 151.802H110.518C110.544 152.339 110.674 152.799 110.908 153.18C111.142 153.561 111.449 153.852 111.831 154.051C112.212 154.242 112.628 154.337 113.079 154.337C113.668 154.337 114.162 154.194 114.561 153.908C114.968 153.622 115.237 153.236 115.367 152.751H116.329C116.155 153.444 115.783 154.012 115.211 154.454C114.647 154.887 113.937 155.104 113.079 155.104C112.411 155.104 111.813 154.957 111.285 154.662C110.756 154.359 110.34 153.934 110.037 153.388C109.742 152.833 109.595 152.188 109.595 151.451C109.595 150.714 109.742 150.069 110.037 149.514C110.331 148.959 110.743 148.535 111.272 148.24C111.8 147.945 112.403 147.798 113.079 147.798C113.755 147.798 114.344 147.945 114.847 148.24C115.358 148.535 115.748 148.933 116.017 149.436C116.294 149.93 116.433 150.48 116.433 151.087ZM115.51 151.061C115.518 150.532 115.41 150.082 115.185 149.709C114.968 149.336 114.669 149.055 114.288 148.864C113.906 148.673 113.49 148.578 113.04 148.578C112.364 148.578 111.787 148.795 111.311 149.228C110.834 149.661 110.57 150.272 110.518 151.061H115.51ZM121.426 147.772C122.275 147.772 122.968 148.036 123.506 148.565C124.043 149.085 124.312 149.843 124.312 150.84V155H123.415V150.944C123.415 150.173 123.22 149.583 122.83 149.176C122.448 148.769 121.924 148.565 121.257 148.565C120.572 148.565 120.026 148.782 119.619 149.215C119.211 149.648 119.008 150.285 119.008 151.126V155H118.098V147.902H119.008V149.111C119.233 148.678 119.558 148.348 119.983 148.123C120.407 147.889 120.888 147.772 121.426 147.772ZM127.507 148.669V153.076C127.507 153.509 127.59 153.808 127.754 153.973C127.919 154.138 128.209 154.22 128.625 154.22H129.457V155H128.482C127.841 155 127.364 154.853 127.052 154.558C126.74 154.255 126.584 153.761 126.584 153.076V148.669H125.596V147.902H126.584V146.121H127.507V147.902H129.457V148.669H127.507ZM133.402 155.104C132.587 155.104 131.92 154.918 131.4 154.545C130.889 154.164 130.603 153.648 130.542 152.998H131.478C131.521 153.397 131.708 153.722 132.037 153.973C132.375 154.216 132.826 154.337 133.389 154.337C133.883 154.337 134.269 154.22 134.546 153.986C134.832 153.752 134.975 153.462 134.975 153.115C134.975 152.872 134.897 152.673 134.741 152.517C134.585 152.361 134.386 152.24 134.143 152.153C133.909 152.058 133.588 151.958 133.181 151.854C132.652 151.715 132.223 151.577 131.894 151.438C131.565 151.299 131.283 151.096 131.049 150.827C130.824 150.55 130.711 150.181 130.711 149.722C130.711 149.375 130.815 149.055 131.023 148.76C131.231 148.465 131.526 148.231 131.907 148.058C132.288 147.885 132.722 147.798 133.207 147.798C133.97 147.798 134.585 147.993 135.053 148.383C135.521 148.764 135.772 149.293 135.807 149.969H134.897C134.871 149.553 134.706 149.219 134.403 148.968C134.108 148.708 133.701 148.578 133.181 148.578C132.722 148.578 132.349 148.686 132.063 148.903C131.777 149.12 131.634 149.388 131.634 149.709C131.634 149.986 131.716 150.216 131.881 150.398C132.054 150.571 132.267 150.71 132.518 150.814C132.769 150.909 133.107 151.018 133.532 151.139C134.043 151.278 134.451 151.412 134.754 151.542C135.057 151.672 135.317 151.863 135.534 152.114C135.751 152.365 135.863 152.699 135.872 153.115C135.872 153.496 135.768 153.839 135.56 154.142C135.352 154.437 135.062 154.671 134.689 154.844C134.316 155.017 133.887 155.104 133.402 155.104Z" fill="black"/>
<path d="M210.851 150.526C210.851 151.306 210.595 151.934 210.084 152.411C209.573 152.888 208.806 153.126 207.783 153.126H205.95V157H205.04V147.913H207.783C208.797 147.913 209.56 148.151 210.071 148.628C210.591 149.105 210.851 149.737 210.851 150.526ZM207.783 152.346C209.204 152.346 209.915 151.739 209.915 150.526C209.915 149.919 209.746 149.46 209.408 149.148C209.07 148.836 208.528 148.68 207.783 148.68H205.95V152.346H207.783ZM213.288 151.163C213.487 150.721 213.791 150.379 214.198 150.136C214.614 149.893 215.121 149.772 215.719 149.772V150.721H215.472C214.813 150.721 214.285 150.899 213.886 151.254C213.487 151.609 213.288 152.203 213.288 153.035V157H212.378V149.902H213.288V151.163ZM220.195 157.104C219.528 157.104 218.925 156.957 218.388 156.662C217.859 156.359 217.439 155.934 217.127 155.388C216.824 154.833 216.672 154.188 216.672 153.451C216.672 152.714 216.828 152.073 217.14 151.527C217.452 150.972 217.877 150.548 218.414 150.253C218.951 149.95 219.554 149.798 220.221 149.798C220.888 149.798 221.491 149.95 222.028 150.253C222.574 150.548 222.999 150.972 223.302 151.527C223.614 152.073 223.77 152.714 223.77 153.451C223.77 154.179 223.614 154.82 223.302 155.375C222.99 155.93 222.561 156.359 222.015 156.662C221.469 156.957 220.862 157.104 220.195 157.104ZM220.195 156.311C220.663 156.311 221.096 156.207 221.495 155.999C221.894 155.782 222.214 155.462 222.457 155.037C222.708 154.604 222.834 154.075 222.834 153.451C222.834 152.827 222.713 152.303 222.47 151.878C222.227 151.445 221.907 151.124 221.508 150.916C221.109 150.699 220.676 150.591 220.208 150.591C219.74 150.591 219.307 150.699 218.908 150.916C218.509 151.124 218.189 151.445 217.946 151.878C217.712 152.303 217.595 152.827 217.595 153.451C217.595 154.075 217.712 154.604 217.946 155.037C218.189 155.462 218.505 155.782 218.895 155.999C219.294 156.207 219.727 156.311 220.195 156.311ZM225.949 148.563C225.767 148.563 225.611 148.498 225.481 148.368C225.351 148.238 225.286 148.078 225.286 147.887C225.286 147.696 225.351 147.54 225.481 147.419C225.611 147.289 225.767 147.224 225.949 147.224C226.131 147.224 226.282 147.289 226.404 147.419C226.534 147.54 226.599 147.696 226.599 147.887C226.599 148.078 226.534 148.238 226.404 148.368C226.282 148.498 226.131 148.563 225.949 148.563ZM226.391 158.677C226.391 159.249 226.248 159.669 225.962 159.938C225.676 160.215 225.247 160.354 224.675 160.354H224.038V159.574H224.532C224.87 159.574 225.112 159.5 225.26 159.353C225.407 159.214 225.481 158.976 225.481 158.638V149.902H226.391V158.677ZM234.898 153.087C234.898 153.399 234.889 153.637 234.872 153.802H228.983C229.009 154.339 229.139 154.799 229.373 155.18C229.607 155.561 229.914 155.852 230.296 156.051C230.677 156.242 231.093 156.337 231.544 156.337C232.133 156.337 232.627 156.194 233.026 155.908C233.433 155.622 233.702 155.236 233.832 154.751H234.794C234.62 155.444 234.248 156.012 233.676 156.454C233.112 156.887 232.402 157.104 231.544 157.104C230.876 157.104 230.278 156.957 229.75 156.662C229.221 156.359 228.805 155.934 228.502 155.388C228.207 154.833 228.06 154.188 228.06 153.451C228.06 152.714 228.207 152.069 228.502 151.514C228.796 150.959 229.208 150.535 229.737 150.24C230.265 149.945 230.868 149.798 231.544 149.798C232.22 149.798 232.809 149.945 233.312 150.24C233.823 150.535 234.213 150.933 234.482 151.436C234.759 151.93 234.898 152.48 234.898 153.087ZM233.975 153.061C233.983 152.532 233.875 152.082 233.65 151.709C233.433 151.336 233.134 151.055 232.753 150.864C232.371 150.673 231.955 150.578 231.505 150.578C230.829 150.578 230.252 150.795 229.776 151.228C229.299 151.661 229.035 152.272 228.983 153.061H233.975ZM236.146 153.451C236.146 152.714 236.294 152.073 236.588 151.527C236.883 150.972 237.29 150.548 237.81 150.253C238.33 149.95 238.924 149.798 239.591 149.798C240.467 149.798 241.186 150.015 241.749 150.448C242.321 150.881 242.69 151.471 242.854 152.216H241.879C241.758 151.705 241.494 151.306 241.086 151.02C240.688 150.725 240.189 150.578 239.591 150.578C239.115 150.578 238.686 150.686 238.304 150.903C237.923 151.12 237.62 151.445 237.394 151.878C237.178 152.303 237.069 152.827 237.069 153.451C237.069 154.075 237.178 154.604 237.394 155.037C237.62 155.47 237.923 155.795 238.304 156.012C238.686 156.229 239.115 156.337 239.591 156.337C240.189 156.337 240.688 156.194 241.086 155.908C241.494 155.613 241.758 155.206 241.879 154.686H242.854C242.69 155.414 242.321 155.999 241.749 156.441C241.177 156.883 240.458 157.104 239.591 157.104C238.924 157.104 238.33 156.957 237.81 156.662C237.29 156.359 236.883 155.934 236.588 155.388C236.294 154.833 236.146 154.188 236.146 153.451ZM245.718 150.669V155.076C245.718 155.509 245.8 155.808 245.965 155.973C246.13 156.138 246.42 156.22 246.836 156.22H247.668V157H246.693C246.052 157 245.575 156.853 245.263 156.558C244.951 156.255 244.795 155.761 244.795 155.076V150.669H243.807V149.902H244.795V148.121H245.718V149.902H247.668V150.669H245.718ZM251.613 157.104C250.798 157.104 250.131 156.918 249.611 156.545C249.1 156.164 248.814 155.648 248.753 154.998H249.689C249.732 155.397 249.919 155.722 250.248 155.973C250.586 156.216 251.037 156.337 251.6 156.337C252.094 156.337 252.48 156.22 252.757 155.986C253.043 155.752 253.186 155.462 253.186 155.115C253.186 154.872 253.108 154.673 252.952 154.517C252.796 154.361 252.597 154.24 252.354 154.153C252.12 154.058 251.799 153.958 251.392 153.854C250.863 153.715 250.434 153.577 250.105 153.438C249.776 153.299 249.494 153.096 249.26 152.827C249.035 152.55 248.922 152.181 248.922 151.722C248.922 151.375 249.026 151.055 249.234 150.76C249.442 150.465 249.737 150.231 250.118 150.058C250.499 149.885 250.933 149.798 251.418 149.798C252.181 149.798 252.796 149.993 253.264 150.383C253.732 150.764 253.983 151.293 254.018 151.969H253.108C253.082 151.553 252.917 151.219 252.614 150.968C252.319 150.708 251.912 150.578 251.392 150.578C250.933 150.578 250.56 150.686 250.274 150.903C249.988 151.12 249.845 151.388 249.845 151.709C249.845 151.986 249.927 152.216 250.092 152.398C250.265 152.571 250.478 152.71 250.729 152.814C250.98 152.909 251.318 153.018 251.743 153.139C252.254 153.278 252.662 153.412 252.965 153.542C253.268 153.672 253.528 153.863 253.745 154.114C253.962 154.365 254.074 154.699 254.083 155.115C254.083 155.496 253.979 155.839 253.771 156.142C253.563 156.437 253.273 156.671 252.9 156.844C252.527 157.017 252.098 157.104 251.613 157.104Z" fill="black"/>
<path d="M162.046 146.913L159.134 152.464V156H158.224V152.464L155.286 146.913H156.313L158.679 151.632L161.032 146.913H162.046ZM169.8 152.087C169.8 152.399 169.791 152.637 169.774 152.802H163.885C163.911 153.339 164.041 153.799 164.275 154.18C164.509 154.561 164.817 154.852 165.198 155.051C165.579 155.242 165.995 155.337 166.446 155.337C167.035 155.337 167.529 155.194 167.928 154.908C168.335 154.622 168.604 154.236 168.734 153.751H169.696C169.523 154.444 169.15 155.012 168.578 155.454C168.015 155.887 167.304 156.104 166.446 156.104C165.779 156.104 165.181 155.957 164.652 155.662C164.123 155.359 163.707 154.934 163.404 154.388C163.109 153.833 162.962 153.188 162.962 152.451C162.962 151.714 163.109 151.069 163.404 150.514C163.699 149.959 164.11 149.535 164.639 149.24C165.168 148.945 165.77 148.798 166.446 148.798C167.122 148.798 167.711 148.945 168.214 149.24C168.725 149.535 169.115 149.933 169.384 150.436C169.661 150.93 169.8 151.48 169.8 152.087ZM168.877 152.061C168.886 151.532 168.777 151.082 168.552 150.709C168.335 150.336 168.036 150.055 167.655 149.864C167.274 149.673 166.858 149.578 166.407 149.578C165.731 149.578 165.155 149.795 164.678 150.228C164.201 150.661 163.937 151.272 163.885 152.061H168.877ZM171.049 152.438C171.049 151.71 171.192 151.073 171.478 150.527C171.772 149.972 172.175 149.548 172.687 149.253C173.207 148.95 173.792 148.798 174.442 148.798C175.118 148.798 175.698 148.954 176.184 149.266C176.678 149.578 177.033 149.977 177.25 150.462V148.902H178.16V156H177.25V154.427C177.024 154.912 176.665 155.315 176.171 155.636C175.685 155.948 175.105 156.104 174.429 156.104C173.787 156.104 173.207 155.952 172.687 155.649C172.175 155.346 171.772 154.917 171.478 154.362C171.192 153.807 171.049 153.166 171.049 152.438ZM177.25 152.451C177.25 151.879 177.133 151.376 176.899 150.943C176.665 150.51 176.344 150.176 175.937 149.942C175.538 149.708 175.096 149.591 174.611 149.591C174.108 149.591 173.657 149.704 173.259 149.929C172.86 150.154 172.544 150.484 172.31 150.917C172.084 151.342 171.972 151.849 171.972 152.438C171.972 153.019 172.084 153.53 172.31 153.972C172.544 154.405 172.86 154.739 173.259 154.973C173.657 155.198 174.108 155.311 174.611 155.311C175.096 155.311 175.538 155.194 175.937 154.96C176.344 154.726 176.665 154.392 176.899 153.959C177.133 153.526 177.25 153.023 177.25 152.451ZM181.147 150.163C181.347 149.721 181.65 149.379 182.057 149.136C182.473 148.893 182.98 148.772 183.578 148.772V149.721H183.331C182.673 149.721 182.144 149.899 181.745 150.254C181.347 150.609 181.147 151.203 181.147 152.035V156H180.237V148.902H181.147V150.163ZM187.391 156.104C186.577 156.104 185.909 155.918 185.389 155.545C184.878 155.164 184.592 154.648 184.531 153.998H185.467C185.511 154.397 185.697 154.722 186.026 154.973C186.364 155.216 186.815 155.337 187.378 155.337C187.872 155.337 188.258 155.22 188.535 154.986C188.821 154.752 188.964 154.462 188.964 154.115C188.964 153.872 188.886 153.673 188.73 153.517C188.574 153.361 188.375 153.24 188.132 153.153C187.898 153.058 187.578 152.958 187.17 152.854C186.642 152.715 186.213 152.577 185.883 152.438C185.554 152.299 185.272 152.096 185.038 151.827C184.813 151.55 184.7 151.181 184.7 150.722C184.7 150.375 184.804 150.055 185.012 149.76C185.22 149.465 185.515 149.231 185.896 149.058C186.278 148.885 186.711 148.798 187.196 148.798C187.959 148.798 188.574 148.993 189.042 149.383C189.51 149.764 189.762 150.293 189.796 150.969H188.886C188.86 150.553 188.696 150.219 188.392 149.968C188.098 149.708 187.69 149.578 187.17 149.578C186.711 149.578 186.338 149.686 186.052 149.903C185.766 150.12 185.623 150.388 185.623 150.709C185.623 150.986 185.706 151.216 185.87 151.398C186.044 151.571 186.256 151.71 186.507 151.814C186.759 151.909 187.097 152.018 187.521 152.139C188.033 152.278 188.44 152.412 188.743 152.542C189.047 152.672 189.307 152.863 189.523 153.114C189.74 153.365 189.853 153.699 189.861 154.115C189.861 154.496 189.757 154.839 189.549 155.142C189.341 155.437 189.051 155.671 188.678 155.844C188.306 156.017 187.877 156.104 187.391 156.104Z" fill="black"/>
<path d="M105.969 178H98.7983V176.777L102.351 172.902C102.863 172.331 103.227 171.855 103.442 171.474C103.662 171.088 103.771 170.703 103.771 170.317C103.771 169.809 103.627 169.399 103.339 169.086C103.056 168.774 102.673 168.618 102.189 168.618C101.613 168.618 101.167 168.793 100.849 169.145C100.532 169.497 100.373 169.978 100.373 170.588H98.5933C98.5933 169.938 98.7397 169.355 99.0327 168.837C99.3306 168.315 99.7529 167.91 100.3 167.622C100.852 167.333 101.486 167.189 102.204 167.189C103.239 167.189 104.055 167.451 104.65 167.973C105.251 168.491 105.551 169.208 105.551 170.126C105.551 170.659 105.4 171.218 105.097 171.804C104.799 172.385 104.309 173.046 103.625 173.789L101.018 176.579H105.969V178ZM114.274 173.51C114.274 175.043 113.986 176.201 113.41 176.982C112.839 177.758 111.967 178.146 110.795 178.146C109.643 178.146 108.774 177.768 108.188 177.011C107.607 176.25 107.309 175.124 107.294 173.635V171.789C107.294 170.256 107.58 169.106 108.151 168.339C108.728 167.573 109.604 167.189 110.781 167.189C111.948 167.189 112.817 167.563 113.388 168.31C113.964 169.057 114.26 170.175 114.274 171.665V173.51ZM112.495 171.518C112.495 170.517 112.358 169.785 112.084 169.321C111.811 168.852 111.376 168.618 110.781 168.618C110.2 168.618 109.772 168.84 109.499 169.284C109.226 169.724 109.082 170.412 109.067 171.35V173.767C109.067 174.763 109.206 175.505 109.484 175.993C109.763 176.481 110.2 176.726 110.795 176.726C111.367 176.726 111.789 176.501 112.062 176.052C112.336 175.598 112.48 174.89 112.495 173.928V171.518ZM116.325 172.712L116.904 167.336H122.631V168.874H118.383L118.09 171.423C118.583 171.14 119.14 170.998 119.76 170.998C120.776 170.998 121.564 171.323 122.126 171.972C122.692 172.622 122.976 173.496 122.976 174.594C122.976 175.678 122.663 176.542 122.038 177.187C121.413 177.827 120.556 178.146 119.467 178.146C118.491 178.146 117.68 177.871 117.036 177.319C116.396 176.762 116.049 176.03 115.996 175.122H117.717C117.785 175.639 117.971 176.037 118.273 176.315C118.576 176.589 118.972 176.726 119.46 176.726C120.007 176.726 120.432 176.53 120.734 176.14C121.042 175.749 121.196 175.217 121.196 174.543C121.196 173.894 121.027 173.381 120.69 173.005C120.354 172.624 119.89 172.434 119.299 172.434C118.977 172.434 118.703 172.478 118.479 172.565C118.254 172.648 118.01 172.814 117.746 173.063L116.325 172.712ZM128.601 172.133H131.384V173.759H128.601V176.931H126.872V173.759H124.074V172.133H126.872V169.167H128.601V172.133Z" fill="#61A4FF"/>
<path d="M217.618 178H215.845V169.438L213.23 170.332V168.83L217.391 167.299H217.618V178ZM226.37 173.54C225.774 174.169 225.079 174.484 224.283 174.484C223.345 174.484 222.598 174.157 222.042 173.503C221.485 172.844 221.207 171.979 221.207 170.91C221.207 170.207 221.348 169.57 221.631 168.999C221.915 168.427 222.317 167.983 222.84 167.666C223.362 167.348 223.968 167.189 224.656 167.189C225.73 167.189 226.583 167.59 227.212 168.391C227.842 169.191 228.157 170.263 228.157 171.606V172.104C228.157 174.028 227.723 175.495 226.854 176.506C225.984 177.517 224.688 178.029 222.964 178.044H222.752V176.572H223.008C224.058 176.557 224.864 176.306 225.425 175.817C225.987 175.324 226.302 174.565 226.37 173.54ZM224.656 173.093C225.013 173.093 225.347 172.99 225.66 172.785C225.972 172.58 226.214 172.297 226.385 171.936V171.24C226.385 170.454 226.224 169.821 225.901 169.343C225.579 168.864 225.162 168.625 224.649 168.625C224.136 168.625 223.726 168.837 223.418 169.262C223.116 169.682 222.964 170.214 222.964 170.859C222.964 171.528 223.118 172.067 223.426 172.478C223.733 172.888 224.144 173.093 224.656 173.093ZM236.8 173.51C236.8 175.043 236.512 176.201 235.936 176.982C235.364 177.758 234.493 178.146 233.321 178.146C232.168 178.146 231.299 177.768 230.713 177.011C230.132 176.25 229.834 175.124 229.82 173.635V171.789C229.82 170.256 230.105 169.106 230.677 168.339C231.253 167.573 232.129 167.189 233.306 167.189C234.473 167.189 235.342 167.563 235.914 168.31C236.49 169.057 236.785 170.175 236.8 171.665V173.51ZM235.02 171.518C235.02 170.517 234.883 169.785 234.61 169.321C234.336 168.852 233.902 168.618 233.306 168.618C232.725 168.618 232.298 168.84 232.024 169.284C231.751 169.724 231.607 170.412 231.592 171.35V173.767C231.592 174.763 231.731 175.505 232.01 175.993C232.288 176.481 232.725 176.726 233.321 176.726C233.892 176.726 234.314 176.501 234.588 176.052C234.861 175.598 235.005 174.89 235.02 173.928V171.518ZM242.601 172.133H245.384V173.759H242.601V176.931H240.872V173.759H238.074V172.133H240.872V169.167H242.601V172.133Z" fill="#61A4FF"/>
<path d="M169.845 173.54C169.249 174.169 168.553 174.484 167.757 174.484C166.82 174.484 166.073 174.157 165.516 173.503C164.959 172.844 164.681 171.979 164.681 170.91C164.681 170.207 164.823 169.57 165.106 168.999C165.389 168.427 165.792 167.983 166.314 167.666C166.837 167.348 167.442 167.189 168.131 167.189C169.205 167.189 170.057 167.59 170.687 168.391C171.317 169.191 171.632 170.263 171.632 171.606V172.104C171.632 174.028 171.197 175.495 170.328 176.506C169.459 177.517 168.163 178.029 166.439 178.044H166.227V176.572H166.483C167.533 176.557 168.338 176.306 168.9 175.817C169.461 175.324 169.776 174.565 169.845 173.54ZM168.131 173.093C168.487 173.093 168.822 172.99 169.134 172.785C169.447 172.58 169.688 172.297 169.859 171.936V171.24C169.859 170.454 169.698 169.821 169.376 169.343C169.054 168.864 168.636 168.625 168.124 168.625C167.611 168.625 167.201 168.837 166.893 169.262C166.59 169.682 166.439 170.214 166.439 170.859C166.439 171.528 166.593 172.067 166.9 172.478C167.208 172.888 167.618 173.093 168.131 173.093ZM177.55 172.133H180.333V173.759H177.55V176.931H175.821V173.759H173.023V172.133H175.821V169.167H177.55V172.133Z" fill="#61A4FF"/>
<path d="M177.25 133.875C177.25 133.776 177.29 133.68 177.36 133.61C177.43 133.54 177.526 133.5 177.625 133.5H178.375C178.474 133.5 178.57 133.54 178.64 133.61C178.71 133.68 178.75 133.776 178.75 133.875V134.625C178.75 134.724 178.71 134.82 178.64 134.89C178.57 134.96 178.474 135 178.375 135H177.625C177.526 135 177.43 134.96 177.36 134.89C177.29 134.82 177.25 134.724 177.25 134.625V133.875ZM175 133.875C175 133.776 175.04 133.68 175.11 133.61C175.18 133.54 175.276 133.5 175.375 133.5H176.125C176.224 133.5 176.32 133.54 176.39 133.61C176.46 133.68 176.5 133.776 176.5 133.875V134.625C176.5 134.724 176.46 134.82 176.39 134.89C176.32 134.96 176.224 135 176.125 135H175.375C175.276 135 175.18 134.96 175.11 134.89C175.04 134.82 175 134.724 175 134.625V133.875ZM171.25 136.125C171.25 136.026 171.29 135.93 171.36 135.86C171.43 135.79 171.526 135.75 171.625 135.75H172.375C172.474 135.75 172.57 135.79 172.64 135.86C172.71 135.93 172.75 136.026 172.75 136.125V136.875C172.75 136.974 172.71 137.07 172.64 137.14C172.57 137.21 172.474 137.25 172.375 137.25H171.625C171.526 137.25 171.43 137.21 171.36 137.14C171.29 137.07 171.25 136.974 171.25 136.875V136.125ZM173.5 136.125C173.5 136.026 173.54 135.93 173.61 135.86C173.68 135.79 173.776 135.75 173.875 135.75H174.625C174.724 135.75 174.82 135.79 174.89 135.86C174.96 135.93 175 136.026 175 136.125V136.875C175 136.974 174.96 137.07 174.89 137.14C174.82 137.21 174.724 137.25 174.625 137.25H173.875C173.776 137.25 173.68 137.21 173.61 137.14C173.54 137.07 173.5 136.974 173.5 136.875V136.125Z" fill="#E0E0E0"/>
<path d="M169.625 129C169.724 129 169.82 129.04 169.89 129.11C169.96 129.18 170 129.276 170 129.375V129.75H176V129.375C176 129.276 176.04 129.18 176.11 129.11C176.18 129.04 176.276 129 176.375 129C176.474 129 176.57 129.04 176.64 129.11C176.71 129.18 176.75 129.276 176.75 129.375V129.75H177.5C177.898 129.75 178.279 129.908 178.561 130.189C178.842 130.471 179 130.852 179 131.25V139.5C179 139.898 178.842 140.279 178.561 140.561C178.279 140.842 177.898 141 177.5 141H168.5C168.102 141 167.721 140.842 167.439 140.561C167.158 140.279 167 139.898 167 139.5V131.25C167 130.852 167.158 130.471 167.439 130.189C167.721 129.908 168.102 129.75 168.5 129.75H169.25V129.375C169.25 129.276 169.29 129.18 169.36 129.11C169.43 129.04 169.526 129 169.625 129V129ZM167.75 132V139.5C167.75 139.699 167.829 139.89 167.97 140.03C168.11 140.171 168.301 140.25 168.5 140.25H177.5C177.699 140.25 177.89 140.171 178.03 140.03C178.171 139.89 178.25 139.699 178.25 139.5V132H167.75Z" fill="#DBDBDB"/>
<path d="M234.389 130H224.611C224.275 130 224 130.267 224 130.594V131.188C224 131.514 224.275 131.781 224.611 131.781H225.222V137.125H228.889V138.663L226.316 141.157L227.184 142L228.889 140.337V141.875H230.111V140.337L231.816 142L232.684 141.157L230.111 138.663V137.125H233.778V131.781H234.389C234.725 131.781 235 131.514 235 131.188V130.594C235 130.267 234.725 130 234.389 130ZM232.556 135.938H226.444V131.781H232.556V135.938Z" fill="#DBDBDB"/>
<defs>
<filter id="filter0_d" x="1" y="277" width="91" height="91" filterUnits="userSpaceOnUse" color-interpolation-filters="sRGB">
<feFlood flood-opacity="0" result="BackgroundImageFix"/>
<feColorMatrix in="SourceAlpha" type="matrix" values="0 0 0 0 0 0 0 0 0 0 0 0 0 0 0 0 0 0 127 0" result="hardAlpha"/>
<feOffset dy="4"/>
<feGaussianBlur stdDeviation="2"/>
<feComposite in2="hardAlpha" operator="out"/>
<feColorMatrix type="matrix" values="0 0 0 0 0 0 0 0 0 0 0 0 0 0 0 0 0 0 0.25 0"/>
<feBlend mode="normal" in2="BackgroundImageFix" result="effect1_dropShadow"/>
<feBlend mode="normal" in="SourceGraphic" in2="effect1_dropShadow" result="shape"/>
</filter>
<filter id="filter1_d" x="219" y="0" width="53" height="53" filterUnits="userSpaceOnUse" color-interpolation-filters="sRGB">
<feFlood flood-opacity="0" result="BackgroundImageFix"/>
<feColorMatrix in="SourceAlpha" type="matrix" values="0 0 0 0 0 0 0 0 0 0 0 0 0 0 0 0 0 0 127 0" result="hardAlpha"/>
<feOffset dy="4"/>
<feGaussianBlur stdDeviation="2"/>
<feComposite in2="hardAlpha" operator="out"/>
<feColorMatrix type="matrix" values="0 0 0 0 0 0 0 0 0 0 0 0 0 0 0 0 0 0 0.25 0"/>
<feBlend mode="normal" in2="BackgroundImageFix" result="effect1_dropShadow"/>
<feBlend mode="normal" in="SourceGraphic" in2="effect1_dropShadow" result="shape"/>
</filter>
<filter id="filter2_f" x="38" y="475" width="429" height="25" filterUnits="userSpaceOnUse" color-interpolation-filters="sRGB">
<feFlood flood-opacity="0" result="BackgroundImageFix"/>
<feBlend mode="normal" in="SourceGraphic" in2="BackgroundImageFix" result="shape"/>
<feGaussianBlur stdDeviation="2" result="effect1_foregroundBlur"/>
</filter>
<filter id="filter3_d" x="0" y="96" width="78" height="78" filterUnits="userSpaceOnUse" color-interpolation-filters="sRGB">
<feFlood flood-opacity="0" result="BackgroundImageFix"/>
<feColorMatrix in="SourceAlpha" type="matrix" values="0 0 0 0 0 0 0 0 0 0 0 0 0 0 0 0 0 0 127 0" result="hardAlpha"/>
<feOffset dy="4"/>
<feGaussianBlur stdDeviation="2"/>
<feComposite in2="hardAlpha" operator="out"/>
<feColorMatrix type="matrix" values="0 0 0 0 0 0 0 0 0 0 0 0 0 0 0 0 0 0 0.25 0"/>
<feBlend mode="normal" in2="BackgroundImageFix" result="effect1_dropShadow"/>
<feBlend mode="normal" in="SourceGraphic" in2="effect1_dropShadow" result="shape"/>
</filter>
</defs>
</svg>
