<svg width="86" height="69" viewBox="0 0 86 69" fill="none" xmlns="http://www.w3.org/2000/svg">
<path d="M66.65 30.1875C55.9538 30.1875 47.3 38.8664 47.3 49.5938C47.3 60.3211 55.9538 69 66.65 69C77.3463 69 86 60.3211 86 49.5938C86 38.8664 77.3463 30.1875 66.65 30.1875ZM75.25 50.4428C75.25 51.157 74.6588 51.75 73.9466 51.75H65.8034C65.0913 51.75 64.5 51.157 64.5 50.4428V40.1197C64.5 39.4055 65.0913 38.8125 65.8034 38.8125H67.4966C68.2087 38.8125 68.8 39.4055 68.8 40.1197V47.4375H73.9466C74.6588 47.4375 75.25 48.0305 75.25 48.7447V50.4428ZM43 49.5938C43 45.8473 43.9003 42.3029 45.4456 39.1494C44.3706 38.9473 43.2688 38.8125 42.14 38.8125H39.8959C36.9128 40.1871 33.5938 40.9688 30.1 40.9688C26.6063 40.9688 23.3006 40.1871 20.3041 38.8125H18.06C8.08937 38.8125 0 46.9254 0 56.925V62.5312C0 66.1025 2.88906 69 6.45 69H53.0916C47.0044 64.701 43 57.6123 43 49.5938ZM30.1 34.5C39.6003 34.5 47.3 26.7779 47.3 17.25C47.3 7.72207 39.6003 0 30.1 0C20.5997 0 12.9 7.72207 12.9 17.25C12.9 26.7779 20.5997 34.5 30.1 34.5Z" fill="white"/>
</svg>
