<svg width="68" height="61" viewBox="0 0 68 61" fill="none" xmlns="http://www.w3.org/2000/svg">
<path d="M61.625 30.5H51V39.2143C51 44.0208 54.8117 47.9286 59.5 47.9286H60.5625C62.3289 47.9286 63.75 49.3855 63.75 51.1964V57.7321C63.75 59.5431 62.3289 61 60.5625 61H59.5C47.7594 61 38.25 51.2509 38.25 39.2143V6.53571C38.25 2.92746 41.1055 0 44.625 0H61.625C65.1445 0 68 2.92746 68 6.53571V23.9643C68 27.5725 65.1445 30.5 61.625 30.5ZM23.375 30.5H12.75V39.2143C12.75 44.0208 16.5617 47.9286 21.25 47.9286H22.3125C24.0789 47.9286 25.5 49.3855 25.5 51.1964V57.7321C25.5 59.5431 24.0789 61 22.3125 61H21.25C9.50937 61 0 51.2509 0 39.2143V6.53571C0 2.92746 2.85547 0 6.375 0H23.375C26.8945 0 29.75 2.92746 29.75 6.53571V23.9643C29.75 27.5725 26.8945 30.5 23.375 30.5Z" fill="white" fill-opacity="0.11"/>
</svg>
