<svg width="156" height="140" viewBox="0 0 156 140" fill="none" xmlns="http://www.w3.org/2000/svg">
<path d="M141.375 70H117V50C117 38.9688 125.745 30 136.5 30H138.938C142.99 30 146.25 26.6563 146.25 22.5V7.5C146.25 3.34375 142.99 0 138.938 0H136.5C109.566 0 87.75 22.375 87.75 50V125C87.75 133.281 94.3008 140 102.375 140H141.375C149.449 140 156 133.281 156 125V85C156 76.7188 149.449 70 141.375 70ZM53.625 70H29.25V50C29.25 38.9688 37.9945 30 48.75 30H51.1875C55.2398 30 58.5 26.6563 58.5 22.5V7.5C58.5 3.34375 55.2398 0 51.1875 0H48.75C21.8156 0 0 22.375 0 50V125C0 133.281 6.55078 140 14.625 140H53.625C61.6992 140 68.25 133.281 68.25 125V85C68.25 76.7188 61.6992 70 53.625 70Z" fill="white" fill-opacity="0.11"/>
</svg>
