<svg width="21" height="17" viewBox="0 0 21 17" fill="none" xmlns="http://www.w3.org/2000/svg">
<path d="M20.25 3.12245H0.75C0.335766 3.12245 0 2.81181 0 2.42857V0.693878C0 0.31064 0.335766 0 0.75 0H20.25C20.6642 0 21 0.31064 21 0.693878V2.42857C21 2.81181 20.6642 3.12245 20.25 3.12245ZM20.25 10.0612H0.75C0.335766 10.0612 0 9.75058 0 9.36735V7.63265C0 7.24942 0.335766 6.93878 0.75 6.93878H20.25C20.6642 6.93878 21 7.24942 21 7.63265V9.36735C21 9.75058 20.6642 10.0612 20.25 10.0612ZM20.25 17H0.75C0.335766 17 0 16.6894 0 16.3061V14.5714C0 14.1882 0.335766 13.8776 0.75 13.8776H20.25C20.6642 13.8776 21 14.1882 21 14.5714V16.3061C21 16.6894 20.6642 17 20.25 17Z" fill="white"/>
</svg>
