<svg width="19" height="19" viewBox="0 0 19 19" fill="none" xmlns="http://www.w3.org/2000/svg">
<path d="M14.3438 5.34375C14.3438 8.0178 12.1741 10.1875 9.5 10.1875C6.82595 10.1875 4.65625 8.0178 4.65625 5.34375C4.65625 2.6697 6.82595 0.5 9.5 0.5C12.1741 0.5 14.3438 2.6697 14.3438 5.34375ZM9.5 12.9688C10.5004 12.9688 11.4524 12.754 12.3125 12.375H14.25C16.5975 12.375 18.5 14.2775 18.5 16.625V17.2188C18.5 17.926 17.926 18.5 17.2188 18.5H1.78125C1.07399 18.5 0.5 17.926 0.5 17.2188V16.625C0.5 14.2775 2.40251 12.375 4.75 12.375H6.68784C7.55044 12.7537 8.49895 12.9688 9.5 12.9688Z" fill="white" stroke="#757575"/>
</svg>
