<svg width="45" height="34" viewBox="0 0 45 34" fill="none" xmlns="http://www.w3.org/2000/svg">
<path d="M19.6875 33.75C19.6875 33.75 16.875 33.75 16.875 30.9375C16.875 28.125 19.6875 19.6875 30.9375 19.6875C42.1875 19.6875 45 28.125 45 30.9375C45 33.75 42.1875 33.75 42.1875 33.75H19.6875ZM30.9375 16.875C33.1753 16.875 35.3214 15.9861 36.9037 14.4037C38.4861 12.8214 39.375 10.6753 39.375 8.4375C39.375 6.19974 38.4861 4.05363 36.9037 2.47129C35.3214 0.888949 33.1753 0 30.9375 0C28.6997 0 26.5536 0.888949 24.9713 2.47129C23.3889 4.05363 22.5 6.19974 22.5 8.4375C22.5 10.6753 23.3889 12.8214 24.9713 14.4037C26.5536 15.9861 28.6997 16.875 30.9375 16.875Z" fill="white"/>
<path fill-rule="evenodd" clip-rule="evenodd" d="M14.67 33.7501C14.2531 32.8721 14.0451 31.9094 14.0625 30.9376C14.0625 27.1266 15.975 23.2032 19.5075 20.4751C17.7443 19.9318 15.9074 19.6661 14.0625 19.6876C2.8125 19.6876 0 28.1251 0 30.9376C0 33.7501 2.8125 33.7501 2.8125 33.7501H14.67Z" fill="white"/>
<path d="M12.656 16.875C14.5208 16.875 16.3092 16.1342 17.6279 14.8156C18.9465 13.497 19.6873 11.7086 19.6873 9.84378C19.6873 7.97898 18.9465 6.19055 17.6279 4.87194C16.3092 3.55332 14.5208 2.81253 12.656 2.81253C10.7912 2.81253 9.00278 3.55332 7.68416 4.87194C6.36555 6.19055 5.62476 7.97898 5.62476 9.84378C5.62476 11.7086 6.36555 13.497 7.68416 14.8156C9.00278 16.1342 10.7912 16.875 12.656 16.875Z" fill="white"/>
</svg>
