<svg width="39" height="37" viewBox="0 0 39 37" fill="none" xmlns="http://www.w3.org/2000/svg">
<path d="M26.6 15.2C26.6 14.8817 26.7159 14.5765 26.9222 14.3515C27.1285 14.1264 27.4083 14 27.7 14H29.9C30.1917 14 30.4715 14.1264 30.6778 14.3515C30.8841 14.5765 31 14.8817 31 15.2V17.6C31 17.9183 30.8841 18.2235 30.6778 18.4485C30.4715 18.6736 30.1917 18.8 29.9 18.8H27.7C27.4083 18.8 27.1285 18.6736 26.9222 18.4485C26.7159 18.2235 26.6 17.9183 26.6 17.6V15.2ZM20 15.2C20 14.8817 20.1159 14.5765 20.3222 14.3515C20.5285 14.1264 20.8083 14 21.1 14H23.3C23.5917 14 23.8715 14.1264 24.0778 14.3515C24.2841 14.5765 24.4 14.8817 24.4 15.2V17.6C24.4 17.9183 24.2841 18.2235 24.0778 18.4485C23.8715 18.6736 23.5917 18.8 23.3 18.8H21.1C20.8083 18.8 20.5285 18.6736 20.3222 18.4485C20.1159 18.2235 20 17.9183 20 17.6V15.2ZM9 22.4C9 22.0817 9.11589 21.7765 9.32218 21.5515C9.52847 21.3264 9.80826 21.2 10.1 21.2H12.3C12.5917 21.2 12.8715 21.3264 13.0778 21.5515C13.2841 21.7765 13.4 22.0817 13.4 22.4V24.8C13.4 25.1183 13.2841 25.4235 13.0778 25.6485C12.8715 25.8736 12.5917 26 12.3 26H10.1C9.80826 26 9.52847 25.8736 9.32218 25.6485C9.11589 25.4235 9 25.1183 9 24.8V22.4ZM15.6 22.4C15.6 22.0817 15.7159 21.7765 15.9222 21.5515C16.1285 21.3264 16.4083 21.2 16.7 21.2H18.9C19.1917 21.2 19.4715 21.3264 19.6778 21.5515C19.8841 21.7765 20 22.0817 20 22.4V24.8C20 25.1183 19.8841 25.4235 19.6778 25.6485C19.4715 25.8736 19.1917 26 18.9 26H16.7C16.4083 26 16.1285 25.8736 15.9222 25.6485C15.7159 25.4235 15.6 25.1183 15.6 24.8V22.4Z" fill="white"/>
<path d="M8.53125 0C8.85448 0 9.16448 0.121819 9.39304 0.338658C9.6216 0.555497 9.75 0.849593 9.75 1.15625V2.3125H29.25V1.15625C29.25 0.849593 29.3784 0.555497 29.607 0.338658C29.8355 0.121819 30.1455 0 30.4688 0C30.792 0 31.102 0.121819 31.3305 0.338658C31.5591 0.555497 31.6875 0.849593 31.6875 1.15625V2.3125H34.125C35.4179 2.3125 36.6579 2.79978 37.5721 3.66713C38.4864 4.53449 39 5.71087 39 6.9375V32.375C39 33.6016 38.4864 34.778 37.5721 35.6454C36.6579 36.5127 35.4179 37 34.125 37H4.875C3.58207 37 2.34209 36.5127 1.42785 35.6454C0.513615 34.778 0 33.6016 0 32.375V6.9375C0 5.71087 0.513615 4.53449 1.42785 3.66713C2.34209 2.79978 3.58207 2.3125 4.875 2.3125H7.3125V1.15625C7.3125 0.849593 7.4409 0.555497 7.66946 0.338658C7.89802 0.121819 8.20802 0 8.53125 0V0ZM2.4375 9.25V32.375C2.4375 32.9883 2.69431 33.5765 3.15143 34.0102C3.60855 34.4439 4.22853 34.6875 4.875 34.6875H34.125C34.7715 34.6875 35.3915 34.4439 35.8486 34.0102C36.3057 33.5765 36.5625 32.9883 36.5625 32.375V9.25H2.4375Z" fill="white"/>
</svg>
