<svg width="33" height="36" viewBox="0 0 33 36" fill="none" xmlns="http://www.w3.org/2000/svg">
<path d="M31.1667 0H1.83333C0.825 0 0 0.801583 0 1.7813V3.56259C0 4.54231 0.825 5.34389 1.83333 5.34389H3.66667V21.3756H14.6667V25.9891L6.94833 33.4706L9.55167 36L14.6667 31.0124V35.6259H18.3333V31.0124L23.4483 36L26.0517 33.4706L18.3333 25.9891V21.3756H29.3333V5.34389H31.1667C32.175 5.34389 33 4.54231 33 3.56259V1.7813C33 0.801583 32.175 0 31.1667 0ZM25.6667 17.813H7.33333V5.34389H25.6667V17.813Z" fill="white"/>
</svg>
