<svg width="14" height="15" viewBox="0 0 14 15" fill="none" xmlns="http://www.w3.org/2000/svg">
<g id="Group 746">
<g id="Group 634">
<g id="Group 21">
<circle id="Ellipse 25" cx="7.21485" cy="1.39454" r="0.753911" fill="white"/>
<circle id="Ellipse 26" cx="7.21485" cy="4.41016" r="0.753911" fill="white"/>
<circle id="Ellipse 27" cx="7.21485" cy="7.42579" r="0.753911" fill="white"/>
<circle id="Ellipse 28" cx="7.21485" cy="10.4414" r="0.753911" fill="white"/>
<circle id="Ellipse 29" cx="7.21485" cy="13.457" r="0.753911" fill="white"/>
</g>
<g id="Group 22">
<circle id="Ellipse 25_2" cx="13.2461" cy="7.42579" r="0.753911" transform="rotate(90 13.2461 7.42579)" fill="white"/>
<circle id="Ellipse 26_2" cx="10.2324" cy="7.42579" r="0.753911" transform="rotate(90 10.2324 7.42579)" fill="white"/>
<circle id="Ellipse 27_2" cx="7.21289" cy="7.42579" r="0.753911" transform="rotate(90 7.21289 7.42579)" fill="white"/>
<circle id="Ellipse 28_2" cx="4.19921" cy="7.42579" r="0.753911" transform="rotate(90 4.19921 7.42579)" fill="white"/>
<circle id="Ellipse 29_2" cx="1.18359" cy="7.42579" r="0.753911" transform="rotate(90 1.18359 7.42579)" fill="white"/>
</g>
<g id="Group 23">
<circle id="Ellipse 25_3" cx="11.4787" cy="11.6875" r="0.753911" transform="rotate(135 11.4787 11.6875)" fill="white"/>
<circle id="Ellipse 26_3" cx="9.34982" cy="9.55859" r="0.753911" transform="rotate(135 9.34982 9.55859)" fill="white"/>
<circle id="Ellipse 27_3" cx="7.21311" cy="7.42578" r="0.753911" transform="rotate(135 7.21311 7.42578)" fill="white"/>
<circle id="Ellipse 28_3" cx="5.08225" cy="5.29688" r="0.753911" transform="rotate(135 5.08225 5.29688)" fill="white"/>
<circle id="Ellipse 29_3" cx="2.94943" cy="3.16406" r="0.753911" transform="rotate(135 2.94943 3.16406)" fill="white"/>
</g>
<g id="Group 24">
<circle id="Ellipse 25_4" cx="2.95312" cy="11.6897" r="0.753911" transform="rotate(-135 2.95312 11.6897)" fill="white"/>
<circle id="Ellipse 26_4" cx="5.08398" cy="9.55686" r="0.753911" transform="rotate(-135 5.08398 9.55686)" fill="white"/>
<circle id="Ellipse 27_4" cx="7.2168" cy="7.42795" r="0.753911" transform="rotate(-135 7.2168 7.42795)" fill="white"/>
<circle id="Ellipse 28_4" cx="9.34961" cy="5.29123" r="0.753911" transform="rotate(-135 9.34961 5.29123)" fill="white"/>
<circle id="Ellipse 29_4" cx="11.4824" cy="3.15842" r="0.753911" transform="rotate(-135 11.4824 3.15842)" fill="white"/>
</g>
</g>
</g>
</svg>
